<mxfile modified="2022-02-10T11:38:24.666Z" host="app.diagrams.net" agent="5.0 (Windows NT 10.0; Win64; x64) AppleWebKit/537.36 (KHTML, like Gecko) Chrome/97.0.4692.99 Safari/537.36" etag="qAJn8kwxcOP1lSBsNL71" version="16.5.5" type="github">
  <diagram id="WI9T0HZ2pTsCkuznbFz-" name="Page-1">
    <mxGraphModel dx="1038" dy="1374" grid="1" gridSize="10" guides="1" tooltips="1" connect="1" arrows="1" fold="1" page="1" pageScale="1" pageWidth="1169" pageHeight="827" math="0" shadow="0">
      <root>
        <mxCell id="0" />
        <mxCell id="1" parent="0" />
        <mxCell id="HsG0DyYVAuRbo-L4cB_m-1" value="" style="rounded=0;whiteSpace=wrap;html=1;" parent="1" vertex="1">
          <mxGeometry x="160" y="120" width="780" height="370" as="geometry" />
        </mxCell>
        <mxCell id="HsG0DyYVAuRbo-L4cB_m-2" value="&lt;b&gt;&lt;font style=&quot;font-size: 14px&quot; color=&quot;#9933ff&quot;&gt;m3-sateeshkumarkota&lt;/font&gt; namespace&lt;/b&gt;" style="text;html=1;align=center;verticalAlign=middle;whiteSpace=wrap;rounded=0;" parent="1" vertex="1">
          <mxGeometry x="460" y="140" width="250" height="30" as="geometry" />
        </mxCell>
        <mxCell id="HsG0DyYVAuRbo-L4cB_m-3" value="" style="rounded=0;whiteSpace=wrap;html=1;" parent="1" vertex="1">
          <mxGeometry x="190" y="190" width="410" height="260" as="geometry" />
        </mxCell>
        <mxCell id="HsG0DyYVAuRbo-L4cB_m-4" value="" style="rounded=0;whiteSpace=wrap;html=1;" parent="1" vertex="1">
          <mxGeometry x="640" y="190" width="280" height="260" as="geometry" />
        </mxCell>
        <mxCell id="HsG0DyYVAuRbo-L4cB_m-8" value="" style="rounded=0;whiteSpace=wrap;html=1;" parent="1" vertex="1">
          <mxGeometry x="200" y="220" width="120" height="170" as="geometry" />
        </mxCell>
        <mxCell id="HsG0DyYVAuRbo-L4cB_m-9" value="" style="rounded=0;whiteSpace=wrap;html=1;" parent="1" vertex="1">
          <mxGeometry x="335" y="220" width="120" height="170" as="geometry" />
        </mxCell>
        <mxCell id="HsG0DyYVAuRbo-L4cB_m-10" value="" style="rounded=0;whiteSpace=wrap;html=1;" parent="1" vertex="1">
          <mxGeometry x="470" y="220" width="120" height="170" as="geometry" />
        </mxCell>
        <mxCell id="HsG0DyYVAuRbo-L4cB_m-14" value="" style="rounded=0;whiteSpace=wrap;html=1;fillColor=#fff2cc;strokeColor=#d6b656;" parent="1" vertex="1">
          <mxGeometry x="230" y="230" width="80" height="50" as="geometry" />
        </mxCell>
        <mxCell id="HsG0DyYVAuRbo-L4cB_m-15" value="" style="rounded=0;whiteSpace=wrap;html=1;fillColor=#fff2cc;strokeColor=#d6b656;" parent="1" vertex="1">
          <mxGeometry x="220" y="240" width="80" height="50" as="geometry" />
        </mxCell>
        <mxCell id="HsG0DyYVAuRbo-L4cB_m-16" value="" style="rounded=0;whiteSpace=wrap;html=1;fillColor=#fff2cc;strokeColor=#d6b656;" parent="1" vertex="1">
          <mxGeometry x="210" y="250" width="80" height="50" as="geometry" />
        </mxCell>
        <mxCell id="HsG0DyYVAuRbo-L4cB_m-17" value="" style="shape=cylinder3;whiteSpace=wrap;html=1;boundedLbl=1;backgroundOutline=1;size=15;fillColor=#d5e8d4;strokeColor=#82b366;" parent="1" vertex="1">
          <mxGeometry x="220" y="310" width="80" height="50" as="geometry" />
        </mxCell>
        <mxCell id="HsG0DyYVAuRbo-L4cB_m-18" value="&lt;font color=&quot;#000000&quot;&gt;Containers&lt;/font&gt;" style="text;html=1;strokeColor=none;fillColor=#fff2cc;align=center;verticalAlign=middle;whiteSpace=wrap;rounded=0;strokeWidth=0;" parent="1" vertex="1">
          <mxGeometry x="220" y="260" width="60" height="30" as="geometry" />
        </mxCell>
        <mxCell id="HsG0DyYVAuRbo-L4cB_m-19" value="Volume" style="text;html=1;strokeColor=none;fillColor=#d5e8d4;align=center;verticalAlign=middle;whiteSpace=wrap;rounded=0;" parent="1" vertex="1">
          <mxGeometry x="240" y="320" width="40" height="16" as="geometry" />
        </mxCell>
        <mxCell id="HsG0DyYVAuRbo-L4cB_m-21" value="&lt;font color=&quot;#66b2ff&quot;&gt;eventhub-zookeeper-0&lt;/font&gt;" style="text;html=1;strokeColor=none;fillColor=none;align=center;verticalAlign=middle;whiteSpace=wrap;rounded=0;fontColor=#000000;" parent="1" vertex="1">
          <mxGeometry x="215" y="360" width="90" height="30" as="geometry" />
        </mxCell>
        <mxCell id="HsG0DyYVAuRbo-L4cB_m-30" value="" style="shape=cylinder3;whiteSpace=wrap;html=1;boundedLbl=1;backgroundOutline=1;size=15;fillColor=#d5e8d4;strokeColor=#82b366;" parent="1" vertex="1">
          <mxGeometry x="355" y="310" width="80" height="50" as="geometry" />
        </mxCell>
        <mxCell id="HsG0DyYVAuRbo-L4cB_m-31" value="Volume" style="text;html=1;strokeColor=none;fillColor=#d5e8d4;align=center;verticalAlign=middle;whiteSpace=wrap;rounded=0;" parent="1" vertex="1">
          <mxGeometry x="375" y="320" width="40" height="16" as="geometry" />
        </mxCell>
        <mxCell id="HsG0DyYVAuRbo-L4cB_m-32" value="&lt;font color=&quot;#66b2ff&quot;&gt;eventhub-zookeeper-1&lt;/font&gt;" style="text;html=1;strokeColor=none;fillColor=none;align=center;verticalAlign=middle;whiteSpace=wrap;rounded=0;fontColor=#000000;" parent="1" vertex="1">
          <mxGeometry x="350" y="360" width="90" height="30" as="geometry" />
        </mxCell>
        <mxCell id="HsG0DyYVAuRbo-L4cB_m-33" value="" style="shape=cylinder3;whiteSpace=wrap;html=1;boundedLbl=1;backgroundOutline=1;size=15;fillColor=#d5e8d4;strokeColor=#82b366;" parent="1" vertex="1">
          <mxGeometry x="490" y="310" width="80" height="50" as="geometry" />
        </mxCell>
        <mxCell id="HsG0DyYVAuRbo-L4cB_m-34" value="Volume" style="text;html=1;strokeColor=none;fillColor=#d5e8d4;align=center;verticalAlign=middle;whiteSpace=wrap;rounded=0;" parent="1" vertex="1">
          <mxGeometry x="510" y="320" width="40" height="16" as="geometry" />
        </mxCell>
        <mxCell id="HsG0DyYVAuRbo-L4cB_m-35" value="&lt;font color=&quot;#99ccff&quot;&gt;eventhub-zookeeper-2&lt;/font&gt;" style="text;html=1;strokeColor=none;fillColor=none;align=center;verticalAlign=middle;whiteSpace=wrap;rounded=0;fontColor=#000000;" parent="1" vertex="1">
          <mxGeometry x="485" y="360" width="90" height="30" as="geometry" />
        </mxCell>
        <mxCell id="HsG0DyYVAuRbo-L4cB_m-36" value="" style="rounded=0;whiteSpace=wrap;html=1;fillColor=#fff2cc;strokeColor=#d6b656;" parent="1" vertex="1">
          <mxGeometry x="365" y="230" width="80" height="50" as="geometry" />
        </mxCell>
        <mxCell id="HsG0DyYVAuRbo-L4cB_m-37" value="" style="rounded=0;whiteSpace=wrap;html=1;fillColor=#fff2cc;strokeColor=#d6b656;" parent="1" vertex="1">
          <mxGeometry x="355" y="240" width="80" height="50" as="geometry" />
        </mxCell>
        <mxCell id="HsG0DyYVAuRbo-L4cB_m-38" value="" style="rounded=0;whiteSpace=wrap;html=1;fillColor=#fff2cc;strokeColor=#d6b656;" parent="1" vertex="1">
          <mxGeometry x="345" y="250" width="80" height="50" as="geometry" />
        </mxCell>
        <mxCell id="HsG0DyYVAuRbo-L4cB_m-39" value="&lt;font color=&quot;#000000&quot;&gt;Containers&lt;/font&gt;" style="text;html=1;strokeColor=none;fillColor=#fff2cc;align=center;verticalAlign=middle;whiteSpace=wrap;rounded=0;strokeWidth=0;" parent="1" vertex="1">
          <mxGeometry x="355" y="260" width="60" height="30" as="geometry" />
        </mxCell>
        <mxCell id="HsG0DyYVAuRbo-L4cB_m-48" value="" style="rounded=0;whiteSpace=wrap;html=1;fillColor=#fff2cc;strokeColor=#d6b656;" parent="1" vertex="1">
          <mxGeometry x="500" y="230" width="80" height="50" as="geometry" />
        </mxCell>
        <mxCell id="HsG0DyYVAuRbo-L4cB_m-49" value="" style="rounded=0;whiteSpace=wrap;html=1;fillColor=#fff2cc;strokeColor=#d6b656;" parent="1" vertex="1">
          <mxGeometry x="490" y="240" width="80" height="50" as="geometry" />
        </mxCell>
        <mxCell id="HsG0DyYVAuRbo-L4cB_m-50" value="" style="rounded=0;whiteSpace=wrap;html=1;fillColor=#fff2cc;strokeColor=#d6b656;" parent="1" vertex="1">
          <mxGeometry x="480" y="250" width="80" height="50" as="geometry" />
        </mxCell>
        <mxCell id="HsG0DyYVAuRbo-L4cB_m-51" value="&lt;font color=&quot;#000000&quot;&gt;Containers&lt;/font&gt;" style="text;html=1;strokeColor=none;fillColor=#fff2cc;align=center;verticalAlign=middle;whiteSpace=wrap;rounded=0;strokeWidth=0;" parent="1" vertex="1">
          <mxGeometry x="490" y="260" width="60" height="30" as="geometry" />
        </mxCell>
        <mxCell id="HsG0DyYVAuRbo-L4cB_m-64" value="" style="rounded=0;whiteSpace=wrap;html=1;" parent="1" vertex="1">
          <mxGeometry x="720" y="220" width="120" height="170" as="geometry" />
        </mxCell>
        <mxCell id="HsG0DyYVAuRbo-L4cB_m-52" value="&lt;font color=&quot;#ff3333&quot;&gt;eventhub-zookeeper&lt;/font&gt;&lt;font color=&quot;#000000&quot;&gt;(headless svc)&lt;/font&gt;" style="text;html=1;strokeColor=none;fillColor=none;align=center;verticalAlign=middle;whiteSpace=wrap;rounded=0;fontSize=14;fontColor=#99CCFF;" parent="1" vertex="1">
          <mxGeometry x="270" y="410" width="260" height="30" as="geometry" />
        </mxCell>
        <mxCell id="HsG0DyYVAuRbo-L4cB_m-57" value="" style="rounded=0;whiteSpace=wrap;html=1;fillColor=#fff2cc;strokeColor=#d6b656;" parent="1" vertex="1">
          <mxGeometry x="750" y="230" width="80" height="50" as="geometry" />
        </mxCell>
        <mxCell id="HsG0DyYVAuRbo-L4cB_m-58" value="" style="rounded=0;whiteSpace=wrap;html=1;fillColor=#fff2cc;strokeColor=#d6b656;" parent="1" vertex="1">
          <mxGeometry x="740" y="240" width="80" height="50" as="geometry" />
        </mxCell>
        <mxCell id="HsG0DyYVAuRbo-L4cB_m-59" value="" style="rounded=0;whiteSpace=wrap;html=1;fillColor=#fff2cc;strokeColor=#d6b656;" parent="1" vertex="1">
          <mxGeometry x="730" y="250" width="80" height="50" as="geometry" />
        </mxCell>
        <mxCell id="HsG0DyYVAuRbo-L4cB_m-60" value="&lt;font color=&quot;#000000&quot;&gt;Containers&lt;/font&gt;" style="text;html=1;strokeColor=none;fillColor=#fff2cc;align=center;verticalAlign=middle;whiteSpace=wrap;rounded=0;strokeWidth=0;" parent="1" vertex="1">
          <mxGeometry x="740" y="260" width="60" height="30" as="geometry" />
        </mxCell>
        <mxCell id="HsG0DyYVAuRbo-L4cB_m-61" value="" style="shape=cylinder3;whiteSpace=wrap;html=1;boundedLbl=1;backgroundOutline=1;size=15;fillColor=#d5e8d4;strokeColor=#82b366;" parent="1" vertex="1">
          <mxGeometry x="740" y="310" width="80" height="50" as="geometry" />
        </mxCell>
        <mxCell id="HsG0DyYVAuRbo-L4cB_m-62" value="Volume" style="text;html=1;strokeColor=none;fillColor=#d5e8d4;align=center;verticalAlign=middle;whiteSpace=wrap;rounded=0;" parent="1" vertex="1">
          <mxGeometry x="760" y="320" width="40" height="16" as="geometry" />
        </mxCell>
        <mxCell id="HsG0DyYVAuRbo-L4cB_m-63" value="&lt;font color=&quot;#66b2ff&quot;&gt;eventhub-kafka-0/1/2&lt;/font&gt;" style="text;html=1;strokeColor=none;fillColor=none;align=center;verticalAlign=middle;whiteSpace=wrap;rounded=0;fontColor=#000000;" parent="1" vertex="1">
          <mxGeometry x="735" y="360" width="90" height="30" as="geometry" />
        </mxCell>
        <mxCell id="HsG0DyYVAuRbo-L4cB_m-66" value="&lt;font color=&quot;#ff3333&quot;&gt;eventhub-kafka&lt;/font&gt;&lt;font color=&quot;#000000&quot;&gt;(headless svc)&lt;/font&gt;" style="text;html=1;strokeColor=none;fillColor=none;align=center;verticalAlign=middle;whiteSpace=wrap;rounded=0;fontSize=14;fontColor=#99CCFF;" parent="1" vertex="1">
          <mxGeometry x="650" y="413.5" width="260" height="30" as="geometry" />
        </mxCell>
        <mxCell id="HsG0DyYVAuRbo-L4cB_m-68" value="" style="shape=image;verticalLabelPosition=bottom;labelBackgroundColor=default;verticalAlign=top;aspect=fixed;imageAspect=0;image=data:image/png,iVBORw0KGgoAAAANSUhEUgAAAggAAAEZCAYAAADynt3AAAAAAXNSR0IArs4c6QAAIABJREFUeF7sfQd8HNW1/pm2van3Lsuy5S7cDbhRjDEBEtOSkAc8HEL4h0DgkZeXvKcQQspLJy8kQAidxKaEXgzGYIxxr5IsS7Z6l1baXmbm3v/v3plZrRTTYuFY9h1+y660s7N3vhnrfvc73zmHA7adNghgjLllJSXmfrtdNJlM1pz09KKurtb5wUg8LzU1dYHf518YjsTMsqJyKsKA6ZlzAIAB0x8Q8BwHggBglkTV4/F0Kyp+aXigr620pLhZtDk/9B475uuLx+MVFRXxzZs3K6cNeOxEGAIMAYYAQ2AUAmR2YNsERqCmpoZ/69ln3d6IL5e32HNRXF2GBXGKoqBVcRXMVkcKmKwOMFkcIJqsYDJZtLPlOEoNCDOg3IA+a0QBIwQIqaDIUYhHQiDHQxALB0CJBbHNYj4ix2Pv222WD0LB/jqby9lRVOT2vvTS7vAEhpENnSHAEGAIMATGIMAIwgS9JTDGfPX00mmRCD8roqqzRdGyMqZCpcniFDVC4ATRZAae54HnBOB4nj6IQsAlPRJEQdMRyP8AUzkBA0KIvtYIA3kooMQjEI8EIRQcBrOghjBGb3JqdE88Gt6RmVu4f9WqVf01NTVogsLKhs0QYAgwBBgCOgKMIEywW6Gmpsby3PpH5/r8sUtAtM4F3jRbRrxLNNtBlCwgiCYQBIE+eEHUnnntZ0oQCFHgjGedLBAtgdwJnHY76EEHTVXAMIooYKwCQoQ8qKAqcYhHgyBHAwir0WY57N8hcejdSaXlr7+6aVPrBIOWDZchwBBgCDAEkhBgBGGC3A41NTXiay8+d1ZP38CNiLfMx7x1KhZNHMdLAByvRw20CZ8QAlGUgBdFECk5EDWSIBKSIIBgqAm8kFATCHEYURPIcTRgEuEHShYwIIwAE/8CfdZCEUhVQVGiIEdCoMrB/shQ7xGbGZ4rrSx76tVXN/dMEIjZMBkCDAGGAEOAEYSJdQ8sra5O7x32/kcgrl4DkjsTBLMEvKCv9Y9/LoQoCAY5IESBqgki8Ia6wBNlgYQdyDMhBLqqQF6T/wyGYHgVqE2Bxh90rwIGpOohCDwSgkCKDIocg4i/LxAP9NVmeZw/v+hL016pqdkQn1ios9EyBBgCDIEzGwGmIJza159ftuCshcc6eh6Kc7ZKwepJqAWfZdjEg0BCDKIk6SEH7ZkoCtSjQMMQyV4FnTDoXgVdntBMjQZRMDIfiKpAlISEV0Gl6gJRFuRYCEKDrYqAwvdb7O57Dhw40PdZxs32ZQgwBBgCDIF/HQKMIPzrsP/IbybpitOmlWRZBMd1XYP+H/OWVI4T9eyDExgvT1QCqiBoigIJQVCVQSQhCKIgEN+CAGQ/amqk4QpNWUiEH3RFQUuR1EyNWpokIQracyL0QIiCEofAUDdwMe9usyDckldcvPe1116LncBpsI8yBBgCDAGGwElAgBGEkwDyZ/mKtWvXmuoPHJgRkeXvhePCGt6aIpLJejw3msmgGxcJWRCIX0H/WdRNjZygEwadLJAwBCEJlDyQ8ENy6EGTFUayIHSPgooRcThShSEa8kJ4qLPPIir/Y7bKT+/efcw3nufEjsUQYAgwBBgC44sAIwjji+cJHY2Qg9r9e1aEouh7imCbz0kOKeEWPKEjH//DVCEgE77Ag8hrREHLgDieV2F09oNGGHg9+UG7jQxDo1FbgaoJuqmRmBvlaAgiwx2hWLD/p5k2xx+21dZ6P4fTYodkCDAEGAIMgXFAgBGEcQBxnA7BTZs8uToQjd+nCI55nGgjM/I4HfrjD6NlOGphBRp+IKGHJFOjoS5opkZNWTDCD8BzQGhCwtRIX/9j9oOhMMixCAS97UNxX9dv8z2pv928b9/wSTlJ9iUMAYYAQ4Ah8JkQODkz0Gca0pm5c3VFRbofod+GkeUKTrKLWjWCk79pRZQIUUj2KhBlQSMGRl0F6lfQCYNBFpJDD+S15lPQNyP7ASFabCkw2DqIowM/nLeg4MFHHtkcPflnyr6RIcAQYAgwBD4OgX/NLMSuyT8gsKC6en5rj/d9wZ4pfm7KAe2/gBMegk+6DIZXgdRUIBkPgiBRU6NWX0FPkdQ9C9q+hEQY/gRdVaA1mIwQhF6pETANN/h6G5ujoYGvNTe3b/mksbD3GQIMAYYAQ+DkIsAIwsnF+yO/raSg4L64lHILJ9k+txFhJQKXX3QOqKoKcVmBSDQOA94h6OvzQlxRQVEBwlEFsF54KXkghqJghB6057HFl/QMCEEPReihBy38MFJ8iRyX+BNCvn6I+9o32jh0/fYDBzo+txNnB2YIMAQYAgyBz4wAIwifGbLP5wPTps98eSgireYEcXy+QO+noJVL1qseymG4eNVSSElNA7vdAZIoQEF+LlitVohGIrB9x0545Y3NIGMzDSnYbRYQOI5WT1RUDNGYDBg0nwJVEWgYQlMXRvsUjLoKerokLcSUXNZZ0xQISRjoqMcS8n9r/8Ha34/PibOjMAQYAgwBhsB4IMAIwnigOA7HmD2n+r3+AHc28P8kQdDaMAJGMiiKDIgTQOEkwIIZMC+AAhIgXqRhAKIQCByCGXk2uOHKiyErMws27W2C5954H7y9XZDjMsGMSflQmJ8NAs+BoqoQCkfgWEsXNLf3QlTGicJKmoqQXKVRq6kw4lXQQhEcMTPqKZIGWSCqghwLQt+x3U3zphUtefrFt3vHAUp2CIYAQ4AhwBAYBwQYQRgHEMfjEGVlZY9Ewfm1z1oQCSMFkBylk3hMsIJqcYNiSgUsWUDhLYBEKwApsiRZAQSJSv0CyMqcXNH37+dNDeWnOqS/f9iY9fyePn4gzEEqH4AvzfLgpdUV3NGWDthypB84pECuS4TCNDvU1TfCntqjEJM1C6KRKqkVYDK8CoZfgQdeVxeMjpIjXgW9ngIA9LfXgah6v3WorvG+8cCSHYMhwBBgCDAEThwBRhBOHMNxOcKsWdP/rWcw+hfRlvaJx6M9EUjr5VgAImCCqCMfkDMXVMkBmBAC4mM4jo+AHFgEBS0rtwx995rlyGUV+Z+v3yK+dnDYFVQEjigQM7KEgbsumdLo7e9x/X5Tc0XjkCiRfASnqMKyMjMsmZQGb7y1GQ7UHgZBslN1wCQCVQfiCgAvmmmaJJ9UUyGhJtBMiDElnXke5EgQ/B27GxuaWio+8eTZDgwBhgBDgCFwUhBgBOGkwPzJXzJ9ekVpKIRfifPOShBMx/8AiSKocYhFvODjU0DNngXYmQOYhCVoaOITLidS4KrZDu8v7rhWiIQjpu//+XX+77t6TTFEUg8AQI3DhVNdQz++bnl0w2ubpfve93tCqqjHPDAUmAPoxnMKosFg0Px/73YJlr59sHbpTKiomASqokBbewe8s2UH+CIYaP8HPfRAyzrT9tOky+RIWeeRmgoAXYfeRq1d3aQDFdsYAgwBhgBD4BRAgBGEU+AikCGQds7PP/PM1YP+6B/BkmIDLnmuxIBVBeLRIPh5O8TyFwHYsz7TyCUurt66LKfjf7/7jZxAMAg/e+Rl+Q+v7rNGsY1DIICKMfEucOdXpfh+te589dW3t/L3vNHh9MtSYiAu7I19+4Lyfoeg+v97o2/y1VNV9fy5lUJLW7vQ1dEJudmZtPbBw49tgCg20/EREmB0ktT8ClqqJFUVSPtpTjM0dtRthu6eHnY/fqarynZmCDAEGAKfHwLsD/Lnh+1nPvLChVWpfT3B22LYcgtITg9VBTAGOR6BIGeBcOpUwJ4iXS34DIdXw2jdOQUtd91web7ZZAKzREskhyPhkL+pudV8pLnNfrjDG/7NGy2ZRZnu2N3XVMem5KeL//GHF8QPOrAYRySQgPC8PDHw7S/MEZq7+via5xssT96y5IP2/sHUXzyzfUrvUAgyIsfgy2uWgygAPLHhTWqUNDbiPdBUhJHW00aqJCn1PNS8Pd7a0aWxCrYxBBgCDAGGwL8cAUYQ/uWXYPQAFi2akTnQF7whqkj/rvLmEuAkzh+PQ6B0FYDJ+U+NllPDKM8pxLPSXHK6xymnO62Cx2m2uWxW3mm3KQ6rpASCYeW/Hn/fDbwEi8rd/v+8cjHKdIj4yTe3Wzr8CnKbOGHFjEKltDCX++nf3ofXdh+zvXPv1Uf3H+1Mv+3BzZ64NQe4uB/KpG74yU2Xwq/v+xO0dftpU6fkTTM16uEG2ihKpJkXQrD5vbrG5nP/qRNkH2IIMAQYAgyBcUeAEYRxh/TED3jbbbdZX3r+mfNBsH45qsAF3jjnCk++DECyf8LBMfURcGoUQI4BFwuCgMLAqXEAVdHaMJMOi0Q/oAUPNdMgqZNAJnLFmglgchDHIZ5WnBm5aF4ZXjW3Qk11mGWEkKW9b0h48cMmdf32dqsvGOWf+EZ1G2+yZn7jNy9LPimHygVSpBsevXlJ66b3tha89NpmXjLbj2uYJJUQNA8CD2p4ANIc3KX7Dta9cOLosSMwBBgCDAGGwHggwAjCeKD4OR1j0aLZRZ1t/dVxk/u/e9IXz8TugtHfRLIZlDBw4QEQgt3AhQcxCg8DjxXksJrAJADwSMY8hxSe0AMVgaoqnIoQpygKUhQVy4qKVQw8Bk5EvInHopmEMDhOtPBWmx2VVkxWPLmTRGRygjeMcOtgmA/LwBOGsbIEe394w4X8Dx98idt4VHFj0QaeaIv8wj3X9v1pw+vc82/vzHWGesBk+eisClLd0YKD76xYueLiBx54IPw5QckOyxBgCDAEGAKfEQFGED4jYCd7d9ICur6l6zt1wbR7Uf5c6kmAuB+44TYQ+g6CGugnqYsY1Dj2uF2ovLQEZ2VlgcViJrULISbLKBaLITkeh2g0imOxGCbP5BGJRMjvUDQaJc+ENGCEkFH1kOd4EYEomTjBJGDBInLuXE5NrwTsLqSplDYRKXdeWDK8Yu5k/pHnN6IDR3vESxZPRVdevMJ90y+fGd58xJ9m7t0L7kg3SCZCEsbcbkgGiHq7rQK+rLGlZfvJxpZ9H0OAIcAQYAh8NAKMIEyAuyMlp+DsiDXv3binjOM6dwMaOEqzGvSmyvQMCtJd+LzqSRhjzHmD4XhDhxd6fRFSVplzutxgNpsVk8nEkx0ikQh96CSBPofDYdAJAja6M5KURLPZDJJECiwBIRFSPB6TgJNElF3Fo7z54ErJkL+zutz/9S+d75Ak0aQoCuw7dLj/grtfzsCSk+PkENg7toBTDYJgso6gjWTAUe+gx27++v/cffffr7jiCnUCXAo2RIYAQ4AhcMYgwAjCBLjURTk5c4LR4Mve4UAObbFwnO3qZTPQjRedxTmt5qRrirE3GJP3NnXx7X1DfEOHF3UM+BEnmnFcBRSTFRSNy1RViEQiiDRxogyDGAl5Hkwm03EfsVgMQgG/KRSJishVIMpZM7iKssLQ2TMne73hqPTs9vZsLLlGxhH2grtjEzgkk1bqWYmqnOo/6hC4mquuvXZDTU0NYTtsYwgwBBgCDIFTCAFGEE6hi/FRQyktLa3wDQ89Nugdmn+8fVw2M/6va5bi5bNK+eO9n9z7AAPC7f1+dOBYD9fYMYC7hoJy50AABn0hZdAfIvwAcRyHSZ0CQhCIekBUBIMsGIoC+Zkc1zs4KIQiMSlgyhajqVME1V3I0bLOSRsX84Oz7S2wg0x6QAyacHiL22X7/d4DdW9PAPjZEBkCDAGGwBmJACMIE+CyF2ZllQ6Hgn/yB0MrjzfceZPz1TvXng3F2Z5E4QGtxbLWK4G+po4E7edEFgMAxBWsHGruFtp6h9GRrgH1SPuA2twzqPpCMSxKJtUgB8kkIZk4GOEH//CwMBCUpX4+S4pmzhCwVS8ZrcZAaP8Q0kJHBh020wcQi7w6a+q0F557443uCQA9GyJDgCHAEDhjEWAEYQJc+pwUS6EvjO4Lx+KXjB0u6bZ45dLp6OY18zmzJHJjiUGCHFCCMEIUdPYwqjhzTFFwW68Pd/X78JHuQXl/U7da1z6AFMwhu92OCUkwiIKhLJBn47Usy1wgEOSbvKo4YK8wq65CXhpqRO7BPa/bUfDJSZV5H7711s5jEwByNkSGAEOAIXDGI8AIwgS4BWaU5+V3Dvh/Mzgc+OLY4WanONDtX1qMls0sJewgoRiMKAekaiL5fZKaoEkLSeSA3AYj5gbic4jFZTQYiMBwIIL3tvTF3tnbhNoGg8hmd2KHw4GTQw/JZIEYG2VZhsauIenYYMxkig28n+uEu6ZOnblnw4YNzIg4Ae43NkSGAEOAIUCnCQbDqY/Atddelrbl3R13N7d23jx2tNNKstHdX1uBCjPcxyEIWktlYgw0SAK55Fr0wXj+x/Mn3SIpXdCfFVXFsbgMLb0+9cVtdcqOhi5FFa1qeno6ELJg+BKSiQL53vb2drGtuen1guK8OzZt+qD11EeajZAhwBBgCDAEDAQYQZgA98L69etNt9566y09PT2/pK2e9Y30Nzi/ugzdc935vJF5oCkHOjFIvNa9B4ZqkAg3aAcybgKNFGj/076GPI9+jTAGFanq1tp2vHHXEaVlIKxanB7k8qQgm90OFosVWyyWhMGxvbWV7+lq2263mm/f/MGu2lFSxQTAng2RIcAQYAicqQgwgjABrjzJPLRbrTfE4rEHVTRCEBxWE77lkgXy2nOnm0haYoIc6K8JgUjOYNDCDLQIok4K9Mv/jwwhQRAIIaBKgk4UiLZASjaTnxHCEI7G0O7GbnVPYwfaebQfq5JVTUtLxx6PBxF1wW63Q2trCz/Y170prnJfqa2tDU4AyNkQGQIMAYbAGY8AIwin+C0wY0ZZpgjmyX19vasHh/x3RmJyIpUxzWWDH31tJV5YVUTNiUZvhURYwSAItO+BZlI0vAhJLGG0gpAUWqBqRYIcGCRBeyYVF+kzeZ++RnD/ix8qj7+9T4jLKqmjoOZmZ6qlhbm4IMOt7qtr5LyR4cLOzsDgKQ45Gx5DgCHAEGAIMA/CqX8PVOSn37h87tSb+od8qe/sPlLgDUQSqYyEINx7wwV4fmUBRxsf6aGFqKwqdotJIKxhJNxAeiYRlSHZoKg3bdJhMKIX1IFAuYFGECgJ0F7jQDiOvYEAJwkCpLtsnKYsaIRh464G9d6n3+WHQ1GOqBdTizLVa8+vVgWewy9ua3inp3P4ioaBgcCpjzobIUOAIcAQYAgwBeEUvwdmTi6+aXph+q8uXVAh7jrSjh/buE/o8gYoSdAUhPPw4uklHAkx8DyHn3+/Fr+24zBcuniafNGCKkmSBJ6oB0a4gWYvJDIYErEGDQU9epFMEBDCciSuqKSI0ju7G4TN+xrFoWCEF3ke3/rFc+TqSTkSQpgjBGH3kXZ810NvcAO+EJDiTTevmS9fMLcSvbOvidtztO/qsy449EJNDZB2kmxjCDAEGAIMgVMcAUYQTvELVF1RkZ7u4X93+ZKqy4qzU9Q3ttdLD7y6SwpGYpzbbkHfvepcefWCKjPPc3C4czD2zV8/Y+obDnIumwUvml4SX7t0NnbaTOapxbmq3SKJWnqjoRwkPRNvgU4SyCt/KKo+994+5eGXPzTJtAskIpkMXFaKA1XkZ/DtvUO4xxeGm9bMVy9dPE0g1Zl94Vj0mnueNHX0+/gFlQXyFedO53uHg5DisMg9EcuXO2XzCyzV8RS/4djwGAIMAYaAjgAjCKf4rVCdm2vLKHD9esXMkuuOdHjVivw06Z09R7hXdzVRL8LcyfnKz9atRilOu/jN3zwDu4508stmFKMP6tq5UFzmDFVgVnle7LffvlLJTbVbeFEQREFLfRyb6CrLCG092Kze8+irQlNnP28xi3jJtFJlxZzJ/KqFU8AsCQJGmu/gUEtP/Jd/fYtfs2g6rF4wRQxFldDaux+1dPX7hR9dd35066FWdVpZLohYtjYOxH7Zr9j+e/PmzdFTHHI2PIYAQ4AhwBBgHoRT/x5YuDDfmiml/29VnvubLqfD/+7+o8L8ygLxgRe38V1DQRJBwOsuXgCTCzLww6/vhHVrFsF51RV8vy+EHn1jO0RjMjlJ7sCxHugdCoLbZsZfvXChctXKasliEkcRxLii4mfe2YP+8soHXGVhNl6zZGZ0xZxya1RWOKIeAEYYYcxJooAFAOo/8AZCuLVnSJlalMV9UNvM/9efX+dzMzzBsmy3NT/dAytml/J1rb3w7v6Whw71hL/d1dUVPvVRZyNkCDAEGAIMAaYgnOL3wNKlSy051vgPp2RY7zyrskDuGw6iux/bJJUXZgZ31be5fKEId+PqBfjCeZXUhDi5IJMTRWpRwKFYHGQZYSIViIKIG9r7ES9w3PTSfOSym7XCSkkaArEhdg/4VYQRn5vm4kPRGNrT0A51rb14YMgvIKQii1mCSXkZKD/Dw03KSyO5ERzJYCAehEde36Hc/9KHwjlzpze3tnYUXrNiJiyfVSJ0DgbUh17d9eSBziM3d3UBIwin+D3HhscQYAgwBOjKksFwaiOwdu1aU6Y5cku5Q/354mnF/KHWvvjGvS2xDw8125bNmYQef2On6etrFuJbLj+bo1kMAgeDvojy7v4mONzWww/5I/Qim80mbmpxlnrpObOwJIrCu3ub1IqiLH5aSQ4JVSRCEbTOAWDw+sPKy+/vhwg2o7+9e9A0NDwMQ14vcFjFN31hsVJZlK26rGZ+zqQ8E8KIhhzu+tPL+PVdDdy9N148sKOu2ZrhtpkuXzJNsJpE5Tcv7Xqzrqft6traflYH4dS+5djoGAIMAYYARYARhFP8Rli/fr2w9dX1l+eKgb+smFNuf2rTfqWiOC+w53CLa8XsCvjaz57mSYjhm5dpBEHGIO863IY4s01qjrmgsa2b37hxI/T09MLtV61UqisK5JkVBeKb22r5AX8IX7tqoZDusY8mCBjDGzsOKyKPhYVz5+L9cjb33HN/h2efe44Lh0Lw1H//mzJ7Ui7X1jukFGalCBipokYQXsJv7DzCvf+7b6KHX98Zy01zSOW5abzTakIPbDy4saEnfGVDQwNLczzF7zk2PIYAQ4AhwAjCBLgHSBXFc+fPXDY91/HydefNNm86cAzxvABTinLiFpGz3vLb59UVZ00WvvXFc2iqI8fxKByPcc7UbO4ozsW//OMj3NtvbwKkqvi9//uOmuG28w67lXoK/vD8O+ri6RXyohllZlKrObkw0lAgjO0WEydIIvzw6a3o2Y0f8IMDA3B+dQX6wfUXctkpTpLaiElowUhz/MPft8Yff3OX+N5vvsG/sbtRKclJk3PdFvPGvU3q3o7gnVJq8P4NG2rjEwB2NkSGAEOAIXDGI8AUhAlwC8woL88vyrb/6ouLJl1enJ2GNx9sRfOmFEc9VtH16/XvoPQUN3f7Fcs4XiC1EHhaNRGDgHc09aLfP/suL8fj+OYvLoUL5pTxQqIkMwdv7qhTIjJSVy+eZiLlEow8R1JCWSuAREIHGKKyjAeGg4qqIi7NbRVJTqMWVtAKJCFV8yC88uGh8C/Xv2t+/Wc3Cs9vrVP3tg0rlTkOtblnqHXv0Z6rjzR37p8AcLMhMgQYAgwBhgALMUyceyAvPWX1klllP5mUm1bcG1K50hSTddX8Sv5vmw+gQX+Qu/Pq5ZzAi5xWFIkHShbIMy2gpPVpoB4Faiskzzw8/vq2eGl+trJ4WqnVqJ2UqJ6ol0+mJICQAb1aIiUExJRISAH5PamRQPZFCN7cUY9+/cx78MI91/HPb61VZcEUF9RYbOO+9l9Fedvvdu/e7Zs4iLORMgQYAgyBMxsBpiBMkOu/cuVKd2tT7dcuqi67OSfNXeS2mflzZ5Wbdta34e2HO+I3XbqYd9jM0ihSoJMD7XdJvRp0wvD9+5+BS5edpc6bWiqQG0Fr80xqHCT1WzAIgZ6pQHswUOVApc2aEgoCRvDWznp4+p39yv23Xi72DAfk3Q0dw6/sbPhLXEG/2n6ouXeCQM2GyRBgCDAEGAJMQZhY98C6deuk11985tLl1ZNvXlCRO29Geb4prihcfWs/ml6aI+RleGhZZRpGMMiB3qNB9yfoIQiauIC/85un4SsXLeLmTS3VowtG3wXqKwBAI+oAVQ2SSILmPdCUA1XVnt/e3QAD/kh81qR8eU9Dm/zWvmMP+jH32/37j3ROLKTZaBkCDAGGAEOAKQgT8B6YM72yOtNhuirDab527bKZaXlpbk6SRN5pt4wKKxjhBS20wFPiADpxIKWU/+tPz+OvX3qOMGdyMUfKLFMFgSoGmkJgVEw0QggGQVD19wySQNUEFUNn/xAc7R5UN9V27uzqHf5zIBx8ZXd9a/cEhJgNmSHAEGAInPEIMIIwQW+BCy5YmNrd2HLft9eee/XZ08s0g6JuUkyEGcb4EBIqgiDAkfYe/OcXP4h//bJzpcpiWgshoQgklAKiDIxVDQz/gRF6MEyKuifhxS0H4IU9rT+65xe/v3vZsmXKBIWXDZshwBBgCJzxCDCCMIFvgQsXTvvfSxdMvmPFWZWUHIwKLRhGxUSIQUhkOJA0yb0NrfDOnsPKV1YtFgqz02mK44gioIUPNBVBCzdQlcAgC3rWwqifdYLw/Lv74MXdLXdu23f4FxMYWjZ0hgBDgCFwxiPACMIEvgW+8bUvXTfZIf9h9cJplo9VEChZIARBNyoKAmw7eFT5sPYoXHvREjE3IyWRpTCiGGBSO0FXED49QXhhyz746/tHvru3/tjPJjC0bOgMAYYAQ+CMR4ARhAl8C3z9qkvOShUim69fNc8+liBQz4ERYkhKezQ8CM++sxs1dvSjm7+0XEh32zlMGjHQ2gdYL36EOKIeaArCaIPi8T0ImtLw0gcH4NF3Dn3v0JG2n0xgaNnQGQIMAYbAGY8AIwgT+BaYUZI7ed7UwkN3Xb1c5GiIQaB1DhLmRF4LKxhpjiS0YNRBeODv70KPNxT/zjXnCx6nRSDcIBKT4eDRdjTsD+EZ5QVCmtPKGYbFsSRhJIsBg0qUBp1IvLKtFh54Y/cPGpq775m4p4//AAAgAElEQVTA0LKhMwQYAgyBMx4BRhAm8C1QVZZfvnBK0a67rjrXxfG8ZlQ8TpEko0CS8R5wPDz26lZ4+q1d6rwpxVymx8GV5Gai5fOm8rvqj0G/N4AXTivjslIdXKIg0liPQrJZUfcfENLwxvY6fN8L2/7naOfAjyYwtGzoDAGGAEPgjEeAEYQJfAtUVFTkLZ+Wv/6WNfPOspgFk6EQJKc3jlRSJOSBS9RH6BoYhsOtPbQKokkSIcPjwFWl+aP6MRh1DoiKMCqbIbmSIjEwqqRokhaK2LirAf/qmS01LT3euycwtGzoDAGGAEPgjEfghAnCunXrbDt3br8qEAiVYVVF8Xg8Hg4H49FoXI7EYlGEECmvO1BdXfrh7t3HWKndcbzlcp3O9IWzS3+/bs2iL5bmpIrJvRgIWSCmRCPEMLbUMiELQB5ko2UUjYERMgB6PQS9aiKtrjjiQyD1EUb5EJIUhHf2NqIfP/n23V0D/h+O46myQzEEGAIMAYbASUbghAnCjBkzSjKCTY+dXWhfIoocYMxBTEUQVRCE4wh8URUOdUWgT0r/Snd395Mn+fxO66+rqspPnZyZ9pu1i6d/pbqykKNpjnqYIdmLQHov0AwG0HoyGA+NJCQxBEIMCFegfRj0hk2g92LQezIkew+SezEYasOWg83ofx5+/e6e4SAjCKf13cdOjiHAEDjdERgXglAQaX5seZlGEGIyhqhCHhpJII/9nWFoVVO/2tHd/cTpDujJPL/bbrvNGmw/+M25hZ57ls6eZKbllccQBEoOtNAC5klPZ9AJAmEGlCwYBIGWUtR6MQAQMQgUvRHTcCiMwqEYzs9w8RgwP9KPYaTcskEctte3qd/908s/6vOHGUE4mTcD+y6GAEOAITDOCIwPQYjqBEE4PkE40BmGFkj9akcHIwjjef0wxtzZ1VMvPW9G8V+vWj7TRMlAUstnw5wIwKHa5h6EgIecjBQlEI4KGHOYqAweuw25HdY4xwH2h2NmXzgmiSYLwryoypjnEHDcmx/ujxdYZPNFC6dIie6OpKGT0YeBFlDSCi1tq29V73rglbu9/jDzIIznxWbHYggwBBgCJxmBEyYIs2bNKs4JH318JVEQPoogdIWhQ8i8pqWl/emTfH6n/deV5GScvWbRlEe/snJ2sdtuI8kMQM2Kgt7eWQsp4Ld2NeBNdX3Rs+bNjfmjiiRJZmSzWrmSghxUVpATttmsqMcbcLT1em0mi5Wz252q1W5VO1taTPzAYW5GhshZzAKfIAiqUTxJ9ycgojio+P4Xt8Xf2Nd6SXN795unPfjsBBkCDAGGwGmMwAkThMrKyuIS1PmJBKGLz/jysdaOp05jLP8lpzZv3ry0VD5895eXTV83b0qRwJFNb8hEfQiUIGjeg8PdfnRoACv2nDKUm1cAqampvMfj4VJSUjiXy0UUAC4SiXCBgB93trfjpv3bYJJDhjRzXLCbTTTDQctm0NQCo7GTUQNh5+E29aHXdz176w9+ds0VV1yh/ksAYV/KEGAIMAQYAuOCwPgQBLXz8ZXlH60gHCQKApd6bXNb9+PjMmp2kAQCJMwwY3L5F86vLv3J2rOrJnkcFiFR94C2fR4xJRKSMByKY18cUENfBNkyiiGroBRsThfvcNixHAnHOo4eNoX7WrmyDAsvKWFIdZo5jDBHiIHWr8EgBzpZ0DtADvrDyoOv7+rc19LzxYOH23azS8QQYAgwBBgCExuBk0QQItAOade1tHc+MrHhOjVHv3TpUrG3+ci916+ed/2quZNSJYEICZpqQDs4JkgCSWkkmSa8StQCkvZA1AayH0lnIO+oisphrAIGXg2q/JBbUNKpcZESgeORA1pJET3x9j55S33PrfkVVX/ZsGFD/NREio2KIcAQYAgwBD4tAidMEKZMmVJUonQ8vqLcfvZHeRAOdUegFTtvaG3vf/jTDozt99kQWL9+vXDbN2748w+vX33JgqkFHlEQOC28oBVHoiRBz2CIYT4WUjm/nUdmE8eZgAcRAHjAEFcxhyMqxCKxGJ9i5ZwiMTAYdRGIMVEPM1A1AWNQFQV/WN8W++vmg38d8KMfHGhq6vhsI2d7MwQYAgwBhsCpiMDJIwjIcWNrx8BDpyIIE31MNTU1fO3mDba4O6dk63sfvPmDr57nOndGuc0iSSN1D0aFGsgZcySdUQ7LEI1ggSchBLMAil3AZoHDFkIKSFUEohokaiLotRG0yoqEHCCobe1Bj2866Ovxyw9xKPb73XXHCEFAEx1TNn6GAEOAIXCmI3DCBKGkpKRoitj/+Ipyx8cqCC2y4+tt3QMPnOmAj+f5n//V8+19B1umhv3Dc32+cJ47w1HJZaCLuQ7FdMOFC/DSWRWc02JOkARa94DWPyCRBqNIkl4rySimaBADWjFJr6poFE1KPGt+hI7BIbx+80E0BA4+LSdPbWpoeMY/NPTIJWu/8nZNTY0ynufKjsUQYAgwBBgCJxeBEyYIpaWlhZVC3xMfRxBquyPQLDtuause+NPJPb3T89v+3/9bZT5Q27+8sbHpixmVnmm8hOf0HR2SUsts4MyxwuJQDuIwh1PcTm7ZzApw2620aKJBEIzXmo4wetP5gaYeGASBlk7SQgqGmjAcCsP6zXtwYYYbezke9aRYxXA4Ar423+GWvS2vZdtTf765trbn9LwC7KwYAgwBhsDpj8C4EIQKoe+J8z5GQSAEoSnq+EZn38AfT39IP98zXLy4urD12NF7ncWOBZ5ZjjKzQwRfcxDUSAwypjtB2KviW85eQNMQDxzrxbwgoWWzJgkpDitJgNRJgkEWjLEatwGtoqj3ZdDVA50oaGqC9gjH4nD/S+/jhVMKcWGWhz/SNaC+GW7muCI7j6IcBHp8Sufmgc1p5tRHZ1e5X8qt2h2oqWFhh8/3zmBHZwgwBBgC44vAuBCET6MgNEStN/f0Dd0/vsM/c472b/+21LJre+PawYDvO4XnZlc5yuyiaBMh0heBwUNDkFJqAYtTgKktafii6sn0usqKCnubujAIkrrqrCmCzSzRuMKImvCP+P2DgkAJw4iaIKsK/PmNbXh6cTYuyUrhydv+cAy/3H4Et6WFeXOKle4fH46joQOhQOho9O8z5s3/6fTzL2+pue666JlzxdiZMgQYAgyBiY3AeBEE4kE456OyGOp6I3A4bL+5p2+QEYTPfr9wS5dWZXV1DPwXdsu35C/NBFO6ja7ysYLAWzcMkaEY5M33gO+wH24onqsWprqE5K/ZtP8Ydtodypp5UyRRoHP6iJJwnPEkDIoJP4KmLKiqCq/urAOTwOOq4ixO4LXbBwOoLzcexgfdAdGaaRs5IkIwVOsD/4FoZ1pK9nfmfOmCTfd5zYNQU8NMjJ/9PmCfYAgwBBgCJxWBk0YQjoTt3+zqG/zDST27Cf5lK1eudB89uu9cq0e6V8rHVVmz3MCZzACSBIAQRHqC0LvXB7lzU0Fy8TBwyA/fm7lEcUgmkrZIN1IHgXR5fH1XI3babcp5s8tFu8VsNHrWXAiJCIPW81njBdSlqLV+xhhkRYG9x7pQz6APzyrP5S0mkSNhDGN780AT3ps2zJnyrCOoE+VBlkH1KdD6Xj84uIwNOUUVNQ4wNVdVVcVqGFGY4HcoGz5DgCFwOiNwwgQhNze3YJbN/8SKSR+vIByN2r/Z3sMIwqe9mRYtmlY27Bv+d9kVvSt3tpszZ5gASI8FUSKzPoAiQ+emHjClmyG9ykkPO1jrh+/NWILtkoleV+JMFARBexCSsLsRWSRJXTq9VHDazPr6/x9HRAiBRhQS5kR8rHsI1bb3cjNKsrhUp40jaoKKtG6OZNu4vwnvTfdxUp5l5ICqCliOawbHOA+77j8KlfMK3h1sizyb5/Jsq1C9dbm7u6I1LC3y094WbD+GAEOAIXDSEBgfgmD3kyyGjwwx1PdG4Fjc9c3Wrj6mIHyKSzu1vGg2tsn/IRXAF3Pmp5FiBhop4Hgy61P1wN/kg4FDw1C8Ih04UbuM3voA3Fq5SM1w2EgpRUoMRJ0cGEThvQPNKK4oypKpRbzLOqI0jB1WgiRgDP2+cHT74XZxSkmWmJfuBqSqpDGTRhBUFUjS42t1jbA/xc+Zs8cQhHiMjpfIFAcebIfJX8wF77FQFIbxdtQjPzE13fEy7Gzp3wDAejd8inuD7cIQYAgwBE4WAuNDEBz+J1aUMYJwoheNFDz6618fnM854Puuqdbl7nKbhRMEjRyQ1bweGEAxBeoeOQZlqzPAkiIlvjY+KMO50QK0sKKINwiBRhCIisCDIIigIgx7GjtQ9+CwPKc0R8hPd4mkd4O2acoBfYUxrco8FIpG39zVKCyaUSblpbs15UAnB4qiUJIQjsXRy8caoTE1zJvTzSPHkhXAiqwTBIBDD3XAtHWFgDEHkf4Y+OqDnahDXZ+HTb92H+3qYiThRO8g9nmGAEOAITB+CJwwQcjJySmc7fQ/vqLM+fEKQtR+S2vP4P+N39BPryPV1AC/YUPRueDGv/LMtk+151pNpGUznbPJVdJX4URB6NrWB3wcQ9ZZ9hEQaAojD5YPEL7lvPmEFHCUHJCHKFKSINJnHhSEoWcogF7bdhC77Zbg3Em5TofNDBZJxDzH4Whc5vr9Efnl7fWSVZLg6pVz+VSXjaOqAX0o9Nn4ubnbq74eaMX+AhA5SScbJExBqjCqCgB5YAy1D3VA1Q15GtHBGJSICkP1oVC0UX3uyrjtW9DS4mfhhtPrvmZnwxBgCExcBMaFIMxxBp5YXuY8WxQAYjKGqEIeKPE4TLIYQpZvdfUP3zdxofp8R15ZmbcQ29Fb2eek2SxZxio8sZwnKQR0YpV9KjS92g1TrsgFLMc09kDKKPM8YJ4H795h+FblAqUg3S0mQgwk1KCTBON3vCDQaoqRuKxu2nVYeP9AE3T1D4OqqFCWlwGXLatWppXmCLT0IqINmZJIgZIgB7Ii4/ePtqpvRttER7lTC4GMyBB03NSHgBDU/bkTphKCkLxhgL49PhypRU9cJfXdUtMEAZ0Wfb6As6MzBBgCDAGGwMciMC4EodoZeGLZxxCEhr4IHPCLt/YPBn/HrsdoBNauXWitre1dFJN8G4vPz+XEVFHzGoyaRMlqHAFSMLS+3QsZFR5wFJm0iZc0YhK1pAWsqACKAp5dIrpx5XzOYjLpKoKYUA8oUaCEQTMuEnWBZDoQQyN5GOmMxHw4ohIgoOGEhGqg0J8VhKC9fwg9c6wehSZxImcmY08aOFERPokg6Lu3vzUA7pDr3qnFuT99+MWtwVHxDnbTMAQYAgwBhsBJR+CECYLH4ylakqk8/nEE4UhfBPYMcd/2Dkd+e9LP8BT+wrPPnpLj98euDgjeX5atygXOxAH1HAhkotVkeKoc0Nkfw9DhAIS8MmRXp4AoIcCKomU2SNr+WEWUIMRao3CRvRItmlzESxIhBKJmVjRMiyIhDLqBUQ87kBAEIQi0QyP1GIyEEBRFPS5BCESi6kuHD+N95l7RluccITZk3DQsgjUPgh5iqP9LF0y5nigI5E3d72AkXGKAY8/39WTZcq49L4jframtZS2jT+F7lw2NIcAQOP0RGA+CULwkU3ns4whCY38Edvbi24ZDsd+c/pB+ujOsqsovx4Bu5bPU63IWpdip34BMnYQcEEWATJzGBItUUKMI2t8fBJXjwJ5KOjRzYJIATB4JRI8IvCQBLwnAkwxHBYG1HuMrK6bjktx0XtQJguFBoM86QTBCD4RAkJCDQRCUJJ8BIQgqUQySFIRQJKa8tPcQ3o46JFuJBYB83kjBJEQFa+mPCZMix0P9Xzo1gmD4KsgONDuDVHfkIdIZU3q3Dr8yIyXrtqr3DrQyP8Knu5fYXgwBhgBD4PNA4IQJgsViKT6viH98Wal7CVn8Hs+D0NQfhQ+7ldv9EfnXn8dJTLBjclXlhVMUW/S7jhLx0pQpdidPjX1an4REyIDXiyEqccCyAkhGEOqLQSSoAoe1kIAkciDZecCYh9iAAr7eMBSelwWCxAPyRqHM60JrpkzjMzwuLcSQUBA09YCqCkRNIOoBCVXo63qiHozyHCgqyIZBUVGgZ9iPXth7AB0294vmfNMI/JQkiIBVlU74VNVAqmaw5Hmof6hdIwjkZyNlMxEi4UGNKTC0x9eHjsRqrlN7Hv5WExAVYSS1YoJdaDZchgBDgCEwkREYD4JQcl6R+NiyUudHEoRjAzHY0iHfHoqd8QSBmzatZLpqif3SVSkucuZbbDxpj5C8kdU0URFItUQyiRKCQEIJVLZPqodAVuhkoqUllzkINEegv2EYii/MBtEqAorJgHplWGIuRSsrJ3E2M8mY1ElBElGgPgRdPTCkf0NFID4EzXuADFMiPnSsE73WXs93OfycRPwSY8Y+iuSQqR2pgPVxHn6sAyq/kqOfByETgnaOhFmSDWEItPhR35ahphRs+cmUALxU2tnpqwFgraMn8l8ZNnaGAENgQiJwUghC82AMNrdHvxOJoV9NSJTGadBTppROUsTgO1kLXNnWbNK5YszimEzURHInBIFMmoQUyDJgjIAjZYuN0sZ6pcPEsDAHrZsGwFNuA3eJQyvHjFXAcRmUhhhcVTQLzyor5CQj7VEnCDytjaCFFuhDPyBt60xMitSoqJkVSanlDxta0Ku9h7lIlsxxJsJMAIIdMRg6FATnJCuYPCIIkgCi3QyCRWsKRQsuER8FxtCwoRcmr82i5IeGI2ioQcvCoBspuhSTIdYZxV07vGEuIL4/Ldt2m7untfmRFmCNnsbpPmSHYQgwBBgCnwaB8SAIpecXiY8tLXMuJn2AjhdiaB2MwVst0TtiCvrlpxnU6bbP0qVLxYGB7qn+SPfeslVZvCnDpE32Sb0MyEqaI6YCElqg8rzeDwFp5Y5JTJ/K9fpkm4zRcHMIIgMyZFQ5QXRZgDPpsj/JIIjHQazD+MY586EwI40zFANCDGjmgsAnwgs0JJDU1hkRcoAQRONxvLX+GPp7/2FemmzhsEqMhyoteDR8JAIqksGTaYPAkTAM94QgEIxALIzBjHmwuy3gLreBKVuEvr0+KL84C0CUtDEmdYTQCAICkGM0REG2UFsEurb6lRLesniOr6f2F70QOt3uDXY+DAGGAEPgVEVgXAjCBcXiY+eWfjRBaPPGYePRyB0xdOYRhKVLZ3kGA/6L/DHvA5NWZ9sFm6DpBlR2T3Lyk5U8UQ5o1UR9o8WGtDACIQx0Na73NqBeBUEAOaRC394hsGebwF1sA04yaSZH+llSg0AGNahCZrtdXbd4Ae+yWSlJoKmN+iNZPSDfTNs0kf4JCEEwGsWbG48pL3XVSY4qhzZ5E48BYYOiBKGeGHgPDkH+OSn0+xLZF2TyJyoITXNEEOmIA7EtOorNdHx0nMnnqisIOFGaWRcVAghaNg4G0iPCVTNTpM0P7O6KMF/CqfrnhI2LIcAQOJ0QOGGCYDabyy4skR79OILQ4Y3Dy0cjdyKEfnE6gfdJ5zJ7dkFuHMENqiv2rbwlqemCmafmPRIySFRGpKtojShwIln5a4qB1gtBJwh0H8IQRlQHagYEAYYagxAbjkHWDBdwgmYG1OR7coyR74kOyDAjmIWvmjsLW0wST0gCIQbUnDh2JU8JAsKdAz78TkczbAm28M4ii/b9hoIhiNSQGB1SYPDQMGROt4No1Y2WZOw64aH+CUIckjeamilpRCZ5I+EUgwDpYyL7xb0q9GwerHeHhRtnnJuz44EHdsufhD17nyHAEGAIMARODIFxIQirSqTHzil1LvqoEEPnUBxeOhK6EwGcMQShrCy3QHDg22z5wrWpU21pokWfPA2jIQ0djLRLNtL9jhdCGLnESfUDeB5UVYLO9/pAtAmQPTcFBEIQyMYLgMn36NUXjX4OofYILJcL0IWzJ/PEj0D8DiTMMJYgkJE1tPeqb3c1c0fsQ4IlXaT1FRI1GSib4aiCoMYweOt9YHHz4MxPatT0cQSBvEcVBBJOSVJLZJKxoc/9iYwOidZ3CDSHo/494fVTJ0+qqapa3spaRZ/YP3z2aYYAQ4Ah8EkIfCRBWLt2rTDQ1VDucntWBod8c0xWizcewy9mFWUceuqpV4aMA5vN5vLVJdKjZ5c6FxHF+HgehC5fHF48fOYQhAWzKouHOP+PnZXW1e5Sq1sQ9VQ/2i/BePBURUgY+Qig1GtwvKw+nRjoNQOMiZ8oCOHeCIS6YhDqi0PGdBc4ihxasSU9xEBlfvI5/bhCmworxAK0cHIRT/wHVJswFAqaSIBgf0sPesfbDIPpMs9ZiWqgZ1GMGRvxERAfgvfgMCBFhfRpjpH7jU7+WufJUUSIEhgtPKGFVAyDIin8FNeIiLEl1BBEiYivLtobbxe/d9n//vGxmmXLWGbDJ/3rZu8zBBgCDIETQOC4BOHLl1+ev2vP1ledJkG66dJz/HkpFruMef8r2w47X9iyz1JcUvRsRr7t7pde2h02m82TLi6RHlnyMQSh2xeH5w+HvgsAPzuBsU6Ij1689uLCg3u2vpt3bkauvchm4nky8cmj/QZk1U7j78QUqFU//NhNJxV0QiWRBirbj6gPSOFAiWLo2jYI0SEVytfmg2QlraH1SZocnJoiSWVDDpzNgFdnleGK/HTeyGCg/AQw3tPUiV71HuNRqcRhjqgGSWNPHiRRAYjRUMUw3DQMsl+BtEp7ovW0Rkq0o9KNpmmS3xkqBzFlmvVsDWJQlAHHSG+JMRvBiqgNHA++lhCOH+MenXPW3B889LMnOwl8E+KmYINkCDAEGAITEIGxBIG79Pyzv1BbW/t/D97+pUG7WZg+9pxIE777Xtze++qOBmXeWXPu2Pbhnsblhdz9Z5c4F36UgtDjj8Nz9aHvAcBPJiBGn2rI1euqJdPB8LePHDn289k3VdA0PzKp0W6GRrGg5JWxIbGT7ARCID6OJIw19SkyTWEcKVfMa82aAAOKIjjwaCu48+xQeGEOiDZSTyEpI0JVIB5AUNBnw5dNmgypDpt+D2C8v60v/mTTAbNnQYo2p0cjo1f/Rvln4j8wk4ZSpGqjApHeEAwfDYCnzAaWFD2DQjcpciTckUh1NIyZnJbqSGs9kFAIApoZYYQXxnIEgpUkgexXwbsrsBMNmr91+SVX7mBhhk91a7KdGAIMAYbAP4XAKIJw6QXL50V9Pffdesncmeku25iWgiPHRxjj7Q1dkfue2WJSBCE43Y3My4rN1o8iCL1+GZ6vD9bMBrh3t36YagBYU1OjTvQ/8uvWVUtvvdVWbHGZ/5dPw6vzlqaKNI5urN4Ned6ALym2njDpIUTTEamUP3Yjhj6zRQ9NJL2ZHK8nE7aeEWCoC8GOCHTt9EFKRQq4SmxgcuitEjCm0j7xI1THM+SVk8pIIQTY192LX+ioF9LmplG1QeuhkGQuNLISSHtHMrEbCgGptyCr0LNjEGwZIrgKrCODJMRGkDSygZQRAkCOZTInmkwZoRUci45O/UwQKgE4i4ZB3weDWGlQvlo5Y+FfN2zYMMb9+E/9G2AfYggwBBgCDIHjIJAgCDU1NZY3X3i65t+WVd04qzTLTZLUPg4xDjhU394vv7CjKdjf2WZZli/YU2zCcT0IfQEZ3mqJv7SkuvLF8oLsSJrHEWvp6LXvr2+LW9zubudwdNtrTU3H0ZdP7WtWXV3qVmL4gogpdHvKFPt8V7lNU72NFftYT0FiVa2nM1JPgX6OiqKFDsaSBGO1npxpQDIUiNvfqLBIYvW6DK+1VtYKE2GVg4HDQYj2xcGcIYE9TQJbtpk2dyIkIVgXgllyGlLMgA9Ig4Kr3KERG5IeOSbdkK70jYqLRs8FMnRKJhTo3TEIJjtPizVxyS2fdR8BjQUkp2iSYxg9J4zLTI5F9qGZEpRWaO+QMAMJR/A8DB4YAqmL/89yS/l9j7/5JquLcGr/E2GjYwgwBCYwAgmCcMHSheW5VvXna+aVrynIcI/JPxs5w0TVPb3BTpc3IL/wQS1qqm+QFuSLvMciQVTBEFVQ4tEfkEHx5KOVC6bJBVnpPo/LFu7qHUw90tptszmcdRu31/9tMKS8dfHaa3ZNFEVh/or5WQMdx77nyDdd5ig3F9iz9VU+kBW6ANjIUkgy9mmmPNKtUetTMGoj+1GSII9aRdPPkP3J5wyTIvkg2ZeQCdLimZgNyYRLvpdM7Ea4QvcuqCEVeut8IMo8xEGFlBIH2HJtEO6MwmB9ADKmu8FWSLox6iOiikZstIKgT9Q0bMJLgDAH8cE4+NuCEI/FQfbFwZVmgdRpDhhVPpooIJRQcEkpjBoxMsY8CgfilSC1EwhJ0IkOfd9koioJCWXIDfHnsi3F/1n2hSta07xeeaLcMxP47wQbOkOAIXAGIpCYpSblZcy64Kzy3108v2JJmsuIS38UMUjKn+d4CEbj6rba1thTL75tnZdr4nJc5gQ5iMgIDvdEoLCySv73S5b4MlyWNK0Ib2J9GNrV0AG1bQO7Nu5p/CO2eJ7dvfuUznPnlqyYubqp/thNRUszLrLnSZzk0OP8nJ62Z8jv1EhIHkmZC2SyT94ogdCzFIxJ35D2jZRI8j5VCfSYvaFM0MqKpPGRXq6Y9mVIIhhkcqZjQdQHoAQRDLUEaV2BSEAGT74N3KUOMKWYAJM52wiLEPUhFgUc15pEqTKCcHschjsjIKsIzFYJ3FlOMGeLEBmIAOn2KIhal0mzh5AB/QT1VEhKckiIgRAPvT8D3YOMjxgdRxWHIoZFnfwkVY2kngdeBH9LAPq2env9fdG9RQW5BwoU9MuZky3DNRtYe+gz8O8XO2WGAEPgc0QgQRAWz5xaNb3Y9dvVZ5Utz05xjVreGsV0kgvrkII/CQc8rePPqUfa+0J3P/iMfVa6KGS7JAjEVHjvWAjScvIGvv+1C51ZaW7OLPKJ9n+GBR0hDP5QNLZxT2P3G3ua1nOc49ebd+7s+RzP+5869NKlxZaeHo4D9vQAACAASURBVPW/sS3+5cwlKYXWDAvQNs2GeU/vWphQBxK9E4yeA0khBcqQjDLKNINACy8YYQNjxU7rFejRHj2LQVtZ67zCWHGT/cdWZ5RMWiohNUmScD0HSFYg1BKBSF8cUqbZQbSLtGYCkskIBIj7EQwd9MFQpx9UUMHpMENaiQOsBWZQyD6Eiwg8SGYRRKtxBY+TTGCQG5LOSIyKJIXRmPCT0yWNbAi9+yPJtABiwkzO/KAKAvEsSBBsDUGwJQTWQjOIfhRueL1r78xJxb+6qDjltds2bIuSJI9/6uKyDzEEGAIMAYbAKAQSRIDUPQi0HPjpNcum3z6lMIOuAZPDCRpJ0NzyRnGdxPu0VTAtuIP3He0Off++J+1nF1u4bW1RKK+Y1HX39aszXQ4LDVsk6uIYw9BjzXSFqyCob+/3PvTazo5Bf/iibfuPdJ4q1+uq675Q8O6r7/42s9q5JuOsFJFURaQTfFInQjoJ6659WltAKzKgncI/hBQ0goBlzXpB8Eu0RjZO2kjxI99B1AVaZZEyCy0uL5DWynoBo+S+DmQXkiVADIL0e4kfgagNCs1ykAcUwBYVQi0x6N8fhGF/hGZdZGS7IHNOBlgKSGEkmY6HTO68SMIEGhFKhE6SDYzHu0iGqdEomESMmzRL4SPmb0IkSCiCpDsaBMLoV0FxICEUEcIdYYgPKeAsloAXMMR8Mu5+199sl5011628eP237rtvwnlZTpV7nI2DIcAQYAgkIzBKKSjMyVhy1TlTf3fhWWWzXDYLl1AMKCkwFAP9mee03/FaJb64jKJxhAc5ULMffX0H/PmlD7nVi6p8//Hl8+ypLptJ+6KxWZV0ytOqC+uTH3mOKdj7nd8/Zw5EYd6WvbX1/8ra+9XV1ZKqDi72hfw/S5vnmZdW5dGK+9AJFGkTu06mEjUNyARHsw/0RJDkMELSBE+lf5K9YEymuhqQIBR6iIBgQks0G2SA7EBX3qRyob7iNlbnRnEho4wxVSmAhgxCTSHY/3I3ONNEyMhzQuosF5gyzPTYVOY3CipRiV8zOlIiwhvdJfXshrFdJQ3yY5wnDaMYxZ10DwK5wsnGR4NYJad3EhKgH5umbZLwCfnZ8Cvo40SEuCRlh0SHZPDujhyycll3rv7RL99iRZTYHzmGAEOAIXDiCPxDoaTy0oJvXLt02l1LpxcUOa1mvVb/GOUgoSJoZEFGCNd1+B465LV9v8Lle3HQ661u6hgIXnPeXEtuOmkvSPWF4/EDega0gyAt06NPZrTdMPh/+Ohr0aPdw5dv2dfwwb+CJKxatcrc0LD9Gnu25YfOyaYCRynpd6DL/WRFT4r+JBoqjVkZ0/i70TRJ9wkk91OgzZbEEdWATPjk9OnK3HDvE/Ohbk7kRU12N1bhtJ+BEb83mjrpnzMqFBrxfpKVoKrQu90LvImHjBlODXdKbjT1h0zpCl2pC0AqKtBQh9F8Se+7QD+jyBrNI0qJnnFBV/7EX6AqWuoiJRqkiiJRPXQzIvmueDRRMInuZ2RjjK0eaVR2pOSTmCI1rEYpMiQUQXwN9L7iwXtoGCJH4Bcl1Qt+9tIDTw+c+D8NdgSGAEOAIXBmIzCKINTU1PC1tbtyDu3a++R5swqWXLJompDpcY6EFZKIAU/+eOt/wJt7h+uO9fouu/HeRxtXrVhyb6Edr/vaRfNNRdlpDq1ToEEO6KvElqwaaD2KNJJgPMJROfzHV7bVbdrXcP3Bwx0HT+alWrNmXsmOD+uvzpxu/1HaVDtvStXkejoZEqndWM0ftzTycUY6apWtv5/8OzIBknNXVKpMkDg/BYtMziTFjwTXCTkwYvNkLGarluGgtV8cTcB08qKlTmpqQO9OH+3bkEa6MmIMagxBlsBBmhnAInLgiyPolgHCoggkopCcZkg7MOpjNJQFSgrIap6QJlolkSgnuhJBPk5Nl6pGcsj7RtMmchydLP1DOmUydIQ0ESJBycFxin7qCgc5f9knw+DuwF4u5L5+39a9+4EjdIttDAGGAEOAIfDPIpD4q/v/Vq0yb22pv3Th1OJVRanWLyCEnFaLOT4pP81SmJXGkXACJQVGB0DaKpiDAX8kVt8xcOc7bS0PNhzqvyzTbv3pHVeek1qWl55EDpKIQWJS1CYgTXEfrSCQNsNau2EMLb1e/6Ov7fhby1Dkx5s+2Nv6z57op/0cqSM0q6pwcVgO3WqbYvpS5hQncCRAkih3rFcGNOLjn/bAH7sfqTFAJlgeAq0RCLQFwGQVwVNpA9FF6haQUEVS7QNyLBLesVg1UmBI/tTMSMyOhGTo/R+SjIs924fB5JQgdaodVAWBR1ZhabEdygvSwGqxwLA/CLuODcAenwIKmdS12ImWCUEkf4OIGA5JSkK03gpa7QMdJ0PBIOOghkME8WEEfYd8kLcgFQSbPunTsMOYAlGG4ZOcIyEl5LsTXorjRKkMXDFA3zZfEIacF+99b897jCCMy43JDsIQYAicwQhQgrBu3TpbV8PeL8/Md965eFpRXpbHbhUFiesZCshNXV6Ul+aSJhdl8QmSIGhGRVLav659aOP7B9q+NWRyFGx+880/P/yf16aU52c4yR92zaOnKQiJjoE6JVFUrArE+YgRp4UXNLowoiCQ1SmGWFzBr++s8z786vbv7q5vfejzvFZLly4V+3uarsBO5Q5XpWm6q9g6Ug/CqApIfANGwZ/xGgyNrXMQ9WIIdkTBmm0GARAMH/ZDPKxA7pI0EB16uEJXCujESWV6XVkgeJOUQUIRjFg/keGTTIHd24fB4pQgZaod4hEFZjt5OHdqFpSVFILH44be3n6ob2yFTR1+6CDWCCNNkhZP0kIICTKSPJFTgqDXdtBTG0kTJ9kvg/fQEMT6Y5BW5QTfMT84cm3gmmTVWlsnH9coEGWkPBq9GygZ0os0JUInIwWUEvwgjqDplS7kEXJuWnzzHX+77ytf8Y/X5WHHYQgwBBgCZyICHMaYW3POvOUV2Zb1X1pS5bKYRFGgFfO0rAV/NK7uPNyBCjLdwvSSHJ4nk4agGRS9oVjXnuaBu47Kjvef+vNfnn/q7htzy/PSM4i70chwoNkP+spSEw84GPSHsUXiVZvFTJapZAxULUiQA9DIgfZ7BHUtXeivm/Y8X9cxfMeH+w63fB4XivoNDu243pzD/yRzrstlThFHZA8ygZPqg4YPgBrrxlHBpqtzEXxHI8DbeHCXOqmbXw0roIZj4D0UgvCwDLkL0sGcadFW66TEMSmSZIyDEgSzNpHTpkf/2BmSEASrSwLPFDvEQwrMTRFg6bQcKC8rgdTUFOjq6oH6I82wqW0YmuN6aIhcPRJWMXpGjM2WMC4GzVaQAMURhHtlaHmrG1LKSFaEh5RQBEHiQO6LQ/Ao9kUjYWfqQhdvdpuo94GEVJJbU9NMieTx66ELjVRwmheDKhuk6BRRTTgItIcgcCwIw0eCvhlLVnypYtbirb++/fbI53GvsGMyBBgCDIEzAQFu8uR056y8/Kdu/cLCZRaTYNdCCKIeTiBhBB4UDPG/b9mPZ5XnSxVFWbxJEiEmq9DUPfzsM7sG7tq+8/3f3nHl8hUXL6qyELsbURcoMdBDEiMmRW3O7egfjtqtFsFjN0sJH4JezIeGFxAGlEQSVBWpj7yx0/fsln1f3Vff+tr4zs4AS5ZMT/GHQ/dEzYGbi5alA0d0A6ProHEXGLF1RColkgmdWPwMU6HuATBW0cYkSmsAkL1I+IBM6PoKPHn1ra+QY36AwT0ByL0wK1GqmHoOiFpB1JoIgu6dw6D4MWQtSQOTkyCt6qtr3cRHKikaRkbjO/SJlIy364NBsLlN4Jlio8WP8gDB8kluKCnMBpvVAj5fAA4d7YatvVHwG/0fqNRPCIJRn0Bv/azjQmAixZSUMOkmOQxRnwwVlxaCmKorHqRnhBHmwAAd68MbMlPMv2rpGf6jkAsVBWenW0wOE0cNh8RGQc4hWakg35MwKVL7JACpqUCOSVQdvexzoMEPnIDAnm2Dw091oAurzipZaU3pvIL1azgT/o6xc2QIMAQ+BwS429YuTM3wpNSdP6s4i0zqRCEwah4Qj4H2O1pmL/ro69uFSYVZODvFKWWmutR+XzT0xxffs5TnpkW+celSp8NmFrQwhCY5j9RJ0MMMPE9DBkfaetScdDef5nbwJBOAKgcJBQFR1UBTFBAg+h6C+pZu9eUdjc92BuTbN7y86YTrI6xdW2Xq77el9vcPFoAk/5jLwuflLctK1Bmgq/Dkvgi6s56QAyArWd2TYGQxaBUMSR2EkfoIWn8EPaZCHfukdbKe+TCmjkDvNh84y1xgL7Ql1VYgK2ttQqaTLJXaJejZMgCRnghkzdX8EZYUM3AmIsZo/gO60UJFZFVPYvhasaTO9/vBnmIBT5WL7hr3x2C6A8OkdAvYzQIMBWNwsCcCbaoAJgeprkiuo7FK170ixFdASysrIMcQoLAKA4eC4Cp1Qup0D9AyWMR3YIxjjOLQ+pS362qPNAnWrIs+9dcHv6pa4nekz3NVunLMIk0YJfglpVhqPgR9DOSciPGR9ptAGnGgWROEGI30sfA1hqD77cCj10/Nu6Vmc23wc/h3ww7JEGAIMAROewS4jT9d51YAbcl0maePEIORSd6Y8ClZEIiawPlv+91zrfOmFLZnp3nOjcRkfO7sSVJehsdsGBi1+ggjJEEzN2qEobG9FwfD0disikJilBcNAmA8U1JAFARqVCQEQSMMhEC8u69J3Xyw5RchX/x+edMHHRuALKE/20YKQjU17Z0cCIWXChJ3Dm/lznNVWVM9U1yjD0S+M0rS8kip5JGNFuwhEz914SfF+MnEiZFWnAjrwzqe+55kKRhVBfVaAeHeKPgaZMg9P3OEHJCvNCotEvKhr6Tp9+p+gOFDAQgPx8GeYQXewoEtQwLBotc5NhocGfUQAKBzSw84Uu3gnurUyy8DyFEVzDEFPBIHA1EFkFkAMblqBZmw9RLPakSFUHcEeIQg0hWBSEyFnJmpIKWM9IlI9IcwMhbGXJ62VwcGr5u5uOSuh18MkLeqq4vn9/t8d2ctdp7vKbLSVM/ERhUCU1KmhkaYaGhlVEbEmDRPADjy1x5fCbKtSD/ave+fuU8+213F9mYIMAQYAqcfAtwfvrE6xeGyHagqysw31AJaPS85W0FXBQhB8Iej+LUDvZc88/a2oxYOPXzdqnkz1yyeaeJ4jqoHtNIiTYHUPAzaMYkSIVB5eGddsxyNK/jc2RUmTTnQFYOk1/R3BjHQfQhUVcAYbzt0DG3cd/j5+sNdfymVou9aF3wh/sCfHlD0ekUfe4XOv2xRZkdj95WKJfYFe4HlbEWRTYHWMEy+uvi4NRq09sO6jG9M1iRsQMyARv0DulqnkfSE7K29R9QEsrodk55H3pNlugomRj6XkN63/8W6zIIV2bQnwqiGTAZJIKtjklqZUAhGlAKsYAh0RkGNIJCDCq16mDbdrnVsJJ6EpN4PHe/1gCvdDi5CEAxFIjl90AgFkEmYZmnohZJMpL+CAOGuCPgaAuDMMYOtyAy8pKdmklRHIvUTFMjq3qj3MDYFlOeh6wOvb87/Z+87wOuorq3Xmdt0r3TvVe+2ZNmWe8OFamKDMRgXqk0oKSQEEkp4IXlJyMtLnJeQwktCAo8WSoDnR7EBg02vBmyDwQUb9yoXWb3dXmbm/N8+c+bqSkhuKP4Nnvk+W7bulDN7Rjrr7L32WiVnnf3EE89R26qAA+NGDBjTjtDjxWdljfEWSiVu0VIqNRVSMsyGcJLo0DAzFMRBSH8W8g0I7knG2z+J//cVV57x2/nzF9GgrM2KgBUBKwJWBI4iAmzu+SNyK3x5u66cOirbLA2IMkMvAOHj7QfD23i//FdefHrc+AFFj918yeR+/ixPhs2mMLtkvZv8g07AYGQPAuEYHn/lA7VfYR4unTrBbpIQjayB5B6Ir2mgQX5mAATj+9v21/O1u/fvePLtjz8cMLXy6WFjLvuwrN/o2A8vvPBzMruzr5/t6Zfdr+L1Z5/7VTAezhs0pf8ElstzMovcIgu/7806ZJS6UTiKyHRpksgaqRzGDDKcOTmTciKlu02FRJE+p0yCMWYBBSShz0iB08paZhro/1JkiSeSCO4Mch6yvVc9eOS9y55c9r+VlxRlZBS6DK0BYyCdx0pSnpi0TeXBbpMvJToijVTvV4RXgd3nQMHEAnkOMXXjwAf18BV44RuW9flXJOU+SQkQma43ryFr/fHmhAAJWf0dwsMhNU4h+0wNKWnjM0EC7WRyCKgtdnVH2LbbdeOFG7YvmG84WYltxIiqiVGlbWXJpGx7ZhkBG9JdSBNjMuMiM0udZQijAyTlQyFLP3pc0Xc92fjmrx5fePG1U6fGjuJnwtrVioAVASsCVgRoFpo9frynqNzz99mnVHy3f1EOM1b9xEMwygJmVsEsMSzf1bb8ocXvqa2tTWVXTT+t5IJJQ9xt4eTtKz6rOfPSySNmleT5bSkeQ0qO2QAIew428Rc/WI3qylI2akA/9CvMlZ0LknNgggOZNTA5CCStK4iLKeCgIxSNYWttQ/LZ5euadmkde4pHlt9Zfdply/1VZ8fmT5gQnTt/rmPlg2/9OBgIf6Pf8JKMgin+Sh06y/A5wRw0oRiCRFokiZ1L6jBgajGcBZL0RitW8gQgHoLo6KDVu6QTULqdJn5a+0p/A6GoKBIJkp9A/6dVuJiXTVclLtLlakRD46pmLVoXv7+0LP+vSqJk/55tqwc7CjJX5Y/zeH0DM2XLoAQXQm6YshgkPZz8vAVz+mssPQta1wWRVDiKJuRLESWD97B/eSP8BVnwDc2U+gUmP0KSMk0FQyEBHe/a0igma6BtRwhZpRlwZpHwURoPQIg8pREYU9bUBB5sRksmY4jXRqM7ntz34zPOmfGPRd0IhIOHl290DdBGlE7KM1QiaTxmtkDEnOJsZJ2YENQiDYi0DI/gXRhZLDWmYe+ipo9/+Ou/nfdDq+XR+mVnRcCKgBWBo46AmCHOGD9o4Lmjqv4xc8LAqRkOJ0tlErplEfY0tPC/P7ci9ucbL27atKe2nOaHovy8Dev3NF3X5n18HTBFadySsfIHsyedUpafozCFuh0NcEC/yzfs3sd3HmjEtIkj2FurN+HcU0YgO9OdAgmU0jYzBemdDOnAIJVpoGyCpkPTdOwLtePvT76t72nu0EZPH3Fd4oDy8ro1n85SGB6wFysZZVNy4fR7OgmEomWv0+QoGdaw6+UGDJlbKsoHYuVKAj40+QgTIXvnxJySEpYlBco0EKeANgITYmJTujgSiqyDw4FkOIldC2tbcr3Z/7VuXc096d0YxTnu/3F47TcVTvAjb7Tf0BySq2/DLZLmx7TUuvze57ot7HbUvN6EypnlhtOkKV+diOPABw3wF3vhHUQeDsbELUAMkSeFuZMsiRBQo+91J2kyBY0rO+Af6kVGAUk/0+RsyC6LzRRnMsctiaqCJCk6LDh2PbsvpDfwH+ypa1mQ/rb+aP4NFyx8/KlXhlxcxhz5lEEwzynBFmU4pLaGQfyUUs5CetrYUoJO1PURV1H/Qfva715yy6wf/eg/6o76J8M6wIqAFQErAid5BFIF8vGjh51y0YQBv5swuOjswuwsj8vhYGYnQiKp6e+t362NqCqrryrNKdV0blu5cTcfUFbEYwntvTfW7Lz5L//36mYzllfPPnfi5BH97pw6buCo7Ex3jtPhUKKJJJ54daV26dQJKMrx2gKxCJ54aTkumzIR2VkeOGXrYIqsCC5LCmmERbMMQRO81jWjILIBuo497YGDj7/wYcHOfY2KPdPBg1pCKZ2Zo7h8hnqfIcVAroTmypw8AlS0fBaAxoDCkT4wu+xEkBOdsCuW3QfGatgpU9py9UogQZLmBJggkECkRZq8FCYkjeMNqrbhqT3rTp8x6bbXn13xQff3bsqc0bc26Q1/c9Ag7Ax5w72wkQEmAQUpTSyuQeOQBkqcWgPTzY5oro8xNKwLoN+0EpnlkF0QyST2r2hCdlEWvAOliVT3QQh7aEONkSclgErXe2AMrVsjyCzNQkZhhiH7LCZr4kTopi6mwV0wj7PZoekKovUJ7FlSu/38i849/7EHXuiiZXH9/Os9Hzz3+sf5ZzhHeMrdqWyDyFAIuWbVAAekKCm1NIyODdXIdJgAwQQ8lGlKaKj7oH3dN8+cPetndz568CT/Obdu34qAFQErAkcdgS4MumuvvbbgwMYPb77hwomn6LCdAT3pczqdSiSWDPcrznEUZXszRCeDrmPF+l18QHkBVG4/sLmu43vt7oo358+fn6opkwDT9y6ffvWMSUN+N3nkgP4HGlvx1Jur1Nu/NVOy2YyxPv7GckwaNhA+jwuFfq9gsYupJiW3bHAPREbB/Nqdp/A5oqPoKOA65+33LV3l2jss6LH5jcuafgLGZCvFhHQd8YCK5vUB+Cs9yOpHK+y0rbv8LwGAdFdGMxUuV7li9Usp8EQSkYYogjuitR07oysmTjj3qu5pdfMq4yZVj4m72j4tn5KLlo1BQAUy+7uRQatpOQenWiQlcEmpGponsdmw/51mFE8ogtMk+4lsQEJMtPtXNiOn2Iusql4AAp1H1P6JTyCJlim/A6PGEqpNQIvb4B+aBcZlScH0YRDhlMBLyjLHAhzB/XHsW9GkD5x05qCPl76xp/tbOn3OGT/YfXD7fVUXFqRpG0heQcqlUiAlSfqUJSICKObn3U6qJXQceLnlk2tnXn7ez//0j46j/smwDrAiYEXAisBJHoEeHHCABx980PHw/fd+L8+ZHDe8ouCqOaePsBfn+ZyiXCBZ+Rt2N6iJZJJVVxQqH2w6sHh/wnv7X+99aLsZT2on5NG2yVNGlN15yenDx9+96C0MrShJzD5rTOfsKzwYgPZoBAcaWlDdr9hQ1jMNm9JAQUoTQTO0Eai8kK6TYOomUBaBJn/z/2+u2aG9l3VQQb5orTBS19LdUMz75kQIILA3hlB9FAWjfXC4ZYrbgBWpFbHoDCAegrkJpr/8j1AE1IXqIikKduwO6G0bgyvsEedDipL9zKZNm3pl05fme4d4q1xbK87PEycjyeVYiwrFrSB3sKdrl4WptZBOVGQKEmGGhhXN6D+7rLN7wSwX6Br2L29CbokXmQNkp0BPL3+KOyA/TAcIigI9YUPz5iAKxvigKKbmgmxzlN0bgnwa1xDcF0U8oMNT4EbTusDmgvxRU1e+8UZj+mW/cf2s/qs+Wvt8+XnZ4+1eQ5pbED1pHKJkIbURunddmN0MdLJuWRT6FrVk7n668YOfFw0+94Y1azrrECf5D7x1+1YErAhYETjSCPQIEMyDLzx15K1XThv7+1MGFntE+6I07hGEw/pWbf3OWj536jjbvqYOfXdj6KX7nn2n4fzZc1bH41Hn3q0bhp8/YejEySOrhq3fsc+zcXcdHz+skvcv9NtK87OJY5aadNPtnrs7OqZnDoz2R1lyMIWU0oydBJkxrT2SzrVm+wE827IdymBjEjN0Cox2OZPwZsr86kmg7uNWeMtd8JFgUWqTAMGUMzbr4+YtyFWzQdIjoT+G1g3BSLQ++YIeUP776qsHb5w/fxnpM/e6dQcItGMyqCG4P4pESEXReL/BKRB4hUogMlkjOgjo3mxo+KgN3go3PKUyTS8mbEFeEIftfa8e+aWZ8PRPAzjdR5SmwGhyHwzxJ6Mrg9oZa99qQvGZ2VDsUryJgKMZE6ZACyVQS4TICh8yit1wZTpQ82bTooKK0Tcsf/LltvRLjj21+nalTPtFwXhflpEhoXNSZwIBOUN5UmhWmtke0aVg+ESIzcyQdLuP8L5Y4sDrrfdcWx/8aXq3xJH+YFj7WRGwImBF4GSPwCEBwjUXnPnyjy6ZcL7LbreZ2QMTJAQjMb78sxp9cP8CDK8otoXjSfVgS0Apys9r4Ry2cCTiy/e52YoNu/HSqh1Pz5k88rJRlYXOutYAHz+4n/jt/jm75y5mTaa6YqezY6ot0gQFpnaC+EpZg07lRaEZAGB3XQu/f+ta5hpviAOlSuoiBW5MnMKyWLbHNW8NQg8lkTcsC4oUDEq9JKYGQrp2gKlrIG2YqUth+5LG5qK8/D9EOrSntmzZe0QEuYlnjBgbsjet63duYafaolBf1NFRE0W8KYGc4V44s2lyl6URUyuARCASQP26FhSNy4ZC3AVTpEnwAYxuir3v16OgNAvucgo/kTwNy+ekqgNOBU6nArvpykjHyA4O0UEhuwWoRFP/YQvyR2UKfwXpyJW6XtumIGJNCfir3XDnu8RYeNKGmteaninMG/2D5S93AoTLrpw6YuPu7Q+WnJ1zhstvY6myDxEoU9LWRAIlroOUk067d6GgmCTFy8/rZdW80RKq8FVe8eabq1852X/Irfu3ImBFwIrAsUTgkADh+3PP3fT9aSOHd7Y9SkVE0b7IUFPfmnxvw079a2MHOweVFTJqhTQZ5rVN7fzexe8nDrSEr3FrrlcvnnPqfWcNKrhmd0OrNmFwuVjCSrNnY74z/kp1NBgLRmng1D1bkJJmNjMKRstip65CpxxffXuQ/3nNSpYxKUdWCozuA8MOmdLXVM+Wq2zFBi2mY/97jSiZ4IMgNpqbUCZ0Gunv9E1K/5K0cNumMGo/ao8MGTJySDCoNqw5itT2tMvG/nsTGu8sGldgtPAJzQUmJIupWyBSH0fHnghyhnrhznMYq2yxkjYIlS1bO5CR5YKnjJwSTYEhaQUtORv7ljchv78XnlIbtKQGHlRxerEN5bkOROI63tiTQCzLAZfTuG+hYmi0TxjSyeQ/YbOheVMALocDWVU0DqO1UE9y7H2jEflD/cisyIBCOpn0EEUHiB01rzY8XRjJvXH5Z5+lMgjVw8t+kTvR+0tvpcPNmOSEyPYNwRWhrISQVybpZtKRUGR7oyw70L5pJEXzsSQ7NOx5LbxlN41gPQAAIABJREFU+pTZY/7xj39Y5YVj+c1gHWNFwIrASR+BQwKEr0879emfXDZhnl2xd2l9THksMAWRpBa765m3FK7DcfGUcbwtEMZTb36MHQea9SFVA94bMKD09rK8qi35OdrSMwf6v7a3oUMbN7i0c+btDg5kFsHwHzBAgiG7bLo9dv7bbH80/RzM/dKfams4yu9YtZy5J/k7vy0mXfJOkL4IZi1fZhH2vtWAgmF+eEpkrZ5W0kLylyastLMTDyKZgBpOYP+7LWFXNOu5jZv2fetY3qqKAf6Hy6YWftdb5TGyHMTWJCVGmqKloqMa1FD3YTvyJuTBU5IJRvtIMmTDqhb4q9xGd4HwbCBNB2pFTAJCmljH3uWNKBqQDVepHSys4swiB8YNyofP60UsEcfuA814e38UQQ+JSJmTs+wiMLkIjEFtTaBxawilp/pFFiJcG0dgdwS5I7LgLpItlORQScUBWuXHGfYsrX26qCZ54/KODgEQppw3dmxzsvWe7LFZZ2XmSTVE0V1idECIEoL4oxhtpKKl0iw1yOfWQ6BpPDueb4ifetaUSxc+/KKVPTiWl9E6xoqAFQErApJ912sgZp418sdXnz3qT0P75xsyykJVUEopp/5vKA0acyuLJ1Sdbd3faGNg0RFVpcklH211+YsrnilxRK4qzvbYapvatbGDSSqvsxGgS6lBVAGMia+rBXS6oZPZ0dCVqGiWFdJvqD0c5b9d9QFzT5JKiTTR0YqUJhzTOKlbBEi6uHVbCBXTKN0P0bbI7N1Ii5R4SOiI7g9pBz9u2ZmhZd45Ylj5U4sWfXjUFsNX33K17+MP3qqrnJPrEQ6YtHqWwkICABBAkGl0qsfvf7sVucNzxGRs9zAEdnYg0ZZAdrUHNnLQFoJNhhKhIGRKzYc9y5tQUpULZ6kDxVzDOQO8GFndH8XFRQgEgti1Zx+W1zTj07hDOHqKLd04yRRrUlXsfbUZxaf6EK6PI96WRNH4bCguwyBKtGGaEsgUp5COPa83PFmOrJuWfVrTPmPGINeuA+Eb/UMz7swZkWUXStWybGOWGcTxpsSymUEwn1O6B0a3Z9e6PojwXse9W9bvvdn6CbciYEXAioAVgWOPwCEzCHPPOb2sqiTzuWljKibmed2Kqaxo1us7QYPxC76+LcCDkWQkHE3Yxw/pR7uZtj/NKtfzt9Q0aHk+Dysr8AtHofTf8+kgQUz0qYyBLDWY/IRu/IOUG2R33X8Zk+ZgmP/xEyoxyAyCSWrrpT3ODOW2xXUYOL0E9mwCB+Q5IDkLkk2vJTka1weC8X2xZVpQ+8vOnc3vHetjOONrY7/XodT9o2wylUHIg8DRDSBIZ8k0pcDGDUHYmQ2OPAfiDRFh/+ytpG4H45EykoOmLACBICqDqEnseb8RJYNy4SxzoRQc0wZkYcSQCvQrL0NbWzt27qrB8j2NWBOWZE6zeyPlXEnMyYQ418HXW4TypMPngH+gu/PWpfOiEIySTo5aexK736xf4Msuv+XTZZ+2jxpVOZTlqQt8wxzjPQU0zk7fBcMS2yj9CGqo6bPQy/NNj3m8I4kDb7Rtq8qrPOfNFess7YNjfSGt46wIWBGwInC4DML114938Jaccypz7PPHVRVPKsrOVAzHRyOTIH6xgyGaVLFqyz69uiw/Ync4WFmeN1Mo9ZmiNgwIRuL62u371aljB9s5uLQc7MwipBgJacBAfC/1/8+XGIzyQ5ooTw+PtLY1gLs2rEbGeBqSkaI2dQEMhNLDpiho2hQSBkglp+ZIaWVu1OE1VYj+NG4OBaL7tV8XFeUv+eST7buP9W265sa5g95/+e2XBl5aOMThMxQTDbElWd8nQEN1drq2ab8suB4KonUJtO8JQddUFIzMgsMrhY4o7ulcCXGOBHYvO4jSQblwlbvhTuiYXGTD6KoCZGf7EYvFsHtfA5bVhFBHZEzR7kg2y8ZzFpuQlyajqSRiDTE4s+yiDdMgQ6R1ehA4ENLIRnzVliT2vtW4oLKg/Oa6ulhUcbffZC/hfy4Y41VSJRs6XgpMpUiHpo9FegkohSzNiJstqAyNazq08LbYTb5dbY+uASzuwbG+lNZxVgSsCFgROBxAoAjNmDHDVeBoHeJRHLdW5GVdftqwcq/bSSqLDKFYgq/dcVDvV5TT4bTbvYNKcsm7gWa2zjmFA7WtHXz5xr3RCyZUZ+R4PSlwYIoNdXY8Sn39HoBBz2Chlwk+7dFuP9CEh3dugHOcwCxG2prS7iQe1AP73VzBa0kFnz2yA2O+Pyhl30xliYbVbZx3ODYc3NB821XXTl1xzz2vfs4g6kjfrClTptj37PnsqeKzsy/3D3Knuiq6lBjIHppMo1KTJGk5SPlqzpAIJqHFEnDnGFkH0caZPqnTYIhzQQDhvTqUDs5FRj8PdI3BH43jtGIbSnKciMaTWLkrglooYJkuo/ZPYEUAFYMQKTZSLxQyzGmdA4LzYHhWGMREAggG2KH/J5uTqHmnaUFVwaib6+q22nRXbF3R2f7+Tm8aCZTeGdMdks4tyxSf83egMXTXROAc4YY4gpuS7zra2ffWbNy/60ifgbWfFQErAlYErAj0HIFDlhjSDxk7tjL7zKpS/479rTfP+dqEmeMr/Akb0ytiCdXvdDr0DIcxK4nMggQIpLj456fexnuf7cW3zzsl9PVp43uwETSzCMZkTxDhQEsoWZTtidkAXxdgILL8KbHGI3qmq7bsw+L2nbBXy7S9qMuToBER9zSDHW9qCtAZhaSvExwKPvnTJoz/4VDYXFxkE2rebdCc8Yz7XXD8ed26PXuPaACH2Km6uuwOdwX7t6LJuR5GxobUrSFSCDQGOTFT/T2dqU8re9qkJoU4xlSFpO8TSCAxp9Sq31BEpEl997I6lA3OQ0YF+VJQ+6EKF0/CTtqVHIgmOXTBgTAMjwRXUmQD5DVN+ej065ljoYyFkIQ2ulFSctZcR6JZw4H3Wxb4B4+6Oblj082sv/K7orHUdtoN4AneggEqBOeDwI7owFA7MxriHVBT3QwESrSYhsDWWEvHHn7r6MGTnu5NrfKLPi/reCsCVgSsCJxMEThigJAelJlnj1v5kznjJ2a6HHZBqpOAQKwg5ZZQddzz/PvYuHkbyBLozFPHh6+bdXpm+nnMzIHOhVuj3hyI6AtXbk0M61+cGNM/z+V2CYMGmgxETYMxbiP/J6HFkK5FcIgn9uaa7fx9fwPjuTR5SodAmoYTCVnjlmAh7Rw67Nj0eA2GXTEQDmoBPBjh9cubw4lW9ft797Y9mW6ydKwvy4gR5RdE1dDd/WcWDnblZBilD+HnYKzCaZIWZQJR85caS2atXgolUYlFGGEJsJMGnFzU6tiZ4heTrppEzbI6FAzwI7My05jMafKlDoHumRTRtSEnfJFGkPO+kGzuIXOf4k10ilClQI2iIN4C1C5vX1A4YNSPD3y6qn7Y9wayRHMUydYoHNlkcEUYxAAmBvChbAJdn4ih8p0yW2jN+0wbc7AmzNs+Cj1y/twZ//63+Y+1H+szsY6zImBFwIqAFYHOCBwTQDi9vNxdWl3wq9mnVF2T480o03WdqTqHqumgr/XNASxZ8RlCrc0YV+bBnpYoigYMCv/0iqkCIJAcckc4DofD0ei0oW7l5n2JxSu2BFSHZ8FtP//1/86bN6+L8s3ChQudq1a8d9qq5cu+m+/SBl00eUTmgKJcTyCc6A+uuTIznPC4HLDTBNNte+rd9dhU1Q5Is6aUsI9pT0yr8zSvhXggif0ftKHs9GJkFLjQXhNOHHit4d3CouzfrV+/b3lfvDxkTvTWguf+XDTZ+wNflc/gG0hjItkO0mkmJTQa0ngWJg9B+FVQO6BpPJUGEKjrQshBy5Q/lQU0Dfs+aEBuSRayiFRIqoiihVC2e5qAi84vwIEJMEzehrR/7r7qp+OcLoM3YcpW0/XS5I9jjRrqVwUXIIh9GaOcv8gfnoPmtS3I8NmAoI6mmgA6Aknx/Px5mcgb7oMrzwE1qQEOBZ5cFxSnNNASvhedoC4ZTqDpo8CWyF7ctGtv/bt98Xysc1gRsCJgRcCKQNeu/qOKx/z58+0vLnzyPCUZ+gXi4XEuRcuMxjWRIqff5QNzHCjxOwVg2NEYQTPLiV47Y2KGO8PVWpiTtfaVj7a0hDIKFj++cOnCo7qw3PkHP/hO1cZPPrnFqYVKJo+sxPgh5SjyZ4EzbjsYiAzdW9c60ulxYsmHG5GYZIMjh9LuZnreOEmqfZBS6JqOSHMCNcuakSUmqWxdiSi165/f8eL51532X4vu+aDpWMbZ0zFnTxs5rF3puDt7ROY0d2Fn54GY+IQ2g5FG78ljgM4n9A3MFXRKG0Cm62WJxFBSNNL1wrpaVXFgZRN8hVnwCbtn2VqYRgAUk7zpVyHOK+v99FTTdSPSb4qAhitDmijJ1hQqixBPQZ47UptA48fBBck2tSZ7ou+X5JapR5MoFOqWctymEBW5P4Z0dGwJoHVfAMmkin5j8hHTVGTmZ8BdQNkWqYOga2jfFUoceKX14bvOmfHDeYsWfV5Ssa8emnUeKwJWBKwInGQROKYMQrcYXTq9yv2XswZkVWY6bdA4EFc54pqOuEp/OPa0xPDmntjmypL8hTanu3b40IGvLnrpndp/RawJuLy+7Plv1dXWP+wr8SOph1E6OQd2L5UX0mycRT09Liao8L4YAnXxsD3heGfb8tq1Ho8TeUU+rd/oim1vPffJMQGYQ91bvxL/hJwRvv/Jn5hzqkO6TBqIRQcSiZRqYa/nSMt4GD4JZpYBBv+AMgDmkxVdGySWlETtymZk5brhH5LuMyGBAmUd6IKie4GInOS9YHYvyAmZhKHIejk9i0CAhACCCTio5EHZA8rMyP0ovs0fBRZ4XZk7DyYC87OL3Sg9NQeKM42DIHweSMNBqkBSLGQmIloXR3NNFJ4sFxIJDZ58l3DdJK+GHc/X7XW2Y862A20b/hXvk3VOKwJWBKwInKwR6BOAcNGQzL9MGeitpDqyAAfdAMLeljiWbA8v5sClxyPQleX5X7N5Hctsbge8AxTkjcwCc8rJh5bFMkXdvKYVHbVRXlJU9PfNK2reH3PK8A3vvLPmX86ArxpcNjN/bMaD/uHuMiXD5EUYPAEiDgoXQ3PCNQPWW0umMDaSpQTigpAcdBczKW44TGoqDq5oRIbXiZzhaVQQkxBpejcYSMXgGphtjqbiJH1CPIR0vgOt/E13S6mBIDIPxJ2gfQEE90bRvjq2oLhf4ZbPNuy5Y8S8ErgEMOoENinpaJP7IMoihlmT2Gw2qBGG4MEobJyhaVcAkWACOVHXPfN2Ndw2XxhkW5sVASsCVgSsCPRVBPoCIFxy0RDPX6cM9PUKEPa1xfHi1vASDlzUVwM/1HkqK/NOzfB53k6qamb+pEz4KyUTn3QTEjoa1rYjvC+h+v3eH+/f1Lj8rEsm7X7hsWXHjdw2dMSA2Tnj7A9mDbCVKE6TK0Bs/TQJYUEOlO2MJD1spvzNGxdW1d33l4JDlEVI30S2JIHGVa2wZdgEYEqdhiZ36lRI73qQeg8iDSE5DkIXgaZ0kxCZrk0gLaJFB4vpAyEUKw2wQx4SHetiC3iUtWWNct6SNzqzc+zdziPKHFAkOJD+DCbvQmo7cFKwbImgY2sIkY3RX+ysa/tjXxBHj8e7aV3DioAVASsCX5YI9AlAmDPE89ephwAI+9vjeGFL+BUOzDwegTn9nOqyAztb71I9ibmDLyhBRrbR2njg7RY07oy1Vg/t95t9uzY/dPrpSCxahONet873e04pGuP9n8JTvKc7vOkSzt14AdSyKCZp0j6QnAIKIJEB6cmlS0bT980uBwfxLWSkhRKhJibr5rUd4NCQP9pnfGh2H1DWwdx6Upo0lRTNFtF0YCLPI3QQaIxCarlTOpk+Du0Oo/nDtgXxjsTs6u+W+VNtpennEVbc0oVSZnlEV4epeEkxcJIQFKla0v0z7HiuBlNPmTrtkQeffft4vFfWNawIWBGwInAyReC4AIQD7Qks3hp6g3Ocf7yCe9ppg4fV7Gr4TWtrcBKx421MwfS5Z/34uQXvPne8xtDbdSZOHDQi4gndnTvSfY47N21yNmbtzto//Zdq87TKN7UIjHW8QSCUEsrdhYMMJcbu5wVa17YhqSZRONrbqcxI+wrOgnwVaNI2eRDSGzvV1SAzCKK1UnAETAdGqR9BAEK0ksr1vDxldG8Y4U36x431LWOHf7PMmRI/6k6QFHwKZnBDBCgxRK1SGyk8ynKGluDY/VhtY/9HbyxbNnW+VV74//1SW9e3ImBF4CsXgeMDEDoSWLwl9CbnmP6Vi+Ax3NCf/vRT7z+f/b8/54xxXO8t6VYOkHbHBvnQqL0LsaLURpwCIgrSBCoJiEJ10C5bI6lmzzsFjsTET/sCHZ8FEI3FUTwuF7qaJI6f2HTGoDgU2Bx2o5Qh9BGI2KgaWQbhAUHCRdLhUZ5PkB/lBC5KELQPbTQ+gXUMCeZEYxI7X6nj2UO8jBwgTevo1C0JHoOh3gjVIGkKs6b0Tgz6Hp1fmlg1ftwMHMj68bqPN/31GB6BdYgVASsCVgSsCBwmAscFINR2JPDCltDbGsc064kYESgv9P6p/ILcn/oqZAeAOaHSV1pZy8lYTLxCoVDs0EkgpEnc1AQga2daWZMsM03stLqXwCB1PANCO2MIdoRRNC4PjlgC+UxDlqIjqXOEwHGQO+HKyjB8Nkh9MZYm8Sz0EWQJIZ0EmWrNlIqNXbIKhvyyFtaw9sl9GD6nAp6iblkBM4sggJBLeD2ITVo9pzIbBFboujKTsnvxPlxx1Q3Vv7v1dzusd8qKgBUBKwJWBPo+An0FEP4ydaBvQG9dDAdFBiH8rsb5OX1/C1/OM1YW5/yx5Hz/T739ySNZTv5mrV/qF9BETboShj4BTY7pq3sybzIONVQH7YbnQtqq3phoqbZPWpZAvFZDS30Q5eNyUW1TcXqlDwV5Xmhk31zXgjd3h9CamQk7cRKofJHWqijOZWYzugMEKVfdpevABDxCY4Jhy/N1qL60HHa3DaAxinuR6pHSW0GUMuR1UgZQZocGdUSIjAKRJTn2PdvYdsHX5pXdddddR22v/eV8Y6xRWxGwImBF4PhGoC8AwsWSpNg7QAgksHhzeJnG+dTje3sn7tUqS3P+WHqe/6dZBBBkCl80KojOBaNbQAADmnzF591S+JTaN1P60lmTJmjGSaugKzdAeGMoClo3BBFLJDF4TDbOLc3AuGFlKC4pRjwWR83effhoex2WtQEZbpehZZBe/zfBRjcralFOoImeshZmNsEMuzRxIm2DPS83oOKCYthcNlFGMAGAuI5ZkiAAkmqVNAWUOmWeDRKjDXpUQ/2bwfcv6z/xvPmLFhm9lNZmRcCKgBUBKwJ9GoHjAhDqAgk8vzn8vsb51/p09F/ikxFAKDnPyCAYJERaHcsSgtnSSFoAumak/GklnVpBGw6NhqiRVDsUXg669EoQPZDdosOwdXEtBpxdiEKfggsGZmPM8P7o168ckUgEu3bVYPWO/Xi1VoUrQ5oudY9vuucCXUJ4MxCJUE7mPckwE7HQZseu5+tQMatY8CGF/4Po4pTtjLIrgTII5C9Bn3VsDqNudTPaWuOwKwwZThvsTjscdhu32RTucroe2Ljp4E1f4lfAGroVASsCVgRO6Aj0CUCYXe356zmDei8xSIDwgcb52Sd0NI7j4CrLc/5QMj33Z95+TiZS65J8J1oYhd0xyRsT2c8gGAqiIO3XpZtBzs1UDpCqkCmDI3NVLu+JfBs+vW8fxt5UAVdSxaQ8JyYNLUZuTjZUVUNtfT3eWd+EbXDA7jjEayFtmGm8n7N97il+BBDsduxadBAVFxbAZu/Mboikg6rDRoZOu5L6zrcalHx/Fr9q+vi2ySMqlZqWVu9/L/14x7q1u4dbOgfH8eW0LmVFwIqAFYFOq7wvFIs5s6o9d507yFfVGwehPpDAc1vDKzSNn/WFrvQVOpgAQtEU/898AzLIntIwSDIllEXJgLwiDLlikiAWDspm+t3sdDD3T/c+SBMtEoRFubVuCiEWTqDszGKoKkduIomxBQ4U+pxIqBrq2iJ4v05HRp5bSBh/zorZPBGVQASBMk00iT7rzV1T6CM4sHNhLSpnFQgHZzWiQQ2oyAzZtfaNEWVkv2L9uhkTWxyKUmi4dDIkVBX3vfRhq1Y1cPaC+55d+RV69NatWBGwImBF4EsRgb7IIMyeNdjzt3MHHwYgbA6v1Dg/80sRleMwyLIy/+V5g72/zihlw7IHeUwEYEglS2dEYSYlOhKo5VGWDIQuAskpS+MpSsmTboEJBoR0sqFFIEoA0qdh12uN6DcxH65+XjEBk1OiHkogR+GIJDREGIcrywnFTg6PaRLHXWJhaDQw0jogroPomDBNomQLJGU7TCtpymIQYNEV7Fh0EP2m5iHcGOeDM3JVdyOzTztlUGxIeYFDURS7sHuW2gf0Uq7auheLP975h837A/9VU1MTOw6PxLqEFQErAlYErAikRaAvAMKsmYPcfzu32j/Q1osXQ0MwgWc3hT/SOD/din5nBIYPrzgnEGy9peAU38UZLjs0lUPnNsEN1Kkjger7xC0A4PIq8A/0QKGmBzJWIhBBk7RpE216FhBAMM2TpOuhGlSx+/U6VF/ez7CWps2c2IWTNJUzEsYEDbKPlgqG3R+WIEpKxUMBENIzDUSEpDIItUKS9bMuShDhgzE0bQuicVMQM6cPj5UkM1xTTxmUKPJnuhQ6F1NAX41/G7oJLR1hPPXOui1rD7Re+fG67eutd8aKgBUBKwJWBI5/BPoCIMyUAGHQoQDCc5vCq1TOTzv+t3hiX3HSmUO/1ZhoeKxiYgF02IwFPwEF016ZdATigBaMwz/YA7spzWzKHpuTvZzwBXCQK3yz+6FtewDxhhiKT8/p1FQg3kJ6l4IpiCTKF5Sx0Dp9F8wSgpzQCSR06VqQx5IuA2UPkm1cGEMBOkbkF6pnlPVjnHPbsIrCZKE/00FAwAAFti7ggEiLJNL45urt+sIP1v86aovftWbNwciJ/QSt0VkRsCJgReCrGYG+AAgXzhjk/vt51f5eAUKjkUH4ROV80lczjMd+Vxd/++Lsj15/q230LYMMjoG5CW0BLlL6alhHtC6CzHIHGNIMmsg0MaAhGdbg9GYgvD2Btr0haEkVNjdD3kg/vEN8qHmtFsXj8+AuchkNBzT5kxaBBBXRgwnEmzV4B2fC5nPIlbxAHiJLIPwgqGQhqAZGFkF8arYoKgqitSoaV3fA18+LnEl+JIJJxBviOEMt4F8/fbSAGAbO6AQHNtHW2DWDsK+pTXvyvXUfbzjQ+qM1a3asOvbIWkdaEbAiYEXAisAXiUBfAIQLZgx0333eEP/g3jIIjaEEFm0Mr9Y4n/hFBvtVPXZQdXFD5TeLCm3CybDbputQQypijXFkllHqvqu3VKwhiUSbDv8Yf5oUsnGO6P4YtJCGppogSs/IgyvLJsCBEEGiTgm5NX0aQMEYH2A3dAg4lRkiCkKbI2jf3oFwaxSZlS70n10iraRJ5Ij0C3REDkbRtiGEkq/lQ8miLgtpPW2zIXogikntubjitFGpa1HmwGazg8CBWVowMgkMje0h3PbQi4mGYOKv3/7mDb8BkJg/f74+H1CGA2wepSRSPZVf1bfBui8rAlYErAicGBHoE4BwwUCRQai22xjiKjf+aDriKv3hEABhc3iNpvEJJ8Ztn1ijyPVnPDDown43+IdlQXFK8qE5RM6RbE8iVh9FVqXDECNK2+JtKtQoR1aVTwonGW2SJJoUO5hE264IbFk25I/Ohs0ldROEC2QnfyCwNQyH1wl3ubR9FrLKJFhAhkw61EgS4X0xZPX3wOaV1tniGhqSbQlQBsI3zG0cQzO41G6I1sUwKVKMKyYZAIGyBwQMCCAo9JWyBwQUiIdgI5Kigoa2oPrEW6s7Ptq0+w9Xzj5n37ptO3/d0R4qqKgqe8fDM/68bv/e5hEXn1V/zw/viZ9YT9EajRUBKwJWBL5aEegLgDD9/Cr3PdOH9A4QmkIJPLMpvFbX+fivVvi++N0MKSoa0O6ObMvt73UUjMqFs8CBRFsCakyDPcMGd6FTTMKRmhB8w9J8G8REzBFrMCSIPRXeVJuk6H7QdcRqk2jaHoJvgA/+QV4w0jcQ4gNap7ETZSjaVAQPxpEzItO4oRRAoBJDEnpCR2RvDPZsBzKKXEaWgTIZHGJssboEvEPdKXMm010yVp/EqdFizDtVlBgkOEgDCGYWgdw2qTtDdjI0tAe1e559VztrdHVsyuhBWTScQCQWfXvtNm3troPLWG7Bn53VhR8/Nv8xq7vhi7+C1hmsCFgRsCLQYwT6AiCcO60y454Zw7KH9ZZBaAol8czG0Dqd81Os59AZgfnz5ysP3/OXh0pnF34ne7BPUAL0qI7QvigSgQScHht8gz1QozqSrTF4yqXzo+xO0OK6WNln9suCPSdDuiF2eihEaxNo3haEt18Wsqu9YJSdoGOpDVFczOg0IMDQ+mkYueOyjMGZ0s4iHUAgQUesPgEdHJnlHkMBkc6jKFADSUTr48jq5zIAiDyGBJsos3BqqAhXnDE6lT2w2x2yvGCDzW6DQuDABArUgUEgAQx76poTKzftUi47+xSb02Fjuq5D03Rs29+QWLhi/YpWp+87Lzz9Wo31PlkRsCJgRcCKwL8mAn0BECaeUeb8x8Wjcsa67EqPJYbmcBJPfxb6VOd83L/mNr6cZ60eUDCZZ2tPD5hTXCoofGKClCRAovMnDXdGrht1fcXtMD6nyV1VocVVxJt1OPMywBU7tJAKrS2ORHsciXACsUASKteQU+VFdnUWFBeZP5G1MpUCjGyCMGTSdXSsCyMeUaGrGhSnDVn9PHCXu8QETtmCeEtCAJXMSq9BVBTjZSK7EK2NweYBXH7KMICcAAAgAElEQVTDgKn106DwY8rIc+BUpZR/47SxBAKYothht1MGwcgiEECw2WSZwSQrCi8K47VctmGHyjSuTB4zSBEAQdeg65wvfHeN2pyRff6df33i3S/nk7dGbUXAioAVgRM/An0BEMZMLHY8fPmY3AkZjp4BQks4iac+C23QOR9z4ofk+IzwwQcfdPzXL297uPKivKsyS9yd7EShhEh/zNW4LiZMTil4U45ZdCJQqYDaIY3aPnEOeNwoB+hJXUgYa5SNaIrBnuFAzlDiN5DQEQktdao2CrGjZBJahCMZTgrsQSDElmGDLdMOxhUEN0cQbAzBN9wryhVdVBM5RAYhsLkDWiiJ3NGZ4IouZKGJXzCg1YN5Q0agKM8PuyQnCoBgNwECcRFkNoG4CPLe6fbjSU3/05Ov4GdXXoBXPlzPlq3eygKRKNqDUe4uLrqjsmrcf41fswY3rFnTKRl5fB6fdRUrAlYErAh85SPQFwBh9IRixyNzDw8QPtM5N4rR1obSIv+07EHOe4pP9w8VFsjdN6kqKGZsG5EG09QT0/clsECcApkJ6PIRmR7VhKGFGHJG+gwnRXriwvTJyEqIEgMpLtJm2k2THwR1NgrBJQU8qULXKfOgQHF0I1ESVomr0OOEVDiYwsFovGQxrdiQ3BTG3PyhOH34gFT2wE7ggECCw26AA5FRSNdEkFkEzvHkGx/x/c1trTfMnpyraRpXNZUlExrfWNvQ8Iv7F2u3zPt2deCNN7T5mzZZro7Wz5UVASsCVgT6MAJ9AhBOKXY8csXhAMLG0EZd5539bn14E1+2U40fP95Rv2/rneUX5N7qr/T0/gxIDEluokOAdBKojbA7QEgmDFnlHraOvREk2jhyR/tg95AOgtYJECTREYmYYRCVvpFGgTNDqheYg5DXNjspZLeEsKQ2x0XHCZtnA4SE94cwJpzHrxg7huX6Mg0wILMHAigoNtBXanUU5QYpnkRXJOzTGo5En351pet7cyYrmqZB1VToGvERVISjydbv/f2pmgJP2ZQlK1aErBbIL9tPgjVeKwJWBE7kCPQFQBg1rsjxyNfH5k7srcTQGk7iyY2hTbrOR57IwTheY+tfknOWb6j73vxTvKOdmVI3oKeLm3wEYdhEE25a6cFc7dNxBBASaQBBSibTFNuxLyJ4Cvlj/LC5ZetiGs9BXJa8HLoDDGodIF8Ik9BoljwIHAgtaCI5SrVFOocgNlIZxCbVGhlAZQ9VRfzTKL4/6lSMrCwVYEAAA7sBDAgwiNKDKDMQUDA4CQJkcA5d1/XfProEP7/mAoXAAfEQNFWFqhlfl360qe7p1Vt+2P/ffrt40bx53VBO3z/R5+HNs4MXMzAtiuCOecARXfNlZBYrQKGOz6dg6MkxqAkFjlAMbfXzgKPKhryIfK8NWgWHFm+D++A30RA+1jt/Db7cOJQKGzTBWCUnDQ1oiSK4u7dxkU7FKLhLM+DKjyHRcCki9VJX65DDWAg4HfD3c4J5w2B75qGtI/2A9M+P9H5sUJM6nPsvRGvgSI+x9rMiYEWg5wj0CUAYKwGCuxcOQlskif/bENqic062vSf1Nnp0UWZE1X7sH+v9df5wv0IeCF20DUyPhHR3RGGZbOoSUHshrdgpmyANklQyayJr6G4rfcUmSgyJVhV5o/ywuYiroBmTbwp8SFOnbvoKNOEzp0saR0n1RjqOJn0BEuQf85p2uzSJSssy0D5cR+hgBBMjpfxbZ05kbrfLAAQOCQwkQBC6CCnAYLQ8Uigoa/CHJ5byn1wxnQmAoGlIJJNobAsgGo9j68Gm2j8seOf2nz//ytM3jB+vgjHpHtX3r9nrKMpMIvo9DnwDUGJJqNdditCWI7nSUvhuZgzf5YCn+/6krs04AgCv1YEPFTD6uuoiBHYe2bm91wLKrQBaAPx+FjreOZIJOv3cS5E5hsM+AeBjGMP5AO8nvcaT4NjIwV9UwPYmoL9zKUKko53a/glk5MP3EzB8Axz3RhF44EhAzlK4yzjsv2GMnWXj7MYL0fFO1zG5y5hi/w3nbPKRxEHu06hz5VcXod0isB5F0KxdrQj0FIG+AAgjJUCYdBiAsFXnfNjJ/hgGDSoe7u7veCZ3gn9kRo7TmLDJ9ZApIC8DmA6JwgWRWhJpVU7gwNAkEN8TvAT6vjMlh2y0L9oMWWRp+UyTfNuuAPSAhpxqNxSXXZAZhc4BzUoCjBjtjqnNNGQi8JEiRdJMbTg8CgVG6RCZfozhMCkBC52PgIRspaTyRWRtDP855TxeUZTPeswgSPEkM6tAmQQ6ngDB7/75Ir/tivPYZzv38fqWjsTwypJkNBb3RBNxtrehtf3pD9a91xBMPnLjjT97/frrr1fZvwgkvIrM0RpsD3AGYTrGGe6aowduO5J3eqni+zU4fgLAzcG6ZAiIggqAHib9PHIGBDjwPuf8zhiCHx4qS0Gr7AzmW8uAEeJYzv8GKL+dhY62IxnXK8j1JZC8TGH4NsBOIyswAEFwbBJfGSsF+BCy4QLQpnMsUaA/sRqh9+YbypZYiHK3B6E/cabfAo7f2hC440LgsEJWi5FdaYN+P2PsfMbZxbPQviR9zPS5nekPAARYRFalq0pYjzfIDnLOb56DwKtHcv/WPlYErAj0HoG+AAgjxhY6Hv36uNxeAUJ7JIkFn4W26TofejI/jOuvH+9Yvz10YzQz9Jfi0wtsIh1vdiRQYERrY9KYjGUbopjsxYQsOxfMAApjJAc4cQpE64FhlCTKEMIK2vBPaNnRAZvG4Cu3g5mUBgIIwpJBZsfNrAWdmzIBBDwEyEh7WiTPLDUTxHdlCUD8m4AJdUbQ9cXMSW2YJMZEcszG+OKBJEYfLOI3zf5aLwCBNBGMNkiTh0AAQdd07Zwb71BmnTVWn3H6qGQyqdoLsjN1G+MOTdVYNJZQd9c3xd9eu337ik0HfnWm6nzznp07Dzs5He17KCZiZF3LGLuLg9UDKGDgMZ1rYy5C5ODhztcJEPguzpUuoIKeFEE+B7hdBQYB7Kec8RIGrNG4/u2LEdrc2/lfQtbXdab8HwPaiS4KsJid2y6egbYNhxvTW/DmRcF/wBi7kYMVA1itceUPNqCNQ21yQonrULw69EINrEph/A4AXnCs4+C3zUFw+XEDCBzzASaud6iNQ48zYOtsBJsPt6/1uRUBKwKHjkCfAIQxhY5HrzwUQIiqWLA+uF3nfMjJ/ECqxlf5szL4Wznj7BMySjydE2p6UMxMQZqZUq8xoxW7CQ5EyUFmHUSngtHK2LS5Da4sJ7zFDgN4SIEjoYZI/yYUIFQRZWZe2DnbhKV0Z6ullG8mnoKZbTCvbWY5zAyCOVhpQ53u+tj8UQfunnM5inP9opyQ6mZIa38U0stSE4EAwpIP1sQPNgX4nLNGu3weF3RdZZRV6OQhaFDVJG8LRkKPv712/6dbar79yfb61X1NWCQOgQ7b/4JhLOPsPzjj3wUwSeHK/JloJ9+IQ24mQGDgq2fx4NRedmavAE6OrFM1pvyeAaczjrsjCPxiHhDt6ZilzLuNgRXpnD8AhZUxjqtsnN8eQvBvh0rzU1kgF1nXKUz5PQfP5By3A9qCdYjUm5mB9OsRQMpE5hAO239yBVGbrv/kQoSajhdA0Lly2UVof/5wcbY+tyJgRaDvItAXAGH4mEL7o1eOyzu1txJDe0zFgk+DO3XOB/fd0L98Z5r7jRnnrN/28VuVM4uZWO33ZM5EMxtNxIcCCGYqP7XyZwaJUbgsitxAqmWx4ZMWuPMc8JaQ0ZPM0NooS0BqigZAMAiORtlCbESKpAmfQIdZWjBBRNo1U9chjoSprZD+WESGgqewB3QF1esz9B9eeo5CmYKULgIJJonuBaPd0bB9Zvhk8y4e1/X4hEH9HYFwOJnpcmboXBNlB1U1RJ3Mf1NXw+rt+9RXNux6UN2295cv1LS39+UbshSZ54IpbzCwVzWOf1PA54AxWlF32Li9+nCkuCMECKkhL4HvG4zhL4zzeARszDwEWrvfzyvwXqwxthjAToVrkwHlAs7YX3SOJidwxgU9HGOe4xVkDdeYQityL+fslzF03N0bCOmCXwFlGaBMBVKkl+NRYrAAQl++zda5rAgcWQT6AiAMG51v/+dV43sHCB0xFf/7aXC3zvnAIxvWV28vklV+fMF9i8vPyZ7jKXMa4ECQDLvdq6lNYHIRzI9NboCpYmhqGQhnRsN4SXAVhB2z5CEAqF/RBHe+Hb5+VOLuVhqgfUXtAkbWgK4tOQ5Cx8Ascwhyot451nQOAn3WG0AQgKRT8In+2bGyA3ddOEcrzPXZUoqKwouBOhkM62cCCAlN4+98sjl+SnWF847n33q6KDvzH+MrSxefMbQyh7ISlEHQVF0ABZFR0FQk1aT2wFvrdoRr66Y8tWpPQ1+9RcTSnwDf85xhGuP8tzMRvHMJPCUKs38I8AJwdvtsBP5+qOsdLUB4BZ5xGrPdC+A0nSeGXYT4tvTzvwtkhOB7HgwzOGN/mqN3/PxleKt1xu4D+Dmc4ztzEHystzEthfcJMHYV43iOQfnpTLTvPdZ4WQDhWCNnHWdF4MSOQJ8AhFH59n9efUreqW5nz0qKEiDs0TmvOrHD8a8b3bgRA8Z0KG3rBl1exoRUscgCdE7QcvY2WgepI8Fcscv2QcExEJM5Tf70R2YASC5Z7G94I1DpgGybzQ6HuvcakVnkgLfSLTMMhkxzCiwQ8CCwQat9acAkQEMa0VEACLq69IBIESVNHgJlJKglUmQw5GaCiPRuB4VBrdcxrjVf++6M05QMp4uliyQZhk2kpsiwu64ZcVVTN+85qHya4fNv++Ad14yxI389ZUTVjXlZbpsuygyUSTCyCAQQ6M8zyzeqgfq6ygfe2V7bV0/zJWSN5ExZC+AzxtXrZyGyhs69VPH+AZz9DMBycH7poereRwsQXoRvkMJwP4BpCsdpMxFYlX4/S+Cfzpj+OMA8OueTLkJwG+WNXoLvV2D4CefY0Y7A5G8Cn2t5fA6eEgez7WJAKzj76WwEnvwisbIAwheJnnWsFYETNwJ9ARCGjiqw//PqcXmn9QYQAnEVT6wL7tU5rzxxQ/GvHVlpXtYLAy4tuCizzG1M4uaK3cwUSOVE8UCoR41W7NJYyWxxFKUHmnDTNRDMSdosH4h2Q5dcuDPUvdcAT6EdvipPZ5YgzerZ7JIQhEUCCNILwehwoP8y4RppZBrMFsZOYmSKA0ElCZHBkHE0MxtyvKKkQjR0nUHdGOXzKsbwaadUM4fdIUCCyTswAcL6nfvp4moknsD8p94696J1O1Z2fGfalDOHVP7PyLLCITbGjCyCFE0yAIKGxR9tSbS0xaoeeOnDPgMISxXfQnDMAcPDUT1wm1nbXwL/AMb4J6REwTl+OgeB/+11xS67GA7DQUgd/jIyR+lMuQ9gZ2lcH5FOVFyKUg8Q/BsY+xbjeGoWAt82D1yMzLF2ZnuSAUN1rs+dg9Bz3ce0FP7rwPhDBGw4Z9+cg449X+TttwDCF4medawVgRM3AscFIATjKh5fF9ync15x4obiXzey4cNLJsddsaUDZxf7zfQ/U2TLIQEEc5P6BAJAmDoIlA0guRpqG0wnCfY0XMoyiIlaujWCoe79RngKFPiqMg35Y1XqKKRfk8CKTjLJhthRKhMgSxepbgf6zGyLTO98EKJKri4cBmrXTGU20lo16dxaRIVjh8avGjwOZ4wcxEhB0eAeMOHFwBSF1zS1Bj7csCvjwlNHOFZt37fu3ufe3qg4bN6rp4wff+6Ywf1sChPKirqUX5b/xiPL1ocag7bq51//oK4vnujLyByrM9sKqo5oXL/6IoS69Ncvhe9+MFzHOZ72gP/bNARJi+Bz29FmEJbCewkY+xu1P0a5PnqeJATSiV+C9wzOcD8HG8o4HzMbwa3mBR8EHGWK9x5w9h0AnxTzwJQJQBevipfgu5czfB/gz2fx4JXpfIJjiVk6QGAcixSw5yhPdQTnKtAZvx5gRPw8TJsjewcMhy6D6LxWAf/fmQhuP4JrW7tYEbAicJgI9AVAqB6ZZ3/s6vF5p3t6KTFIgLBf57z/yfhEKvrlPNl/Tv48d4GDJAIlQVCSESkg5upf1POpHVG2K6bLKpOscQ9+C13ABRUC7HaiBabOWf9ROzyFDvgqqMRAHQs9tJKLzgXiREiAYCoxinKHqb1g8h+FgELXxyhkmV0GsDC1D1KlEln6oHERT4JKIwpD+6YOTLdXaddMm8QcDrtiKCga5ETSMdB0qJ/u2o9EPKmMHVyu1DV3qOTo6PO4lCyXQ+mIxvQ9Da3qsOI8h6olBVio7wjpj769/uVNB2JXb9u2LdgX79oSxXcv47gRHK/aELike3//C8gabmMKlRz2Mo5bZyHw+hcFCK/D3S8Bxx/AcAU4ngKyvj8bByN03oUg40zff3DGfg7O35yFwMXdRZGWwHsWY+xl2p9zfL27JsBS5l0EsIsZ44/P0oPXfdE4dckgACR5faRKjoQ4vQBzHh4gCA2Ew4hgsU2MKzfPQtsHX/SerOOtCFgR+DxF7lhiUj0iz/7YNYcACKG4isfWBQ/oXKiznVTbeXMmnFnTsPefFdOLBlPnoRAjEOUF3cgIyDZFc3Lt0t1gZvXpK63Izf3TIyhIiVKzgMoE9H8qFcit4dMgPPkOeMvJeKmXLV0FMV1S2RRFot/M3UmT3U4lyiCSOCn2pd/l5vESgJBtNN1fpDGB8u0u7ceXnMO9ngy7yB7YZPaAAEInMOI761uC/3h2mXfe9Im6J8Ohv792u701ENYunTxaK83Jcmq6zqjUQODj2eUb+Wf1HTNefmf9G5Kw8YXetdfgGpRkzjcANoBz/fKe0vWkrqgi+ojOMJdz/kcG7x3mZJ5+8SPNICyFcyhYxqMAn0QcAc5x0WwEPzInxyXIGsEYuxtg5+icTb8IHW92v0nJRaAYTAX44tk8OLfbWJ4Ax1WM4alZeuAbXyhI3YWSjulkjB8eIPCPAeXQehOM79N0/cFD6UYc0/Csg6wInKQR6IsMwuARufbHr5nQewYhFNfw2LpArc55+ckU57kL59rW/XLlb4vO9t2aVeX2GERCYxUvOg/MCVRO0PQ9YyUvyX4m0U8ID8mUfXoAJZHQ6F6Q7ozELxBCS5SZ4GjcFIS7IAPeEmm81EMGQRAMSRzJfBuk34IoR5jfM3SPe358QqRJejCQImQy3kXYiXgFZgtmrCmO7A2K9vPLp3FfpptSB9J/gb6K7IEh+iTbNaXcsh6OJZiqacxpU3Sbwpiu6UwnXwbhz6Bj+4GmxGub9j69u6Xj9hUrth1WuOhw7yF1LoyH7xdg+BkH2mI8QBoenwtAGFDy4b0AjD3DgA2csxtmo4MIjV22NCVFerhdUuVcqBdyDwNzA5z8tAkS1nGO/yhF4GmzRGBkD7zXcMaou2GdwpVrwmjvsZTihecCldmpBXI35/xaU9SIBrUUWb8EU37Lwd50cv71Q7VDHi5O9Hl6BoFz3NGOwB++AcQOd+yr8Fdq4PeCsemHAwhWm+Phoml9bkWg7yPQJwBhWK79sW9OyDujtxJDKK7jsXXtB3WOsr6/hRP3jOdeclb1wbqa+wrPyj43I5+cFI0Ogs9lAkzZZFr5p/QMjKyBMUOTh0Kya/dBSjmxUxRJaA6QpoHkNdCqumFtAHaPHXkj/FDsNtAqPtXFQOcWVtKkyWDIOYtNEhYFUVFmMYSwEh2bllVIRd4UV6Jz0FjjNDdILYZUhsSGZCCB5FsRff41F2j53kwHgQPDwZFKC10BginnYIyBtBSEcZP8Q/82wAF9rz0S0974bM8nr6+vuXX9+j0f98Ub8SoyKpPM8TgDOxscbzDoL/R+XqWYM/4dgJUwrt8SQeiR7iJF6VLLAES5IG2jKMcYEOTAQXDss4E9GkLHe+kyy8/BXe6E/S4wdjmAVxnHG4Deo2ok9aGAKXfSNRTG/4fpwV+Z5ZHn4D7TwRzvM2A74+yWWeh464vEzCIpfpHoWcdaEThxI9AnAGForv2xbx0CIIQTOh5d236Qn0QAQegePHrfNTkTvf+dN8ZXqDhlVoAAAnEJ0uv4soNBfM/pEBLK4t/JuKFLIASL0siFtFoXLYGm74LUU6CJlCbntJV+okNF48Ygsquy4K3KFnL2ejiOSF0UwZY4nJlO5A7LBTNNBk0dBklQNDsmRJZCiDgRJ6HbQlrYO5PcMmUhFHCyjxabVGkUvAsHdi09gGuHj1PPnzCkM3NgZhCkOFJnBkEWnKVnBLVYdoIEAgcEFjRE40n9nc/27F62ee/P8/uPfWHRokVH5K54qB9JI0XvvQ6M/Q5A4dH8+DLw9+1c+/oFiHRZ2XeWGNAAxshfILVxQjlQAgy8jkFbE0a4tTvAoIzGOGROZ8y2gAF5RzMmgK9UuH7TTIQ/peMoE+FmfuJNVIPz+1Uov70Exy4sZQGEo3sa1t5WBL4sETieAIFSpqVflsB80XEOq8gvSeYofyw4LfebvsrMztMR2dBsKTSNl8xP00mKNBnHaXEoNQmo1VAoHxpiR4Y5kiQWmsfT5J6WQTA7ISINMRxc1QH4HLBzhiyvE3YPEEuocGW7kTMkW9b9DXKjyHCkgYxUZwRlB+iz9M4LsUQ1dB3MVsYUX8EUdVJsCB6MovblxncvO2tM+NSKopmDyvJZqrxAYMcgJxolBiowmMw7kT0wjKUIJHRmETSouq49u2JTw6a9DTc1Jrwvr1mzpgtb/1if4YvwlNoU+5+J4Mc5fwRgZFx0uC1fYbiEgw8Ex5WzEaT0fmo7Ug5CbxdZCngYvHdzxr4F8KWcs/cPNyCAuxjDNQDrzzh+WYzAA2a54iV4vwXGHgJYrcrx8wQ6Fh+JA2NP17QAwuGfhLWHFYEvYwSOC0CIJHQ8srb9pAIIRXmZ5xackvN08eSCfJuZPaA3RBTVSf2QdAe6WSbThGo3xIKMsoKhNyDaE03OgoEQwFzSirn7W0cAhLIIZoZCchO2PlMHZDGUjs2Gy2WH3atAcVB7opRJFlIHNCZyjZSeDfLczJUhWyclWTGdLGlmDwTxMoVUjLGLzIHh6bD/tXo1o0mbXFLVv7HC4/rOgJys2782egCzKYoAClRiEBLLAv90vpbp4CA9i7CnoU17bWPNhl21DT8s6D/+w77IHJijfwm+mZzxBzlYUuX67ByEUm2Evf2QB5DvtimJ34DjZnC8MwuBC/oSILyErGGcsRUAa2YcP8rspVsi/ZohwMngvZEz9t/gfKkK5UeXoGMX7fMiMosU2P4KhisB7NA5bosj8NqhnCMJpADeq0mI24vAo1Mlz8ACCF/GX/3WmK0IHD4CfQEQBg3NtT9+qBLDyQYQxk6pzFZVfkfGQPuNecMorS+3lP2xKifhtK4tKiM4qLzQaZkssgFCQtlQOhQgQeADBpZhKiN2e8g9lBlohb/zmXooRTZUTSno0uooPBTSVBkFhjGBC42XxmQaNwkjKRXoDhDSPCAMJUeHUWbQdZFViNaraHy/6bkBLfEfvFofapo+fXSmoioXlme6fjNr/MCh5QXZrEsGwQQIIjwG/8Aws9QRTST5wvc2oM1m+0lNw4F/Ll++jzwXDtP+dvgfhE5w4M/Rof2KMeVWzvF3O+y/PpzPQldggb8BvELh2hkzESHTKLF90QzCS/D9lTP8iDG2MKIr189DW8eR3NXLyB6rM53aGkvA9StnIfiSQWcFW4LMUQpT7mJgUzm5QTL2gk3v+EFPVs0LkVnshvIUZ2yCAtYOzr8/CwHRSmkBhCN5EtY+VgS+fBE4LgAhmtDx8Nr2es5R8uUL0dGPeOjQsjx7Lv971qisq/0DvJ0nIP6B2S7YvZuAOhlISyA1OVK6n6cIjSlFQ8FXoM7xtH3Th2h2PAgDps5t98JG6Lk2DJqeBhCkb4Oh7GgIN6XknKXnU4o0SVOwEGvqgYMgOBFGBsBouVS6ciEUO3Y9X5eoYLmnX7Fh52c3SOEeAgp2V8b17kD41htmTvJluZyZqqY7zQyCUVbgRGLUw/FEcPGKjeqWpsAzpcMq//j0o28c6ItWxu5P90V4xinM/iwAH+PsyqMh8IkVNvP/H8AvYpwvWY3gpaYz4hcBCIuBbDvzH+TgQUXht8/Sgo8e6Vv5Egjw8P9kDP/GOJ6wA7eldy28Cu8QlbG/kKQzABeRJTk4aTqsBNDAwAdxZjsN0Ivly1nLOP5UjMBDnd0V5W4PQn/iTL8FHL+1IXBHTyCj+5gXI7vSBv1+xtj5h+tiAPAxcTSO5L4Vzp8CQi8cyRiO5HzWPlYETtYI9AlAGJJrf/zbhyApRpM6Hl4jAAJxEPpstXeiPjQBELL537NGZ13tr0oHCElDQtkkAKZuQAokCQdF09xIdgHE4waoMDdTaIlW/TaajNP2p3NTeIXGQrILEXLfC21a3KbZBl9S0nl9sxPC7Jww5Z1FeUJeP9VCaXQ3iBbG7uDGLCXQeOjezJbLpIZ4IAk1wdCyOYTYfm3lJWdNmvfXx186yAwkIrZbbpnheuOFT/JGnT7ipv2bd5/tEmYVYJFonMd0zvPK8xrLqwfdWbNl+6YVK/pGAKmnd4csjTPgvY0x9ntwLHTC/u/no3X/0bxnL8P3DZ3hbxw8W+P6+EskMfCLAISXkPUbzpT/BPAheHLebESPSkZ6CbyzGMMD1EbJOTuvexvm60Cmqnhv0TmbA4if0WIJFujW6aVqBxjFYQfn2vzZCG1OF2eiDIIbgT+C4WbO8Ts7Ar8/ksmZAIId+n1gmM64cukstC9Jj7UAEEy/nwHTj+YZcI7fuOD+y/loOFLBpqM5vbWvFYGTJgLHBSDEkjoeWtPeIAFCD1J+X614E0Cw+dS7vaMyr/JX+aT2gVyBm62C3W+ZVuA0GdNkbU76pENA+gdmacE8xnR2lOn8lCiRFAxKySGnXaPhrVhre1sgd+jV/cFVKdBEn0mtJhIAACAASURBVFPmQrYniu4EIikSGdI0f0rPVKiHAggOQ8FRGEHZ0LYnCiR1JCMaIs0x5AzIQtvuEC+yl/5uwoTqP9x11yLZC9njs2dz585VFi1adATqeX337pBDYhDemxVFGQqdL56JwKvUh3E0V3gFWQWaYvt3AHm6zp+/SKbhX4J3DlfYBQCvma0HRfvhkW5LFN9vGHgp07F8FoKPH+lx5n6CdAnbVVxRhjFdWzCrm1y0ud+7QFYEvrN0sHOYwgsIIgIsAZ1v0GB/0Y/Wup5kmVcDjnr4LtMVNpXr+ss+BF85Evnm5+HNc4BdzRQ2nOvs/tloX59+b+bnXGEjjuqedX2pHcE3jwSkHNV5rZ2tCJxkEegbgJBjf/zbE3vXQYglOR5a3dbAIXQQvnAb2on+jIaWleWhOHm3f1TGVf5KUpIVrkedrYrdpYrTJv6UJoHoYqCWxR7mSAITxB0QOgbkoyAzBt2BBJ1XgA0bmj9Q1zTXNIwf9l0CCIY9tNjM9kT6t9nBYHZX0GfEdUj/7BA6CPHWBBq3tMPtyoAKHfZMJ/wVmbBn0LVIHIrh4ButjVlq7tdnzJ67Yv78+V3rICf6gz2JxkdtlcMBNhfQu0s5n0RhsG7VisBJHYHjAxBUjoc+aWuUAOFITFy+1A9laJk3Ty9w3JMzJutKf2WmYOUbWXtyaDycnLyc9CkChxQlMpUPDa2BVGuiadNsChQRtyAK7H+j49lwQ9vlw2+oNIBAussiHUPfo1JGuloiARHqYJCkRfG56R6Zdh/xVhUNGwJwZjrgyLHDnWmHu8wDxWmXqpGa0ZlgsyHalNAa3+t4d3jV4F+MbmXr5i9b9pV/H77UL7M1eCsCVgRO2ggcb4BAUst90qt+Ij8xKjFEI7G/RxLhqyumFiJviFFmEKn7nib9o7kZEwCkyxub3QXCrplkj8lamUSUKEOsINEQR83rTQ8n2sPXjbxpoOQp8E6QQKRCGlevGYjOAQozKElY1JMc+99tgabqKBrjgzPn/7H3HWByVFfWt7o6p8mjPMoBRBASFtFYZIMxYIJsnI0JtgGvTXBaexkvuz9rw4IXZ4INxgGDMcEGTLQMiCwJlBMjjSZpYudcXfV/59V7rVKpe7onKlCPbz6hUXfVq1tV755377nnQl/BzoIle7eGRqRC7/iokUTxlkQ28kr0L6ccMfUHpz76dutgpXVDMY31WcsClgUsC1gWGD0LjAZAmD1fTzGcVEpqOY0IwjuhHk0jNGs65MPKcyZObKDG3C+rj/ReHH0/SdHWFDUdN4mqj/GwdssSgELB8npVAhtFuiSy34tdPa8Q0ImIeiSClUWCzs/4A6hQN/EY0FpvR5K6/jVwTzoUv/KIr8/VlRCxo+fiSyzlYByiK2OR+QB8wMn3vj1Ara/30sKLJpO7AaBAVDDwixFpCmMqA3wGzFVRaOC9UD6xJverU6dO+1Hjy293CLb/6D3a1pEsC1gWsCxgWWAkFhg3gHDvO6Ee9QMCEBYvXXBtzNZ/18yzGuC5KZ+TKBvJU9fLfRSNZ6h2kofqF/hJQnseu0zuIJol8ep0oZaIuwrCIgYqEhga0KWVWV8EfA4kRnNRiGzXRZQMWgLRrVEKvRm5O9qXvPKIa2dIDHCIDouIGgiAgMiDw85aBbGUhalaIZ/VKDOgUttb/dS4oI5qDvcQoUcEQAAnOyJ1IQmio0irgEzJnzQGJFDBmc1S35poXuqy/W5qVvpJdH37xhU6P+WQr3IZyQtrfdeygGUBywLjZYHRAQjV8gNfXIoIgkwZRdN/8iplFPxohAjCve+EelWNmlBnPV4Xtz/Oc9isqXNzwcybU5fV1DiDvP8CnCeXHVYzOVLiCiGyMNCWIIdLpsb5tZSFo7XbyNfoJUcQUQGNJA27bZPuAJNZdujpAXO6AqDA4dSFlQwAYWBTmLIbs78Kd8Uun3fFRKeEyAEDCA69QkL0VsCxAS7Iplc6COCgEWWjCoVbkqSkieoX15Or1qk3UQJ4gX6CqMDgEQ/W4wnci3xexwY2m+j7xKMIaF+do/51cU3bLT0jDyh3n6d4nqUvfjHb3Nw8pMqB/XGfrXNaFrAsYFngULfAeAOE6USUOlSN2tzcbL/nl3f8ddLpVR+vne3VL5OVL6JvAqSIQQ6EfLJe8ogdukp2yoY06t8eJVXTuAyynarnBsgmIW3Aw/+8qyE7pqhgwC5fDBbi5w2ThJYC/7e+9SFyd7p+0tsRvbDpk4EZNt4cSpJte6smiu+z9AMnLWoqJTtSDBy46l1UMy9IsldvysQ8v+AusPPz3hBFiZhCeYlPSnS1VFWKt2cotUPp7lsb+uGX/+2LDzY3/yJ+qD4j1nVZFrAsYFngYLHAaACEWfOr5d9VGEGYUaTV7cFiq7LzXHjU7M8rrvBvms6qk1mnRQyE/JmcsR4VKAzGK8BOXneqzP/nVEr1pSnRnqJEf5omHVlN7kaQAvUmSoWQP+MioMPjntQD28GzFARUDcFr2HNru9cO0MTshB+2rOs6eur5ngsdAUQY9AZLvBOS/qfgEfA2z4guxHbEKLozQcEZHvJP8ZJk17kGEpu3AAmYG9IWkFnGdRYZvG00LjnVmaZIS5RSiRTZckRej0vxuKu2d2/su+fCi87+9e23P2gJ3JR92qwPWBawLGBZYGwtMG4A4b53Qr15jWaCMze2l7R/jn7mhR9atHndtgfnnF9/hMPPnaQI+Yuui8bsejHLI/SvKpTPEqX6MtT/bpi125l+agNp0OsRKQUWAeAkQ1QHIKWAcwBEIC0AsABVQz52r+2nWe4Z177y+KrpCy6acJO3yaN/h5U38i6RIiLA0gY6/yC0NUbxtjQ1Lq4iVxCgQugq8MgIl2hm/RLAPeBdHY13QM2oFNoQob6WMElpourJAfLOdJKSUCm+I92R687f6rDRWw0zpsRyCXfHmWeuTDQ3D02caP/cceuslgUsC1gWOLQtMN4AYRYRHZLh44kNgftmnlXz+cAsj84sZHX/Inqwx1nrO3Y4WIPpWYdHvgsXokqaxvBAvCVFra920+wzGsk7gQMPHBc5faF2KCIGonKARQf2tILevbqfDm888pLnf/f8EbM+Nqm55ohqHm3gxEgmmMerKHjoP9GWos61YZp1ZgPJDn5eUWJZOI/Oh9DTDYgs6MAFkZCdT3RQuDtOdU1Bql0YJGdQJtljYxUcrAzSZqOed8Kqu9tz7fIZDfdf/8jrh2zq6dBeQqyrsyxgWeBQtYAFEEZ4Z5ubm22/f+CX58mT1Dsmn1g12+HZ40wlJ7gHvBIB5wEwYMQ/iNhyh4rfowkSrxjQCX36MVjzJEmiTH+OOt7oJ3e9g+kNoE0zAx9wyIV8f6FWUr8itpvXyYpdr/bQLP+CMzasXHWib6nvPyccU8v7+aGigKcGmCJjnlVMgFiIIomdz/ZQ42EB8k13c8Aj6ziCTQ6gJs/+UBUbqXmJ+t6LUN+2CDXMrqHao/3k9CG6AXKi/lk2CqDGRunuDPW9FXuupi391Ve7Iy0jvBXW1y0LWBawLPBBt0DtHhGavUwRg/chonr+JzbqRskBOCp8F3lr8dk91fgjsGpFHITfvBPqUzRCBAEnP2TGKaccNbOju/POhuO8FwSnc1liHkFgbZJFqSJzkpBENvRBEI6cbak1vTxQlBYyLoEOIiRNIyWepZ7VEXIE7VQ736eDBF4+yKoFxK5eOG+JyzHLMnW8sJvqe6UTclXB48PVA3dOWVyrO2qhisgqI/SqBNGkCbyHfDJHmx/ppAUXTyLZ5yAJvAdJb72MSodER4zyiTxFd6XZV+sPryL3RBfZQH5kXSt5MYKZtMhVFfGlrn8OqK6O3EXnbe9/qll/gK1hWcCygGUBywLDs8ALhK6y+w40e1uNrqhEhK6otxLRPwzEuFOJ6NdEtJaImoloPXNjw5vDXt+qDCCsCvUpKs0hoor62I/CvMb8EM3Nlzr/8KfXLs9oidtrZ3u9Dr+sKUre5g042e5eIxupmo3UXJ7yWYUUAAQtT7JDIrfHQZ5GJwu7F8iCAhxwB8oUEVnIXucE5KIK9bwbJd8UF1XP8vIogg4umBIi+ARGIiR6KUgStT3XS56W+JKFl5497fUNrz4+86S6fUWZOK+BnVOW+fFU6lsfY09Jw9HVDJDA14O0qKY1SnQnyOmxU+0Cnw4gmMaBLic9qGok6yXhZOTLZFucIm+mHzvhvc7P3k2UHPObZp3AsoBlAcsCh64F7iAi7FQXENFcInqViPqJCC3iW4loN48S3MuBAP4NTuQJ0rumriGia4nonXEFCL9dFerLqWzC4UPl3gAgPPTQW8d2tnYu9vtdmkbSMn+T/ZKGhVU6QACtQNFIzeYZxUDJ50nVVLKpqFSUSZYlivdlKaPlKVjtourZPrL7eLki0hNwuHD52QxzutBSSHZkqGdziBEXGdEQyoTG9tHGckhu6Lbn+snZllx87k1Xuf9w/wOvLbhgQumeENBsAEBgEQkiTZGo5akumnPxVEr0ZCnemkDvJ3L5nRSY5dMzKFx4iQED/D8iEuz6ObFSVFQUoiM6QECaBVoIbY/29J+fyM3+UUvokAGPh8ozbl2HZQHLAgeVBbDpRye/LxDRp4no6zwagN0j0gtbiQjpXAjeXENErxDRKUT0CBFtJCL3qAOEebzM0TeIUBIHCPOIKHRQmXsIk506tfYvs86vudhdx4WKjI2N4Myxw0fePq+RqmqUT6mUjSmUgyJiGiqFCkV701Q1M0ANi+pI5nxHxlvgZYLRHQlKdCZo0vG1eooBaQkABDhlO4SP9u2p0P7sgObdkVhy0c3f3/Wz/72174gvTNNTDMX0ChhA4BURuHbZRtse79CjHtVuCk73kafRTTK4FlwpUYgh6aJLPK3AFR8L5ZMAOkK3we7YI+aUz1P7P3fTLKn+EnfNhscfeeTQ7/Y5hEfK+qhlAcsClgWGagEBED5DRNeJdAEHCGip/iciOo6IVhLR/yOiv/O0xP1E9Nn9BBDCfTlVm09EA0O92oPh85qmSZPq/euPuqbp8L10CMSOGmJJ6LpYUD8EUZHrFjBRojzlcxopaZXSIaKud/pJckg0/6IZZLNzgp8sU+drvVTd5CHvRLceymfCS9qets1CgMhgNAAE547c4nd7w+9NbvLnj7hyhsQKCUV3SaOksmj2JEopJRsldmeo6/U+mvGxyWS341wiLYLoAZQe9d4Qe0UycH6eSmApFEa6hKoi9Ba4/gLOkVcosT1BHc/033ZesOEHP92+PXOA3G8nEZ1LxNQ/x3t0EtFzRBQd7xMfAufDzuhkIoIom3ls46HTkVTMYIeF45d6LvBmvU1EGw4BW1qXcHBaoBxA+HcigibR54gIKYn/I6KvcH7gN/cLQHhgVbgvo2rIiyDncciN5Z859aQ1LesenvXRiZMZjY+lBHSpYYxCOoA1VdIJgux3+EFUAVEE7MDBG3C4SLOheiFLLX9tI1uAaNapjWSvdlPrM9006cQactc4OEDQd+y6GJNdT0eYujJ2vhDOO3ZrS9bs6HmvaW5NZt4nm5yyD9EHRDQUTig0iDSITpFIcdgdlI3lqPfdEE1cXEuyU9WrI1jVA1IIOq+wpPSz08Wv3dCMikc90FNC51jkaPcjkc0XfWjOMc33rzhQpLiriOhhnpcb7+cVeUO8vDvH+8SHwPkQRr2biD5R5FoeIKLv8DzscC4VSBdh2f9Fp5QiB8DLiFwudm0dwzmB9R3LAqNggXIA4SYi2szfkyOIqJ2IDieiC4no+lEHCHOq5d9dvrTupMFSDIc6QJg2ufpLdcf4bm9c7EepiKEXAne83OkyVUTep4DtpDkRkXIZnr8XwkeyXnKYzVK8I03da6LkbfCQatOocVEVOdwS4T9GBgQYQU4fJEL0UBAlhfxJ2/2veMYer1m6evX6tXOOnLqh8Xj/4YHZPh2Y8F4Kez2UvJETAwE2G+UzKg2sCzEtA1RqMDIiq5zQ+ywwcGBq7FSwAdIJ7BpRXMMbOwmuAiNR6mqMrQ8NtJ+3/NNLbrv5tl5JQruo/T4sgLDfb8GwJjBWAAGRA4Rff05EiC6ZB8DBP/niisXXGpYF9pcFKgEID/FKBkQOvkxEfyWiS8YCIMycWy3/7ktL604eDCD8blW4L61qhxFR3/6y2lied9asxp9NPSt4pbtB3nvxYA4QegXYeQtpYx5REF0Oee8DUWLINBLgRLNw9tihS5RXNOp6LUQOj50allSTjACCQbCIhfNB+uNhe6PD7l2Zish9jpPfWfv++gVLpv3Re5j9soYjuBYCdvNmkCAAAidJItIQ2ZFgMtATFgd13w+hJgFEivZeMFgbQICBlxxXgDT2YkKaRaL2l/o0T7zmxs8s+9gvr7/jjjTtf5BgAYSxfGHG7thjARAADhDR+SkndxWb/eucEMbY39awLLAfLQCA8HkiAgdBkBQxnTrOO0DJI0iJRxLRZUSEv2NTdgGPkCHCgGqGUSlzHApAQBijdz8abkxOfd1d1wX/dtcf/jzjvLqPOqs4wY8x90VPBJ5yKHRZ1FUW91ZTxNT4xhl/qAj9c9Ifb5Hc9cYAeRtdVDXTyx1tXgcdHFAw4SSZ924QhEFJooE30m2ODvWs19ft3Hz82QuvjDkjd089cYJuC0xT1UjLpPd0dRSKidBS4BoLifYkxdpS1HBUgGS3QRmyEotyXoOIdhSLNqg5lTpeCLUGbA3XnHvjD59vXr7cKOJRyVlG+zMWQBhti47P8UYbIADwY6H9byKaVOISUF+OtMJr43OJ1lksCwxqASzQcP5IH4DLJHwugO6lRPQGEYGPg4G0GfLg8ATQKTqKl0ay74yGDkJFAOHB1eG+VF5bSEQ9h9rNPfbYmUuTvvSvJ55Yuwihf+YIjaV9QiWR8wQKJEZDQyVmEyHDjP/n5D/BZ1CTCvWsjZB/qpv8kz17RJJEkybR0ImnBURzJ40kCr2VetfR4bjktVXr319w5NQjqSq/dvq5E/cGMIqezthriK6PElEunqPQlgR5JjjJPwk8sCEM1iXSoVdcgINhSoGII6V6c0rfmvRLUybM+c5VT1y7drm0nLMzh3Cu0fvo/gQIL3Kn1D16l/OBOdJoAgTwDLCg3sIXz2LrJciI4CW8vLcIyQfG3taFHsIWGE+A0M8BwiG36M2ZM/FrtR8K3lK1wFOLFs2icZHGSYDs+eFliLoEsk7O22ewCgeAC75D5+kCEBhTPSmKtqaoZo6PnDVORmTUgYYuTqQLJfGGSfi9kGtWiPpej7+sdfk+v2bNmtYpUwLzgtMDm6ad12iTNJ76KJwH5ZRF0v8AISRR7zsDZPdIVDPfp89flHEKcGO+IF6loTeT4ukViEWBJ1GEs6BpEkV3ZFLJ9dqvzvvyZbe6Blz9zc3NxnzEeL6KQEHnE7EGY6M5JhPRvw1yQKTg4HAe5ch+NM/9QTjWaAEEvKBnc4Y3BN6Khc128HuFXdr+BLMfhPtqXeN+sMC4AYTfrw73J/MaQh5Qcjpkxrd+9K3Ao7954LbGj1RfFZzpk6BZACIiyvlYikA4XOgLiPI+OEte+scMwXo0ZAslkDrhEI6fpxpyOQpvi5OSzFP9kQEGCtiOHD8Y3OmCtFgADVyNMZ9Qqfvl0NNSp3L12u0d7XPmNM72zfC803hKoNrGtBX07xSqKDiY0btFqqzKQkKJpiRRtDVGqY4E1R4WILtP5r/nXIlSJEWHk+kzFJo4gFsBgICqDSHFLJ4GpDNsLup/NxaNb1GuPfqHt//xkeX7NYowGu+H8VnHjnQFEZ04yAvwPSL6H2s3OuwlYrQAAkKtyNNCu6XYAJAD0PuzBQ6Gfa+sLx7gFhiNBbCiFMPvV4cHknkNeRHUeB8yY0pj4ITqwwM/bzyu7hhnNdKVvFsjNA9AyjPKJzMwAB0AVCqgJbOskxCZ4BAcJ/pk6M2a2K5b/C6v0sDmBCFPX39UYI/thPNlUssKSUJqme/44fiz/QrtfrnvcbUre82Wtr7O+fOnTXZPs/+57ljXyXaHrsXABJZE6J+XX7I4AlNIRHoAgEXv0tjxSjfVzPWRb5KPSMbjoxMq2VwhhGQsseRlkuxaRMQEn+XS0QWSo7ginMvlpvDaaD6yOv3VT2254r5mab9FEEb7GYU+Ohz/1SVY8NiB/oGILh9lh4McoyjJQzSGdwsb7cur6Hh4YDAf3tGM7brxM5pVK6MBEBAxADhYVOKqoOUCgRmQFseKK4N7JuyEe7Y/IhS4X5iHiJ7sr3kYbwPmhIUWc8LzjEVzf0QZhWKhmAdssz/mYd6AIPKJUvFReV7GDSD8YXV4IHGIAYRzzpnj2rIt/NWaRb7b6o6qsjMfKJosMaAgQv9oecgFjeAghRgR68aIV5CVJOgOlskU80ZM+J2qUj6SptC2BLkanBSYzDsr8lSFZONkR4ADnIN1ikR5on7sZEeKul8f+KsjpF2zYWfv7ol+f0NwnvdXk04IXuSqFeuP4RnjOgzsNzgeb1stIgA97/SRwytT9bwgait4q2f+GAlVRwGKeCqFlTKKplUoreTS0fssviiJdDgpsT27O7FBu/aCcy59bD+mGCryeBV+CODgi0T0H0TE2aF7fRNPAcLUKDMaaTt0H8+Xw1FCkx1lt2AvYyHDsZHig1AQRJigswBO0Gg6aLNJgGghsV7D1dowL/w/BlRVsRNHDw78P4hTI23mNlKAADG3e4jowyXuLWwIYIBmNyOdq/EUKA9COgv3CvcNJCH8DvcGNoJ9YCeAk+1ElKjw2Rvqx6r5/QIHB89SAxHhHmJxAXENUvl4fvDc4PkZbv8U3CdUtZkXITyX4HUYBdMACCB8NZWIML9pfG6wASLSsA3uBWSEx0qID4sc7gkEhmAP2AZ/x73CXPFeYQ6wBzQw2jh4Gar98XkAVFyj2TbQK3jfdFwAOIh2wT74E+8adEB2DefE5u+MN0BA2O6QERA55piZ0xV//ueBBfaP+ae4dQ6AiAyIEkERHeC7Zp1joO/ahRMHQGDRA0QBGMAAR4GH/zWNUp1RCm2JU8NRQbIH9A6RemMk0TZab9ikCx/lCvwDzCe6M0bR95J/kcPSNWvf7+6ZEgjUuafbfzbx+OpP+SYZKjJ5+2mmWcAiEHpUoMA14E9ONpSlrtd6aOopdWRzFJo/s2oHnfegp1bQz0GkKVjKhVVt8FJHY5RBpGBgE6eLAY7IptTu9Hq64cILP/WX5ubmsdqhjcb7U8kxYMxzuEPBgljsnUOJHOqR0UltuANAAAp/S4noNL7IYJE31+xjoRcLK3TYwbzHn9BnH5VdB78AMP7P5GzqM/jihYWV58UKlynay2JBQye6dUT0PO84NxxbjAQggER9G79fxc6Ntxng4D9HUfANDg+d9I7nf4JJjvtmFmLCe4BeJeA9wE7oygep3NEqGwc3Bs/PCfy+TSEif5F5wBnCIUPr4V+cEQ9hr6ECW6iUwpZwtMaBMtEruOPHuwKn93Ei+hgRLeGA1+g4sWsXzzOeG7xLmBcc9GgMLK6ziegjRHQStxGAAUC/kZeCZwPACQAFJYKYA94t/P9Qxd9QdvhVDj6M13Afj1wJEATwBp4UfpC2xBqAOWENgJrniMd4A4SjuWrTiCd+ABxAmj+/6UR7Y/bJSScGa21Obkq2+4f2gY07Sf4MsR4MXJYY/D4GEPaQEQttoBFm5wqDelheo8SuKIU2RWnKKbW6ExUhe3SA4hwCZg8m2czTFLyqIdwSI2q1PVCTC1z/7OsbBhZMCdRpEz131R7l+XRgKqpeDCkNUd5oBDfmJ0TTqPNfPeSb4KDgDB0UscEjDazUkqdRWCMpBnzyOmeCEyrx8X3ElUTaRVMp3pKkxMb0/fUx180vbGzBiz6WO9yxfJRgPYSp7+IvcDGiGxbabxPRMyPYcWBBAMBYxncexVT+Sjk87AjhbP5CRL8bhZA5AAkWrOUcqJTqT19qPlj8IDiE3P6Tw5jPcAECVF7h+KEmZwYxYq6/IqKbR7ESC/cNjgCADg660vsGIIf3Ak4IXflQtjbcVum4VjTruZJHTeD8Kq1jBmhBFAH3CwJSAHeVjouICMqWACHGAQePSBpS0ccSETg5AFAATZX4K0Q5YBf0FQBgGMkGA88ydAI+xXsXAMxVMgdcD8ACmh+hpTJsgxbLlQ6U1ELyGNEJ4/glj0ICFAJIIiIJoIVn3jgvgM03Kz3ZYJ+r9GIHO8aMudXyg+WEkv64OjwQz2tYLEcL2Y3G9Q/7GDNmzHA7g6n/CMx1fLfucDMI5k4Xzhx9CzCYIFFWd3XMGfK1QLg+6B4UZJkBHvQ0AciDkU1RyqYz1LAwoIMOqCTZRbMkcBr4bQRZEXoG4q5qGvVviZE/7Lt5/vT5t99999+SJ5wwtTblkO50zZQ+X9WEckkQHlERAWDDvyjIkSxbwVUQmVqivsFE2+mWJzto3qVYS/gQEQABMnhkQJd+BpeBd6nk162nGXB8m+798X3er0HNKNTzeiQcGPB8ZrLqf+GRDRtG8pIP+x6PwheB8OFU4DCLLf4IS/4Xb8U63FDtVZwsh9BiKcdW7lJwC7CwPktEXxvGblAcH+FxcCywA8TOr0gOq9xU2L8LB4gdExbFocizDwcgIGz8Q17SaF6UxYQf5Cpzo7Vjh24CwAHuW6XAwGw87AaQboCePoDCcMYNHFzCBsOdB97PLUT0I86jqWQe5QACABPuP6I6Q32OAJYQabmTiHDfhhrdwPzxHMCxI/rXOATQZL52nHsV18moFECVAwhwOOArAWAWe+cRTQDQGvEYP4CwJjwQV7RjRis3MuIrH+EBpk4N1voaPJumfbS20Qayn7k8kBHuuONlAEHwEHgZI+vToFc5SHD4gtTI+jYAAOiCS3CWaNxU04Quivz9ZfwDvS2zvlvnKQmmvshTd7wKoXdVmLTtyhcvnLjwD80rVijLJ5CQJwAAIABJREFULlxUHc/EfiQ1ZK6qme7bE5Fg/SEEmEHJpE5QFNEQyCQjGsD4BDYbtf+rm/z1Lqqax0WbGH8AUQIeQcA1Yz5MgIlHOlgXR36tDCxpvKujHnFh9uA2SbalKbYu9/D0jOvrT67fcbCWxmLhhiMotvBih/FrIvr+CPLJ2EEg+oBw52gMLKzYjaKPwVAdIcAB+hzA6WE+o7G2IHQMgIV8f6UgYagAAYs/QrrYQZcS+EAk49pR2tzgJYOuAp4LA+N4RLcPdgLQBAl2KAPgC22BS4GioRwLn0X0B0ALEbNyYzCA8C0ighQwQMJwnyOAXnACmrmjH8omA1Gvx3m6ZbigyXj9mAs4G9DUQDqv3BgMIKAPCHrEwJeWsg1SRUg/jXgM1/jGE1cUQfjTmvBATNEWE1HriGd9ABzgtPMWXdGV6r6n6ZS6fbsYYn5wpC6X7sTFAEhAOaNo5MS6IOraBXuF3AVHAXHDZI52PdNNMz7euK90ggjrM86AvgvXchkdjCCNIdtp92shLb4pfdnnvnjNIyD8feYz5wR3JFpvzgai19fO9JPkdOvRCFFxIfoksNSFTX8CAUgQnWDpBD3koWbztPWRLpr/qSkkuVHKiFJIfqHsI6reSyJnIM2DAImoCgMbhhJQ0bhKnBt/akTtz/Zr86cvOq2xdtbKu+++m+dODoCbX34KuOlf4gCgWLgWhgQpEdr+lTo+41lxw+FgEO7Wta/3HbgLiEpgYRRxKtwhzA0OvNTCh7khxw1p4UpFzbCjgTwrwE6p3R4eBORicR+N88G1wEGV+h6iCagYwO60EmLeUAACwtbfICJ0tyu2E8O5saBDrrbS3d9gTwfOcSMHdTh3sQHgKFjo4oUTlR+wE88L7vNV2BQgBqCzHJcEoXOACYSxSw08O5gH5iCU9vAsYy6DzQOhdABF7HAHm0cpgABVSlwjVHfFwLVhLmI+rECb7+rxWfyU8mV4/lEZ9McKU5WI+iH1AQ2MUu8unkNRPSFsI+5RMd6GuA7wfD7JIwqDpU1LAQREifB8nzfI+4vjgi9RCRApu5KNN0AAyeSg71B3zDFzGuJK/JVJy2rmexpBMIQksuFdECV9Dr5jNooiCTEkYANjGaTxVgnnLNsp052irjUhmn4aNmimgc/hHEgDYBSOuacFdM/bMTW+jT65bXPro2iC1Nx8lfdfm1fdELF3/2f93Cqe6rDp82dKh3tSCeWent53oyyF0ri0cQ+fovBKa0TZjG4bMQAQ7E5SU1mmzJjPKaRC5plFV3gBBlpQMQ0midLdWRrYkH/xK58484Kbbn+wEudQbsrj8e9YVECoAsovtZijJzvymsNp6gMngx0+FvhiIk54EAHCURHwe05Wwk4KFsbCjlAygAnyu2BLF4s+wEkhvIudNTgKgw2sIViAf1GifBMLKRZGkKbQEGa9IeSLxRTaKBcT0Yd4XrUYcMEij9THbypY5CsFCLg3cKjYzRe7T7AjCHNwdshpj5QHg+uC1j2ADkhv5gE74579iXeERNRMpJ1wj1D9AqeKnDj4EsXuG1ju0OAHJ6DUwPODiho8P3pjub0HACvmAScJXgxST3gecJ8Fcx9ODhwTXEexeYDTAgCLe17KbqUAAp5To2PGe4+qBpSdPsW5CXgeAHIQ/fkotwueZzOfQVwZyJ3gMbD+AoMMRHQQlUMUzJw3xnWAYI/nF6kHpA0QMUHIFuAAQB3vFp5TcDpgGzPoxbXBpohWDcZJKAUQkDYBgDFeJ+4N7jueH9gF9kJHxlFpNz46ACEoP/il4+pO9rlkyiia/pNXKaPgR6O0otFD74YHojkNNxEXedAOTdOk2TMa/je4xPvNCUv0hkfMCQpmvlAYxBvF+AJcRVBcMdcM0Nss814LZmvwY+D73W8OsC6K1XOKvIesqZJQZeQSz6KBE85jd1BoXTqSep8+u27V1qcYQPhts3vFc3+7Jir33N4wr4qXKbLJ6v0f0LipXPMlPt98RqPO18LUeNIEcteYyPKaRko4yRQgs2mF1JxGsk0mV9BNGqmU7tJ/n0NqRdJIUiSSkIkgiWw2G9lkibSMRr1bY++fP/3ww+5etepgiSCA6Qykj0W82ICzRI5+sEV8sPcDDhX927Hgmd9fLA6Q/P0Jd2rGUjHzMVHOB8VGLNRgrJsHFkPsrOGwBgvPglcEMhgcs3nge/g+yq7gbEsdB6F9AATwFwCcioEEOKqziOjdMotHJQABiynOhchEMQcHZ4AFFtcPp1RuR17JegYwhpw4wKPxvuFc2DQB/IAkWo6Ui3uFEDzsBAdpHEDjAGFwUqUiU4jiIm2Dtdg8Dzg/MY/BygXhwLHDR/QFz48oWxVzwX3GMwj7wjkXG6UAgvGz+C6AKuaL8r5SOgMgQ4Gki3tqIEbtdVpE7ABsSgFeOHNwhW7nQNX4ZVwPwA5SJ0+X4TTgOOAAfJe/o2bwidQdyLC4plJrWimAYJwTbAH+CdJf+AEhEvYaLlm16E0aN4Dw53fDoYgOELBAHrRj4cLpp2YcyYdnXjCxXpI590A4fQ4KNFQX2LAT5vX/oipAXDXC9WZRIbNFuPPf/Oc2mnPOBJI9RW5VgehoiNjyuQA4qGSnyIbMxkSL7ar1b69/DQDhrruucz268tWrYnLvXfVzA3oagREIdc5DKRnkwvRENIRdk0TRnWlKDuRowrF1lA3lKNIRp2w8Ry6bTE6/jXLJLOWRRpFlku0OcgUc5AhqJNk0stkkBgQkB7Qf9r2+3W+EKdeqXLNpaz92pwfDgPP+MS8TK+bkELLHogqnOZyBXQ12vdjlmB0bwAHkmZGvRz14JaIt2EEiFYI5ocbcOPBQgYENtUDR2MU8Z6BC7OywsJoHFj/sUrGoVspngMMDaQ4/xVIOWAixcx0M+JQDCIiKIGKByEGpHSccAvgj+OxoLLiwE6I2AHbmcyLag9QMct6Vkulwjdgl4lkw8xiwvuJ+/q3IPcEzg4gIvmveISO0j3w9wF6lZXmovceziKiGmceAkl20ES7V3bIcQMDzJ/gMKKssN2BjgCZEaIqBBNgWhN5S7x7KcgFoEIExRjDwHL/E03mIGlTyPIhmSZgLSn3N5ZB4jpHeKbVZrgQggCuEZxhzq/R+lbPhPv8+KgBhdlB+8MtlIggPvxcOhbMadglAggfl+PxXzpvy0t9fuWf6ubVn+yaipSHXCYAuAVMUzOubb6QRkFd3IHpgUBHEVePfkYPnJL2ihuAphsjOJIW3JGj62Q1cdnnvNAZTOGRkR04qxMFY22fwB+ykJFTqWxV9Jbohed2Ojh68sNpdd93lenTlA1fFbN131c/x6akBhP71/tGcKMhTFMUmB6Ihj1ogRaIkFOpdHaVcisjf5CUJcgceG9lVjRw+iWTwNO02srlBvHSwSAtrCmVUVjSeh5Mcs2GFOl4Ovee3+c5ds6btYFDfxM4ODgW5+2K7UrzE2JEC7Az3hcauH6xsvEfGATCAhQIRATjzoYTDsftDXhzOxsxnQGoC4VaUHBZbGLH4IZWC8i/zQI07StQqdXri+5gDtAiwmJsHdn8ACHBipcZgAAEpFyzKiOCU6syI4+JFAzjCtY9G1RWAD8SXzEAKzwEcLGw11GcCmhrYpSOqYhwATwA3cPbmiA2UbAHYUA5rHHi/wGfBszUY+Cpmc0SQkN/HfIwD54b9cMxiO+VyAAEpDgCdciku4zkBKgFKcI1mwineEThmRBGKRbKQFsDzAYEi48AuHceE1kMloFt8F3MBKREgARU9xgHND0Q8kG4oNsoBBIBKlIIC1A1lToO8NsX/adwAwiPvhUOhrIayDBj8oBwzZ9af3zMQ+emkecGmppNryO7XWf6MeIeafxAEET3A+owqBvyeNVQymJkpCYLBb7ivBd0B5OIRfdB7NWy4fwfNv3gK63vAfm8M/aOKAVUSGDgm1xuAE0YJJf6e6c9R/+rEP9O78tdt37Wb5aSQYnjlhaeuCWldt9fP9ukcBICDQnkiogh7qgn2OicDPbpQE0ut8BLGfFYjVbOT7HWSza5zCCDYBDImGyBl4prwPaYHoQtCsX/FvMXnWDQDv9do95sDZOuUrpHlSfesOvDTC9gVIqyLnWAxZjou9Wcc8Q+33TkWHHAPsBibCXWITCCviV3jUMCBeA+x40JoGvXT5jUBYW/sdoqFnOH0kM82R0uQBoAjLxV5KPf+AwhBlwERGeMASPltCfAgPjcYQEAkA3OtpKYeERns+LGLHQoDvti1oVQPZWfmZwOlgccNEoYfzE54HlDBAhBmjgYgkoR7ZgY3cCq4Z0ZAh+cFYXNEOIbijI2OEKAXkSjzc4lnHu9EsTTDYAABOXWkQobzrgCM4b4hmmAeCMOjdbc5TYU0AMA1on/m6AEqPRDRqiRyYD4fInSoxgCQNg4AUETmkHorBp7KAQRcG4D5cN71cu/eXv8+bgDhL++FQwNZDS/DcBeNIV3YWHz4qquucqxe/dJJO3d0PhQKpeqrgg7ZO8FJjXPqqOZwP9lcnJnPHCknD/JoAFt2hRYCK3Lg3AGkIVTej4E5U5U51p53w2RTiOqPwZqyV3mAfmlwpi7oGEh6hQGcNS9NZAAhr1Byd5qiW5QX7angdavfWL+JAQSQFLesuTEid/2wfpZfJzg6EZ0DkOFWYyJLHMgYmzAJMMSaTvE0iSAhGpQQ9dJLEzASrayZ5LTKuzsi6KIQGlyxvhQs+mGjXDhHvW/FV0V3JT/X2trP5n0ADywoIEphISgFDrBTwG5oJM8+QrjIjwKImAf4DFiERpIrRwQBC6Q5VIwdN4R8zORiLMRwLCAemwcqGuAchrorFsfBHFA5UKxsD2FeiMOUqrAYDCAM9THCTg2OFuH/kSzGKCWEcI95IFICPsFwB0iPiBZANMc4oOAHkiB2mEab4lrgfIwDER6kpRBeH+5A1Aw5dXPkDJEehOyLNegbDCAg+gFgNpyBVQwsf6QSzMAJxEA8m6iwMA4wwBF1+LTp94igIR01WMSq3BzBO0EkxRzRwH1DiqAYKBsMIOBdx30fTZnvktcwGgBhOk8xfHgwkiIHCNihID96UI+HH35YvuWW75waiYTu8M5wza09IuhOdyYpsi1OqZRCNh+RL+Ch6ulV5JnsYTtilVTW4dGm5cnhc+ohd7Zr14EDGwATIHb2Janj1T6adlod2ZHJKDYM7aMLKQaADV4BgDLLWE+GlF3SX+bUz7rxj/c9zcpLUebYEt/VnAtGvlk7ExwEyD4jKmBK+YpGUYh2sLlxQiSLBPDPAvCIvgqm6ELRdtYiUsCrPljFhPgdIiJIl2hEA+tj2cx29eYTPnT0XRB3OsAfFsiHP8EZzOap4saiYgEhfKQARjIQegfRCiDbPOAM4JBHMsDARr7YXC6Da0BdtVl4BaVUIJCZGflYhLFLGy4JU1wDQAmiJebeFUhRIuSLyoJiYzgAQZTNFTsenINghQ8XJCAVUKzFN65juHwUzBXrKRybOdKCnTKApNFGsCOAAHb6xgEyI4ADIjbDHehbge+bATJIjwBzxdI0pQACUhwg+gIIDncgYoOoBtIGxgEwBBAMx2wc4N8g/QBtAeOA84aNR9LXAPcdUR6zbZB6ATgsBp5KAQS8i6KaZ1xI2+MNEKDzjbDaQT+am8n2yF9nnCUF8/fULQ1OddfYCiV9+XSelLRGeUWiVGeGEt1pykl5Rshzu+zkn+Inm8dOubRCmqyRTbaRmtdIyiMKb6PYrhh5G+wUnO4paBft5XCFGBGWK9aTgTtaUUHBwUO0LUXpFvWOT51xUfO3v/1jhjhP/tiRNalc8kfyxOyV1dO9ezpLitbRzGHjsYBmA9crYIRJcCl4zweWQ9AFkTQR/RBkRzE3Dlb2utECEKC0kZV48mZQTM0R0UkbZftTFHo3uSq723bNxo07R0UudAwfNjhHvOh4rosNVAKAFAZHN9JcIcKVKItEmZN5jIb2Om4qQq8APOaBXSCu0ziw20JEw5zLh0ALdkwj1Q1AvhzhXTgL4wAAAeCCTYuNoQAEUboGB4bzFSMtIrSMsjbsaocTgsccEYHArs88kL4ZSYQMvBc4WggKGQeIishxG3e+IBTCacJhGwecJlISwym5FceBgwXYMTP2MQ8AvWLaN6UAAuYBDYKROGVEtwCGUH5rHLiXeKYQnTIORGAQdTGDUWxOIEw0kk0KAAaux2wb2BxRRaRTzKMUQEDKBVUwo9JnocT7s9evxw0gPPpeONSf1VD+MZIHsZJrGpfPfPTCZTN27txyj1xDZ3gmu6nuMN54DTl2xiPQ8+mi/TPSBmpSISWbp7xio/RAnjLRDOVtOjBQSSOZbOSpdpCn1sYqACTWTplHFozSzAAFcK5GjQF8josy6SRCG4W3Jqj/tejNN9104a1XX60LDS1cOLVWqtJ+4ptv/1zVNI/u9GXefloAAObI8Wm9G2WhAZWwLNNK4D/GVs74HRNAUnVColEkCt9lfAMu6CQ+V+huKZOm2Si2PZnqW5X42WEnLL3lyd88OS5htGE+MFiUET5Err3YQLgf4AA7vJHmsHF8LHogkxVj92Nhq1TUaLDLfYz3IjB/BmFZgAHjQM4WYWBzxAHRlMEY2pWaG4s2wrBmx4odLwh1cNrFxlAAAjgJIAkCiKL0DAt5seoT5NCxmBdLE1RyPRCtQRRmvAYcMgACiJZiQNIZ/A0z4BrLOQF4YRdfTPumFEBApA0RqGI760rnilQHCMN4/8wDNgBJ1QjYYRsA2lJKmpWedyifw3uCyF+x6EopgAAQA87PSFKVQ5njsGUsjSepKMXAAQIezpEg5iFd3Fh9uLm52X7/b+76Y8OJvotll82WCeWp7ogqsrnAB+BcFrHrLjQmMlQGgEjI8v58858BaQ8Sy1AsNKkMiiZGnBgoZIsZkVA0ZsKBxOc4QRIHDG2Kab0vh3/wo9t+/j/Lly9n+ekpUwJ1vkbPT+uXBC7zT3XtTRDkVRFMAVF0c0SFhANKiToxkf0oCvt31j1BNGECZwEaCqyfhE7SzMU0SnTqpGi7QybZJZGzyk5yQK/4KMgy8xRLLqlSz8rYJp9ade1bb20ZaUh+rG4/joudJhwKdsqlxJAEk3y0QA52aaUY9ZjPaAhJIUoAspp5wImaw7IAAViEzTXwIE9hhz9S9j/Y5AAlZgCGkjfMBeCs2KgUIMBB4BqQJoHYDFImUCGEsyg2QK4GyQ8po6EO7PhQ4j1eoxhAAPETEQtEm8ZrDAcg/J1HI0YCeBGOhA5BMR4DqiMQ7TDydeZxv1Rpk6rRsN9g8t2lAMJgUYfRmNM+xxjHCEIk1J9VgaKRHzuox8yZDffXHO7+dN0inyOfylP/1iQFmtzkrUepIE9TImcPp8oIfWDuI0zAyXu80oAZAeF2VD+wkD3flZurFQAmRHtn0QQJztgEEAqf4dLF0a0ppe+N+PcW3fKTOx7hACEQoLqGmbU/nXJy42XeSc69SiQZ6ZHNSdkj/Qznzfo+6FWdOolSr0woVD6w7+hKjIXrh5BiLE+pEH8Pmciv3mAq25WhZFeKUukcqW6NAkEXTVwUpGxIze1+I/Wns8/68DW/+MUjQy2PG69nCjt4IH+ULBYTB8I8kI9FVcFwQ9LFrgVRAoTXi72z2MUPJmxTqW2gaQAnaB7YiaFcyzhgA4TdzWp8qIYA63ukiqngRCC8i52mceA6cV6UBhYblQAEPMGYIwCBCB/DqSA/D+BRqrcFHD1C5kN9NrHzK5WGqvTeDOVzpSIIiIAgijteYzgAAQ3DQOocSf8VRALwfgLAGgfuO4Sg8G4a+SQACIggmFujj6WdhhNBwNwBfEYCnoZ0TeMGEB57LxLuzaogs4C4ctCOoxbN+m6uKv2DaafWMG8KYl3Xyn7yTHBSFdofi8H4ALomgSasjF2/yLcjBA8nK8oeWTVCERK6aIJkbMGMZxt6AgAJRoKjEVhIEqU61L7QavXbl1zw2fvRhwFTm+j3NwQOC/56yil1n3AB0Ag+ACICiCDwZkkFfYVCJ0a9L4PeRwIdGA0iUTiwsdpBN4xuCZ5mgZwyA0xMCwHcBV3WOR/LUTqSpviONLW/1Z9z+wL/XHbx6bdMOf7ja/wtLSkx7wPogUEtO5yImTkupgiiH2qtR1sQDI4YBL1imgNoow6di5EOhNqL7TARksVO2zjASygmSgNyIioiRroRgFIf0gjmmn2EnlHeh91wsVEJQEAEArtL8wuH9ALOWUyDAeeCU8G/AxwNZaDaA10Bx2sUAwiQ5QYgMpfcjeWchgMQIIeMd6xYbr7SuSKqhXuMNJhxINWH+wfSqXGASwR56GLS05Wec6ifGw5AQKUIQE+lwmNDndM+nx8VgDArKD94xXF1g1YxPL42Eu7JqMhHjZS8NOKLHs4Bli1bZu/tff/cnD9z17Qz66fLTEVRb1cc2ZmgbChPNQu8TFKgMBhhj68rRq0DVvoo6wqGvOuiLtlsIKYKwiF276JLIjsUJxEipC94CGbnjOLapEb976XWRndqX9+5vb3AZp43b+oU3yzXX+pOCBwvu6CvwFMDouMin7wAAyJSwHgIqMNQ9HQ6SItM5wBzFtEN4zyMXR2FQZhio17KyL7Dhg4W9D4QNoq3Zal3bTTkt1XfdswZZ97721t/ipdhuOzx4dzqUt+BSeCIkTqAzHGxgZJAyL2+OAqkRPPxUbu/goggTGMe2PkONz8ujgXHivSfOSoCYAmnYk75nMHruM39IGAD7ABH2iwGawXCwYgkGIewcanSs8EAAkJ1OCYiIqXU+VAah/elWPkm5oHnEUxyREoqLSvFwo7nwjwQSoY09mgPpExwL42OBGRSlFUiv28c4FeAJwMhoNEeKHNF1AXzMY9SHASk5FCpM5JUNGStoYVgJmRGDY2/jPNBOgulyKh+MA7MBfdtOA3VytkSUQDw8YqVApdr93wIAoT1kXBPSkWebzR2OuWMP6r/3ty8zP7YY20fTjsTt084oWqxp8G5pwkRIgSKjbpe76f6o3zkDPBcfZkZ6AJFiFbrFQMsBWFubMRUDkH2M6XGBBcAoILl/TnvQWgukETx9nS+69X4QydcePp1f/yfPxYWw9mzG+Z4p3tWTTqjPsjkjcEnEKqOAsyIuaNyASWNDAjpipD4rMR1DJikNNNe4PNjjaj2pFh4LmJvS4gOlILAyX2/3t2RmPqkklKp+5WBiNRO56/b0QVHcyAABDDG8eKi5rtYrhIvPHalIEEVWxBH+kwi7I1SRnOZGo6L1AC4AyMhQ+K6wPAuVjuOyJ9ZARWseJAazaVhcJqIICAcOtz5INSLMDAcl9nW2GFeOAjLfTCAgC6V2P2XI0oDCAIAFIsS4VmEzC1AQrm+EOKe47PFSJV4XpAuGY8BngoiLxAuMg44TcwDwHc8x2A6CHh+SpFQy80RzwsALSJe5h4jiEqAbIpcvnGgMgiiRXiuzLaBpsJIwW65OZv//YMHEJ5YF4l0pxlAGA7JZ6gGHs3PS6eccsSCqBS/3bfA+VHfJIeNpQ3glNlOGH0EZBpYG6XADBfZvXw9K7KrL5DyAAsQFYDTZbl8WY8ewFGLAR4BHC927qKCQfwbHDNSDKK8EX8HzoDks+ygfDZPrc/2dDtS3u9ufPf9+0mSCg52cn1gfnCOb9P08yfhBDxVkS2eIgA5kQGDPSkDvZkTWlTbmbpDQTkScytUSHIJavxdgBfDdTFpZwYQ+JcMbZ7RNCrZm6HQmngL9eUv3rCtt9JFeDTvuflYCJ8gZAlSW7E8JXYa2CUi5D4Wuw3MB+FvgAA0gjJXMqCcEupqw90FYoHEgoodl/nYcJRgxJtV7fA5kBpBIjR/B2kGRBGGS1QE+MCxAUyMA+ADss9Ib5TavZfrxYDoQTmGPO43bI1SOXPpG+aDXR9SHKimKHcsfB47YkSVzOALKR1IJcNJj/XAwoTSVJQ6GmvyRYMnpFVKNVYai7kNBhCggQAnX0kPBvPcEGmDgwUoM0fIsTmF/LFZiwfgG2kHMxEXCzKIsgBV47lJ+eABhCc3RCK7kyryiQfCgl/xA3/2h5dM6pX7bgse6b3EWWd3kcbVEnl5nkgVqFlVbzok23g/BkOnxsKumqccQE+A4xflimiUBCKjECUyzq6gyMjTEXhOhSKjeGQBFERZpWyn3jXhXN9b8T8sWDD3288999pehJZjTzj8mLjcv3r62RMKcgcsemF05CIFIqSixXwYoRJgQo8aMPAg7GAkLQpwxPgNkJU2vFuirJI3e9K5CnrL59j2OMV7s1ktRq+pYfplY3310ytWbBgqIaziezuED0LsBItHMaVELLDYkcDxjJSYV25K0CiAsA7y88aBhQxRBAivDLVvBQAPAABym+b0AkLyuHZERYpFA0BoRGrD7PjwPdjLrNpX7vrEv+O72O2apXtRqYEyr8FEfUYDIGAeyEdjDtjNFiMt4r3C7h8pi3J18gjvA9iYAQ+uR5AlK7WN+XOYGwBLJTob4JdgZ26uqMBzi2cHz3Elxyk2V9R5DwXoDAYQMAcIGkFgaKiOGSAIwlRmvRC8p1A7hTaCWWRIqKHiWTZ+D+fGhhYcnJEINyF6M5R17AMLEMAANsp/DvelGLfvHXPMnI/E5PA/ZpzT4Jbtsp73L0QHwCXY47iZwxS7fYTuERUQZL2CNgIABG/kxPgH2G2TniowchBwhSwcz3fbPFohOAu60BCvGhBOWpIosiNFva/Hn67yB762Zs2OfQRKzrr4+C905nbdP2VJLYtA6OqFOlmyMMR5QVo08As0hQMJ0UeCVyVg/mpG77cAASi9hJFXb+S4LoK4HlyHRqwEMtaeong4Q4m+NKWiCk1vbFgr5bS75Fju7aZa2vbI6+1Y+Ia6QIz2swEniOiAud5fnAfPM/K65cLWozEvLMIAIvgx746w28LuEATKSqMYiEpAZwAyuyjvMx8T7HvsxEoF0Yy+AAAgAElEQVRF/TAfsM4hBmMeyJOCSY7Q7VAGQsAoqzSXT+IYCO1jxz1Y6ehoAQTYAuQ1VFJ8vET1CETfECkBwW2w5xTsZZTEYjdq7uwHMiecM4iMQx1QUASAA2ispCwYABf3GoDQqPeAlx9KmQAr4AwM9Z0DXwNg6b+4pkQl11GuWRPABkArqlUqnQ8iYPh8sdQQHDTIw6XsDC4N3h2z7gbALlJpmMtw+gjhnCBd4j2qNEJzaAGEmQH5wSuOr/uw3yVTRtH0n7xKGcgGKxqlFY14BOH0ESKxSh68Uf3MkiWzqgbikRv985zfn7C4hsDfF1oEexoc6YTFguAQLwcUfRUKn+fkPrYOMzEjPlURETALH4lUBA6vIqzPUw5MnpmXRxpSGYndadq9IraptnrSaW+/vaFo6POIY6bc7p5vu6HucETi9OPulSbALxkoAf+Bl2kinSGaQZWwbjqUo3hHmtIdCqX7M5TLos6BTZxUXvlgkySmh+AMOsnd5CZntZ0cbgc5fA5KD2QpM5DJhlZFOm02ef2caZN/d2w+95KrJ51o3rkTL2mli8Ro3n/suLBDXFDioHjhUTYGQtV4zA93HuVyWATRzMY84DihMIjFulzoG04LbXqRf0au1pzrx7GEINFgXAKkDZFSKEZ4xqIM0ILjlOvLgKogLIwIdZsjEuxR5eTQUhLLwhajBRBwPNgEhFRwIcxRGzEnpA7g7MrpXYCrAY6HWSobu2XwO6CrgShQJd0UYWscB70q8DzgXiMkX4mMPQAWrge6CMYBkICGbhDFwjVVSsCEsh/uG8AKBHwQwq+kUq0cQMDcAHQxV5ArB+P14D4h/YeIQ6lKBDQyQ1+FUhLFSJOB3wObmjcDuCcgCCOixLriVrDI4P3C8QDmIaqG9B8qWcq9Bzj0Bw8g/G1DJNKVVMF8LtUfvAKb75+PLFu2qHpH267vVx/h+Xr9YT6H7BAOXucJsJ21kA1G1QFrVGRg6hdKB/XWymwtxWfEYGTDLFchNDx7xioH9h2hrWDTyYU4rgEgtL/aT84ez0+WTA3ect+zG7Cj3OdBbppd++tpp1Rf5ZvBNQ9EVQQjPmKtQppE7yapgxhefgnZZSMJsdSt2EuOmVddGNMxiEoITYUiLkVjvShS1LcmrEVbEh3Tp097aupRy/472BSITk57YuNY9gj2PPL9cBClBFSQ+x8L6XDUgMOZFCNHYeeHsDd2NKUWQ8jUgsWNkCmcu/E5wLUAXCCMD3BTTJkRDwJ2TSD0QXuh3MAuGzvZYseCo4HDAAkOTHEs9GI+eALwIMLJIAcMJ1zqGAgbQ4Cp3BhNgIBzYY5C86FYVAOfgS0BygYLz+O+YeeOxd/cVhvHgBMCiRLHQTQKduOtYdkccN9gGzgvOCqAO2PJK0ACwAKihoM5MBwD4XtENMyNucQ84EzxfIHUh3kIsCDmgWtBdAX3A7tjkXrDeRGJAEcEZb6DzaMSgID5wKGDqwE+CI5tBKtIQUFbB/ZAFKuYCiaOgWgEiKflUoBQKwX4BpAo9hxCgwPkW3CN8ByLeySeE3wHc0BEBfaDMKCRswQRMaTIypGYDymA0DQzIP++XAThqY2RSEdCBcodNx3pcivJUP590aJF1eFwW7N3juPK+gVer7verTtS7OSZVgDvXigqDLALRxMk/F50MhRkP2NOHk5ZgfgQwvd8PRAOlTUw4ukHtp/h8s0AJfsIE2mk5lRqfaFf86U9P5jbNPe+R55eAUez10t62JJp700+3XOU7OKpEZAsua4BKz8UKRFBThTtmFkZZpmOp6LbI5s/T5FAlVF8DzZxujlvgf+7sRU2ZopoSh7pFoXUdJ5iuzLUtyEVrq+pf8CW89530kmnttx+221JI/FyKPdxCJ/FbgTkpGKL6BAOM6yPYpGHwwRBsNiAY0A4F/nUweaHHTwWeQg24eHCzhytnbEQlipxxucQMseODCH9Sgbmg4UTjr6U2AzuLhZYAA6Rq4ajRH4eQKfUfOAQEBbGbqwS4anRBgi4fgjvoIIECnzF5gnnjlTUU2WcIvLbABNwoKXuGxwiSjkBPOFkcQ9x3xACRxoIjrmUJDDSDAiRl8t3Yx4Aj9jRDmZ3RAQwDzyP4Fkgl445oIywqYSKKOaPqBvSFYNxEkoBBDhPzMmsUApnDN4HgBB24bAfnmVcSzFnLp5bpLoAXkv17jA/3wBZALOIHpbaGMC+iNYgcgjOD64ZwE3cH5RNFvsuvocIBdI8g4GnDx5A+PvGSLRTBwhYfA7K8dmrLpr094ee+fukRf7F/iYvVU3zkewGp4DlFPR8vthlC/0C1tbZcLn4rKj7Z/9vUiAUDpMpMYLIKJGWSe8hA7LqBvQt4JsVOHIcg59XzWnU+kx/zCtPuGLed5ofFQqKmIGmadLM+TW5eZ+coL9QogoDmgYM34AfwOfHgA2CCgbORbHKDHYcHt0opEAEWFKJMlk90sE/BzEm9mYg7cCUJg3vEUSjGAnSoMgoSaTmiMJb4kqyQ32zrnrabUeesOTFXzT/otwiONJnDC8pdiaDLT4jPUep75cDCPgeFkekB7AjGU0FOOzWsPsZSotbPOFYHLHLQz+DYimC4dgKTgkcB6jHYUGuJLQ7FgBB2BspgFI9FeBIEV4vp/MCBw+OBapORvO+IWKIqBPuQSXvBuaB3TJSDqP1jOP+oHIFuXxE3wabRymAABK7EBsrRgoeynOECB/mAnBXSepGHBvt25Hy+dBQTlbBZ3FtAAh4jgaLNn3wAMLTmyLR9riKxaPSXUkF9h7/j0ybVH1v/VLfF3LJrN1msxMaNVU1eYlQSSiiB5gWhJCEjoBw+iKMr0B6GWWSSFXYdSUEoUVQAAh70hjojbBHX4D/ni2VrLaRJLuoLtCrGXreiaUS2+3Xb9u849fGnfY13/38vH88//cts8/hRF3RgRFaC4YWzkzdUQADIXhkVGzkDr5gfcFZAMAwNG9CukCNpUiyqSTZOUoqkDoNpZ7iQDmFtKwpRcftAWJnslvRUtuU54OZwA0rXluLfGklDmO4D8mBDhBwXXCGSDdAM8Dc0W+o1y3K3RDKxzs6VNsC6SGvDTIWwt+lSJ2Vzgv5Z4Rksbgj5F4pu36sAALmjdTMH0pwUmA/VFdg51yukgRlnAjxI+Wgk4FGNqANATIoSkOH0pMD8yiWrhjubAAucb+Qnio3j1IAAWkEED+hPwDCKiIVwxkAbEizIXJQKTlQnAeLFdIDiKIhIjNSAIXoB5QTAeDA1ynH7/jgAYRnNkWibXEVyMzcV344N3+/fee4JQtP7dO6nphxZl0g0ZmmRHeOsqk81c3zkW+ia68OjLoYkh4FYANLriD8sR4Hsi5vDMeKUDxaJ3Pny7gNwhEbd9SMWGij3e+GKRvJ08Rj68hdZ9erILArdziobeVAYpJj5tUv/n0lFrPCOHbxnGvSE+M/m7yEr0msVBFcA76TN+oRsCiH4TkWO31R1WAWRUKqggEiRyFiombylGiNUnhrjDKqQr4aF9XPC5K9CqkTHRwVeA68EyQDSsZhaCOdCedoYE3inVxb/upN27vGuhrmYAAIsBRCrYjMoRQLIeNSedjB3hmESpEigEMeSZtdPOjQDcCuFCkS5H2HM1A1gZ3fczykPBSwMpYAAdcCVjoW+mJ8BKRAQKhDiLocGQ3pFbDucd9Q3VUq1D+Y/aBNgdI9VDEgMlvO8RQ7FnYL4BEAZGLHPJyGRUhlAqAAGCCCUiYXyaYxGEBAugapATxHkEvG812pk0a4H04Yzw+IgZVEU0rZGGkdRHqQWkLEZTgD9oDGCABCOX6IOP4HDyD8Y1Mkuiuu4oVAv/iDdlx66aXON9944cGJpwaWV033UD6tUjqkUGRLkiIDCZowp4ZqjwkwB8gcpiD6iSs29FAo9CZgeghC/AhdEvE6cI0BfJ6nJDIhhXa/F6ZMr0L1RwbJN8VLzqBdr0SEM0eEwm6nlmd7Ihdf8pUP/+j6W/YKdx42f9L3o1LslllnTCB3rZ0k5BVAGCw4YS6cJNIMBXKhTRd24msYO5exDwTmi5SIQwAEfa3TcgrlkxkKb45R6+t9VDfHTy6vnWKtGco7VHJWO8gX8FBwsp/cTQ6SwMMQYIhLRmiKRJHNKRroiJOUtLUEvf6bXbbco6+/3l6O6DPSZ+xgAQjsaeGOGcx24XBKdZkUdsGOHDlmLF7I8SPfPVo2RegcEQ2E47HAY17lHCBAAHagKCmF/DDCw8NRYhxrgICwN8AP0jBmp4VrQCkcdp7gI5QbAHOwEypB4KBBtDNrP5iPgXMgQgGhJnQERHQFO+ShgCjzMXG/sFNHlRkiQKhIKAcUxPODeeD5wXUPxRmXAwiitTkqbBB5RqSs3LwQwgcBE5UuAC3DAUxm20BnApwLqCyC8wM7lXuWAVKgmwD9EMwFwKAcYDSe99ACCDMC8oNXHl93ymBljs9uikZb4/n9IVtZ7iUd8r9/+dJLa19c81LbjPNrvc4qRAB0IqISVyi0LU6dr/aRvcFJUxY3UvWCAEkOwzoChw9BJJaDd+oheUQYctmCUNIelUViqojdr/RS9/YI+QJOmrikhvzTPXrIXugoiNJLFl2QaN3dbX1f+flvpzQvX77XAtv8yxsbVzz20tJd29u+FUvGP9y0rJ5qZ3tZAIOhDCgxgjPB+jzo6w3r4sjEjQzXwCIhvKpBqDgyjMBTDEwZUqPIpjDtWtlLvnoHTT6umty1sJVubuhNIQKSiecoB7wRylNkU5xi/Wmtps6vODyutDfg7bV7Pc/uXLvthaaZTd1HnHfCqvub7x/Kizbke2v4AnYPlSwGIzlHqe/iGlH6ZlYvrORcsDD4CVhMESZF7wb8Hc4IO1xECxDFQ1ga5xiOE65kHuIzeHDQqhrheRDAjjSI0eD6AGIxH0SEBGt+KMc3fxYOFtUQxRQQ4XQAioaSjy42F4TgoNsP0l6xAYcA21aykzbaCc8b7heAFUSxQN6EI8ZuGvcNBG+U2cEZj/QaStkYqwEcIuYBYSfYEtESXAvuFypSEK3APBBtGu48KgEIxjkC8CKFhTnhB+RWAADcT0QKkBbD/48EKJV77sQcQGDEswzeDZ4BAGuQbwFQcI+Q/sSzNlyAgmcX994M0kDyBVFzuMctd337/Hs5JFTJAZsqAgibo9HWWB6hrHJ1zJWcc79/5pj5046NuBNPTjutYZKrxrmnVTMjKmrM+UV3pSi0NUY5Usld5aJgrZf8U1wkexG+10hjRESQGEE0hNSyQuneHEU7UxRP5CgfzpOv2k21R3rJW+ciu18vO2SRCbyxsQwNbI4nO98e2O0IOuyTj6+d2PNmKDFn+vzPvfDsWyV3MNddd47r2RfeO6enI/QDyaYeHZzllhubguSbG9DnJOmES5uMqIBMNvydzZPrLyh5UnN5nWvJeiigkgORD5miO5LU3xEjNaJQ/Vw/Vc3xkDPAyyWNd01cB0iYeaJsVKEdT3Sumjd/4RXPP/3aQaW2ud8fRmsClgUOPgsMFSAcfFd4CMx43ADCc5ujsZ06QIDgxEE/Lr2U5HXrJp2eD+TuaDgmeJi30WWz2bn2ASoMOKkPO3JVlSgXUSmbzVIukqFMd5byKZXUPKMnMqeP7pCOKpmc9Xayu2RyBVxkr3aThN28IDSKDpA2mdIDGYptiod610V+M3v2vNtTqVDt7rb+r06c0bj6zde2ILRVbkhHHz3jrHgm8U3fbPvpDp9sz/SqlEkqpLmIHE6ZnE47uQJOclU5SXKDL4FIh0r5hELpUJqyCYWyWYXyaOWcVsnld5B/hoc8tT6yByCvqBRvYY2ZcanmbDRHmd25TOvL3a8tOHzhN178x5sHXTOvcoa2/t2ygGWBfSxgAYSD4KGQlixZ4rAr8ZPPOO+8lqOPPq59+fLlQw1fVBRB4AABjFAQSA6JAdvFQu2nyPXSN52TbB+pmV/lhzNlVY9CxKiwU9Z5BoW+B4IgiBbKLBxgqlRg34O0swAbEtvFq4qNQttjlG7Prk+3K7+ZMKn63pUrt5RTcStp75NPXjqvtW3rV2oPq/qYXCvNY6WbTonUDHy7RqoGjQZcDzgOKGfUD4VZI8IgO51k98gkSVy4iak/8rQLqiGM11WYhUS5lEbxzizl+pS16XblqaqA+//efHMH8obWsCxgWeDQt4AFEA6Ceyx98YsXVts1/zOqJEVaW7a2tu5s7fB53d1f+OLlrx5z3Ie3nHrqqeXyaNNmBKTfX3l8w6AchOe3RGM7ovlPcBnPg8A0lU3x0ksvldete212Vs2cp7jy3ws0uesmLq4nyalXAYAIyBj7TKHQwVIRjKnPiYHwvSyMIyoIuPst9HTg5EMtq1J4V5oy3Vo43pV4wJ5zPvrpT89/vbl5Rbn7U/ZCzjrrLF97+4bjc878We4a+XzVmV9QMy9InkYXSSwSwiMduAZWkcGVInFdjAdh0C/AZ5ycW2HUNeCzyPRkqW9nUpMz9q2ZUP5hp+p4oa5u9lsrVqwYL25BWXtYH7AsYFlgzC1gAYQxN/HITyCddtpps0866aT3ZNnmSyYS+UQilo6EQ+lUKtPT39MVTsZju0MDoff9Vb7dHznjzFVHH33cu1/60peMimYVA4S2pHSxoihDEWAZ+RWO0xGWLFni7W5r/ccFZ80+aX1njxa3y/K8o2eRb6KP+rK7Ka5EdP4AixbkSSKuiohfcE4BizAgpw+/y8BEnvLpHPW9G6VEdzbmUJ1P5lLKA267+51163YNpxXqYNaQjjvnuECirWdGVksvdVW7lkdD4VMck+yu2gk+Cs7x6TQ3kZQSoEeAGwZk9NgCK53k5ZBqUqH4jgSFOxKkRkjzBQKPpOPKi0pceXXq1LpdK/65ISGCKON0q6zTWBawLLD/LWABhP1/D8rOQJo8efJlV1999W88Ho8bOXL8ZDIZyuWylE6zP9V0Op2PRcJqNBpVUsmEkkvGc6qmdcTi8ZZQOJLx5NOnfOWEusmDVTG8sC0a2xWXLlEUBbXNh+RorArcdMc1Z/94Sm2VtqMvrL2xsZXWtUelYP0Ead7hc2jGwtkUVULUk+2grtQuBhrQ0AgKhgww4M+8SunONPVtj1FkV4JcqrNPdjqbJ0ys+eeOLZEd7e1j3+Fw2bJl9lhsq7O3I/2t80+c8wPySrStK6S07go7HD6/5K8JksNpI4fLzgSiJBsadGUok0tTMp2iRDZNuUiWpJikqipSEY4nZsyZ9rvutp5X6+psCZdrTm7FipFHPg7Jh8i6KMsCHwwLWADhILjPUk1NzX994xvfuNHj8bhyuZxOpMvl2E86nS78P/6uA4ccKQrIafrnMukk9bdsoc8eYadBAcLWWF7x1m32e93dmWw2q6laHiV0yMlLskSy3gdAku0Ou9Nud9hkBxh6NblsNqaSevPGra1o9HJAjw8ft/CS46ZUPfKp0xeRLMtkdzhJlSS1sz8qbWjvUrfs6KOW9l5bSrVJwZo60hwSxZQQRTIhSg1ktHB3MuP3edu9gcAzlFPeOP70U167/1cPlWswMmY2uezST3xkita94pPLdL0bRdMoQ6qSTCsUi6VtyVRWyuTypKgqyejUaLOR223X/FWevN9rt3kkWX7pne3awys3XLF+ezeIk2NZgjRmdrAObFnAssCoW8ACCKNu0tE/oBQMBh+44YYbPikAghEkZAACeFTBDB5EtAF9CHrf30CXzadBAcKKliRNXHgceb1estvtZJdlssGJ4sduJxk/5r/b7RQLDbT/4+9PfqNrIPLo6F/+6B6xubnZ/ebTv0/c+uVzbQ6ni5wOBzmcTnI4HOzakL+HvkBWUbRUJq0J+yazGW17d1/u5rtfeHjX7hC09Q8IR9rc3Gx75ckHu2/90pn1NpuNbDb9XuEHf2e6B3ygN4SaVymfz5Oi5NifeU2lJ9/YkvvjC2uv2LG7H4Iq1rAsYFnAsgAsYAGEg+A5kAKBwDM33njjqV6vd68IggAAxoiCiCCICAP+zgDC9g102YLyAKF+/hLyeDwFJ8OAgSzrwMBuLzhS4YTw+2wmHXrj5Zd+uHZLC3S1D/hx5NzJ7977zYuPrvb7yOly6T+OPSABjjOnIELDUzkZ/c9/rX9/4CdPvP2t7Ts6oWx3wIyF85vu+fFnP3LFpIZqctgd+j3i9w1VDGKoqkqqkieFAQSFlFyWkrmM9syalvY/vLDxqy2tHZUoyx0w121NxLKAZYExtYAFEMbUvKNzcMnv97924403LvH7/U4RJRCgwAwSjGBB/BscAyIIl86TqMplo2we+WiNMnmVMgp+NEorGiGCUDdv8T4AQYAEAQqM4AD/D87DulWv/+qt9zajJ/sBPb7yuc81PvzEXx+8+rxjz7r4I0uovibIAIKLRRGczLHqzhOpnAxlshnKpjMMINz60Is7etLOM1549W1I3h4w44TTF5z3sWlT/3b+SUcWoiF2h52BBUQQGFeRNYBUScnj2hQ9LZXNUjgR155+Z+tbv3169XW7+6MHZZvvA+ZGWBOxLHBoWeAM3nkSUsbGAZE0SFVDMdAa+9kCks/nW33TTTctNAIEESHYQ1jUOQnFIghwDF27WmhqQCaHTWMsfGjqw3nYoCqIdr0k06aOfpo46/A9KQYeqhbRAyNAEL/Dn+lUkrZv3fjbFa+88WUJEn8H6Lj55puDv/3l/91lz8Uvrgm4/ScuOpw+f97JNKGumkUQcH0gISIUD5AAe7Z199Ob69+nxiqf9uNHX3/s3S07LznQrvFzt53lU17q6f/+pWe4kC5xOnnaxI60id50CVEktRAZyVE2A35Kljr7QvTEyg2v/G3lpq/v7A1b6ogH6LNrTcuywH6wQDURzSjSzwL9HLBJQj8Da+xnCwAgrLvxxhvnBQIBp5F8WCp6AJAgPofPIGTe1rqTvC4nE9XBzhGgQXfyMts122U7dXf30JQZs8jn8w2aYjBGFHCMTDpNHW2tjy9a8qGrbr311uFo04+LiefNmnZ9PtL9H167VoVdNQiKnzjzRPrkGUvJwUPyepGjRvm8Smu27qJ7H/sndXX3UDxLpLiDP2nZ1QXkfMCN00+a+9f//NTZn5hQX01OgASWMnGyiAK4CBBz0kFllrI5nbeSyWSppaNH+9sbW57qzDi/+eSzK6Afbw3LApYFLAtYFjhILACAsPnGG2+cKQCCOc1gjBoI0GDkIAAstLbuJL/bxS45CwCRzxd4BQIg9PT20NTpM/eKIAjynjmKYPx7XlGovfX9t9vadl373oataBJywI3rrruu4ZEH7v1TrUs5HS0LMCA/PKtpqnb1J5bRrMkNEgh+AA55cDbCMfrVX1fQmo1bySnrwgK741LH0UcvuvD5lW+9c6BcIJQitWzs6lBv74+/ddmpnrOWLiSnCwDBxYAC7p/d4WAgMYd0CQitAAn4M52lrW1dyhNvbPv5tGPP+l5zc3PyQLkuax6WBSwLWBawLFDeApLX691+0003TQNAwEJfin9gBg7GlEPbrlbyuV0s1IzcuqLkSbbZdDIbyId2B/X299HkqU1FIwil+AeMwGizUW9359qVK166rq03jDawB9yYObn+fEpF7/Q5tVlMaJCPnCbTRcuW5JcdNYPVcKqapnUOJNS/v7HR9u7WneS1IwGjj6wqpVP26p/t7Oj+1oGQZjhq9uzGRCZ2d3yg74Kg10HnfngxXXfJaYxTAWCACAKrZpDRa0KlPIiXCi+TzepphtVbWrU7H1u5KpZTvz1p2tyXLe2DA+7RtSZkWcCygGWBkhYoAIRgMMhSDEOJIIiIQl9fDxPZg6NABCGXV8gm2Qrli0gx9IcGaOLkKeT3B1h0ge0+TVUMxXgI+F2ov7dr/eq3rl+z6f2HDsR7OW1C3b/7pMS/OynvMc4vmdVoXr2Hjp7spXRWoVgmT4msSjtCOepL5sjr3IMmFJUokrGtOHzpsZ95/vmVaBW638aSJUuqwl3tt6jpgStJVd1Ou0RHz59F37/8AvL7Pax8U5Zx/xAV0XkVrLwxLwiKOlBYufZ99T/ue8omy47na+trv7p+exta4FrDsoBlAcsClgUOAgsgxbDhhhtumFNVVVWIIJhLG/F3wTsQHAQjkIjFoqSyz+js9ayS4wABHAQH4yCEwiFqmDiZ/H7/PhyEUhEEASAG+nry72/e+K031qy740Cz6cMPP+y8/iuX3+a1Zb7u1rswF4aS12h+vZtOaPKTqmkUSeepO6bQuu4UJVmUZQ9AUDWiZM622e6vu27rrs4X9ud1zpk2+YJcYuCOgCM/K5JUqdpro2mTGuma5WfT3KYJvBwV0QNUMXCSIosi6CWOnI+gvbR6W/Z/HnjGJcu2vDdYdV3VxBn3rlq1yiIf7c+ba53bsoBlAcsCFVoAAGHN9ddfv7C6utrBcskGNUVWxcDFkoy8A2OVA/4/EY9TLpNmYWYWQVByUOTXCYr8JxyJUl1jIwUCwaIAwRxVMJIVI+EQ9ezuuPWwIxbdcuedd6YqvLZx+di1l18++R/PPnmnLRNe7rbv3T0bXRAn+u20bGaQIBkAgNAZzdF7u5OEFkjmkSNHb9pV9b0drV33jsvki5zk8svPDzz3t5f/y6smvup2kAMAIeCWqL6mmj5z7inaiUfOksS92QMQ9OgRE0dCGaeiUDqb0Z5cuTF/zxMv24Muichd9armpY9t3z4Q3V/XZp3XsoBlAcsClgUqtwAAwhvXX3/9YgAEliLgEsqluAjFIggMIGTTpAJcMJKavkkUColg8UfjMaqubaBAIFAQRSqVYhBgQZAVU6kEdexoeay/t+uGt9Zu2VH55Y39J884ZfFhrdvev0vOJc5AKN48at12Om12kJyyDhA6Ijla05UkKEubh6LJSkJz39raE/6PsZ958TM0TaxdqKYSd/md+dNAoMyrRImMStUBDy0/Y6l27glHSChvBOnSZtM7VaL2FM8Oqte5zU4AACAASURBVBkADvJ5haLJtHbfU2+qb7y3WfY4JYqkpUywZsr09Tusls77695a57UsYFnAssBQLAChpH9985vfPEEABHMEoVTlgrEMMhQKEakKUT6vi/9kc4ywyKIHLF9tp3gyQdU1tYUIQin1RHOZow4yZNqxfctLb7/+6rVd/fFNQ7nAsf7sCUfOOrJ3d89P7ZT+iKhIMJ6zymWnM+YEycUBQnskR6s7EyTz6gXjZ7N5omhW+nFnJPvtsZ53qeM3NTWd7sqEfumm9FzBoGTpj6xGpy89gr50zlJyOR261DK6UzIOgsZ4CExNUVVpe2e/9vALb9K21i7JxqUrBhIqLTl52aVPPPPiX/bXtVnntSxgWcCygGWByi0AgPDcN77xjWU1NTUsgmDUOCilrGhMMQAoRCIRymfT2EYWytzQxU9PL8hMByCeTFKwpr4QQTCWMhrBQjGAgN+1tb6/e+fWrZ9etWHLPyu/vLH/5IlHHXZEd1f7Tx2UWlYMIFS77XSGIYLQFs7R2x0Jcjn2jTZk8ogySD/eHduPAKGx5rMeW+Y+F+WcZusBENQEfTSpvoZqgn7yeb2shTULnOQy1N4X0bZ39krRWHIfAIQohD1Y/99bWru/P/Z3xTqDZQHLApYFLAuM1ALoxfDov/3bv30cAAE7wXIRBGNEwfj/fbu205xGH8UzCmWyCtMBwC7TaSfyyRraBZNv8twCQChVsWCWWhZ/b2/dofX2dn1yxStv/uVAKAMUhj/zzOPmtqzb/H92JXGOy5RiwM671nNwAYQpdYEveGXlPo9N4YoOgz9iIF+iYmWy30G1Xpm64wp1RLNkTrekciqlbO4ftfcmvjPch/bhhx+Wn3nmkdqt67bUdrW1ORPxLDn8Tpo8cULmxFOP77nzzt9GDqRnY7jXaX3PsoBlAcsCB4IFpKqqqt9ce+21n6mtrXUCIJSKIBTrwyDABHaW21e/Tl8/PkjRrEaprEbZvMqUFfOq3o9hRUuC/NMXsjJHESUwljqWkloWvx/o66W+nu6b85L8v88991ziQDAe5vDd715T96ff/ul/pXTkC8jJO21EDrtErEBBIwo4ZTqs0U0Om0TJnEo9iTxt7E6RXZbIYSeyGyoZsqqkRXPyjztDqWE70ZHapWlS3WfdWvpeN2V15asKh0u20cwaF3kcNvpXS4yCnr1JFumcSmnJ/eNdfYkhp08+df75k7dvfPPYBq88z+txzk2nc3OTyZQ3l8tJyGG4Pd64w27fEE1nWvpiWsuCpR/a+Pjjz1gllRXeO+tjlgUsC1gWKGYBqbq6+idf+9rXvlpXV7cXQNir7TMqE5iUrl7fbiYwAli8+9Yb9INTgiWbNb24PUE1s48kr1eXWi6lnijUFc2fyeeytGn92j+3bd9x7dbOzr4D4HZK55122uTW9m0X5qKhy31SbrHPJZNb1gGCLOGH2J/I5QMvoHIhl9conslTTiVK5fIUz6qsmZXPKZEqO1JJm/+WnR29t+6v65s1feq59mzk1y41PbWg4lTBZFCxMa/ORTUeB724PUoBE0BIZlQif/DW7W2h71VwOPaR6667Lvj2i49/ukHOfNQhKUfbSWuyU95mNzSJgjKlghbaeZUUkpWcKrUr5NgykJVf81bXP/7K6vVrKz2f9TnLApYFLAtYFthjAam2tvaHV1999Xfq6+sZQBBqisWqGIzRBeO/4/eb/n97VwIdR3Vlf1V19a59l7xIlrzJ2LKQjbENgzBZSIhnPBCThJhkYjLO4hiyQEIgQ0S2mQyTMCcBkpAFJstk0ZyBTAIkgcQ22Agb75IsL8jIlmztLanVa61z3l+6q8stWcYtg83vc3Qktbp/Vd1q+91/33v3tbeij9cilO12pJ3m+PyxMCqaX4dcLndKm2M6sjARgWg/uPf4wJlT79zf8frJN/MmNjU1Ff76icfvzBfDN+a7zSq3hPKcApKcDhhQhdPymBCQ2QvJh4mgmA8LCzgFA5MvY5qBSUJ/UEXDitTjzM65p6u7/00zhCopKVghx8KPZDm1ZXKaQsqJcIeak+p8FyrLcqLnjgRRji9VQRiNGKiqdsmnt7+y/wdTuXerli25IkcZuD9P0t4hm1ohkC6GJhVn8DKAJ6Q5AFPyMyFcmimFAzGzIyh4fzV7ce0vnnrqr8NTOS5/DUeAI8AR4AgQBIT8wsLP//Mdd/xrcXFxgiDYJzdOVHdgVRTOnO5BC1EPWl2dm5YgPHc0jMoX1mMP/4lIgb3+wKoygLLwWkebHg6NLX7hxVfelE4G0zSF5UsXfUwZ6vnqnGyzxOcUXLCbhTgKkyuBGGCCAMDSaMaCGgtg1u8Q2KBOwTAQUnQdjUYNvTfmOCTnlXyxckHd1ubmZv1if1DLi3Lrx8fD3y/ymKv94F8wxQcQnpp8N5qR40TPHh1DWe5UgjAcMdDCJVdWn2ucNWD8ruUL1vqU0W/my8oCWSRZGKAHZykagB0jXfhnQhYAU91ESNMNM6ii6JDh+V/Rm/+Vl/d3vKnEcopQ8pdxBDgCHIG3BAJCYWHhxzdu3PhoSUkJJgjMCyGhEEBagaYY7KqCNQ0B721reRHdfV0Rls/jOtQekPoD2NH98XAIzVrckGKxnI4QsLqElG4GarbU230ShcYCd/3xL1u/d5HRE9a/b035scOHv1IghD5S7he9CWIgEnJgDWIQGtPJ86kkgZIDugMmQc3EmPVGxFDUmfU1r5jzg23t7TD+9KI9FlVV1A0MBb7vRMq1eV6iiEzloWgmqiv1oIpsJ3qqbRRleZMEAT4bIdE/rErGvJ6eYGCi9W665po8UR26wxMfvjdf1grAaZIRLoav9b0JcsDUAwSfX0IOgCjAd6iBCSsmGhayWhSX5yMt+zr5VMmp3FD+Go4AR+Btj4BQWlr6/ttvv/1XpaWluK0tnZtiOi8Ee00CpBmOHz+K/mGGgmbkus4iCE+1hVB1XcNZ6YWJ2hrP6maAqYGqgnZufeHne9uOfPRi3bmmpiZx+zO/WxgZHWoqcsTX5btMB5ADUST1BaAeQJEmBDCrkmBVEfC50tQClsEtO12846VBDQgCfMFzveOGGZayHzIded9uaW+fMKhmGod5VcV1lU71+5Fo9NpAVMPFlFN5gN1BQ4UPFfkl9NyRcWQKZoIkgYcCcriD2fn5a/YdObXXvt7atWu9etfuaq/b/SWvNn5bthMJgCcQL3CgZFiS1E1Sk0mmFYAQJEkBJgcYU4KtZpoooppoEGW9HEN5N+9qa+ufyjXx13AEOAIcgbczAkJlZeV1t9xyy5/Ly8tx1bqdIFjTCBMpCGxWw/j4OHL1H0Y31eYixSC7YaYg/K41hObXXZlWQZiotZGlGMhESGLbvKdl+6mtO3bPvlg37T2NK2YEe7v+o1CKrc91CSIuPBRJ4GIEAboXMDkANQHRdAMEMppuoPyA1h8QAsBSC4QQkGDGghr7PhTW0ZDme1jPy/nW3r3HLkphJqQYrixEj8zwC6uODsbRQFihjokTI04spWW0pNSD3LKIjg7GUDt0ajgEZBom8soSTj0ERd8rcTFv80uHOvbBapvWrvUe7zq8MN+tvlNSo5vyHFoVtEc6KDHAJAGrCIQWsNoOhid8Z8QA189gxYAQBRh+BWkP8hzUJJhoPGag07rv53OX12/51a+e45bPF+sfET8OR4AjcEkiINTX19def/31+yoqKjBBgBTDVA2SrK8jFrs66jnWim6qElG+T04hCP99KIRq6+oTBOFcPggTKQtHWg8gnxfV/vapFy5KHcLyBTMeKhbG7yp0C7hmDxLimByIJJARJYH8nkg1QGAjWXOy/U0oCJQcMAWB7nKxJK5DEEsGNajMB9IwGDJiA6b3wbUbPvXvTU1N6UY4ZPSDV1ddcf28LOUHFV5jPpz6qVEFnQkqKBDVsbeBPXUCAdrrEFFDhReVZsm0nsJEh3ojKBDTELQ/lmfLyOuUcPfGsO7e0RcXf1qYmzfojAdWZUvmDV5Rqfc7RewzZcUXCBhTErBro4UkJNQDWoNA1IIkIcCkANQDK0kwDDQYMc0hufiTr7Z3Pp5R4PhiHAGOAEfgMkNA+NCHPlRSVlbWVVFR4cZxzDTPOY/BripYpz2Gg6PIO9aFrq/205w6qUH45aEQusJCENJZLdtbH9MVM46NDKPtf/nTF4519077ZMfVKxquQQPH/jgnW8iRJTFBCiQJYXLgoESB5cqxJM7qERLcwCKJn1VIB6oBVRAgoFlIAgtsim6YfVHxcL+Ys6ntyMmXp/vzt2p+wYZZbvTjiiwQAwgJgjHVQxEN9Y4raDCso2DcwOSnwCeiGdkympPvRkU+MsoSdvCqAfdcR2MxAxMKwASuDZ4PKbrZG0b9PrcjXOBC5R4H8rgo6QJy4JCoMoNVmSSeeO4D7gxJPuypGlZzgBUYShDgmORnoiLAeXQGhT3LGm9+7/efeGJwuvHk63MEOAIcgUsVAWHz5s0Ffr//RHFxcTYjCFN1U7QPdsLdD7EYigydQXXZYTQr30VSDKqBftEaQYvrlk6YYpiMHFjJBLgz/unp/9lz6NiJ5dMN+hVzyrdf4Q/9nQeTA7K7TXzZAhk8j1MMNCCy4joc0Wj9Aey2WVsek77xd2woRYIa+CSQQEbSDrALHlcMtTsqP7a7c+hz0+kU+O6VK/PFyMkHS8XIZwp9DiSDp4NI2gjgeuB88M4dISQhAcmACaQERIF2DVCSg0mCQa6FXhO0dEKwhu+DIRUV+2XkcpC1gWgBGUliTMiYNZ2DUze2ikkoUoQaA1LDQRQXklowEikGwFE1DYwnI10jMX2wbdT5yRO9w/873Z8hvj5HgCPAEbhUERA+97nP5fv9/o7c3NxiRhDeiJuilVSExoPIG+pBV89w4QAA9su/6VDQFYuXJCY5ppvFMJWZDKAq7Nqx1bz5Axs8d955Z3y6gG9qunfO0z96uHNJiQs5JJEqBgIC9cAJO1uqIkg0gLK0Q6IWgUriENPsrY2MDMD3pAQOQY0QA7brVWnKIabqaEBxtESyyja37Dm8f7quefGcksWzfUbz3CxjPuj9cN1AApx4Z0+/2C6fth0C6cHnzRQQev5wDapu4I4W+I4Jgg4EAaHRmI6KfFIK4QIyglUZiagGONUAx2TpG0t9B83YJFsasUpAsUykFghJYCSFqQfwXMxASo+e95Mdba9vni4s+bocAY4AR+BSR0C4995783w+336v14sL/5hZEox1ZqkD9rO1c4GNfbZ3ODBVYXx4ENU4g6iqQEYRVUP/12mg+QsXJboYppJisI99ZnUL3a93ova2fRsPHj7xxHTdgJrZpZ9e4Ao9CjtpCP5YbmdfEMzoz6wWwRrMYEeMi+sskjg2R7IWI9KgqsPOFhcokmCaUBEsOXQIagEFHTse8dx1tKv3T9NxzetXrvQMjp26v0wav78sW8akANIqcN04eIM1NHwxskAlf7xrx7tzSgY0ohRAYGYEAVwOye8IRTUDjcU0VOKXEXSDYPUAiADDGMgYTW3gdANVGKxpHOxKafU7YGkErFgwwkIJAiUuhHQR8gXncCIoPL27a+wfpwNLviZHgCPAEbgcEBCamppy3S7XbtnpnGslCCnmSJA6AC8ERUlYLuPfLfbL9rREJBJGSjCASp1x5JUM1Bp0oarquW+si0GS8Nho6GQA0gC5/t83//fPOk503zFdN6G6ouT+lYWxbyQDYnKHm5TERZwzJ/UIdPdLUxFMImc580RvPm27w/UGiTQCDWxgF0yJA5CF5M4coVFdivRp3nt2dXQ/Nh3XXL9g9i1FxtjP5ueL2aAeEGIgUlJAgjgjCDigS4QA4V26VS1IIQiMLFAFwUBoKKwir1NEXuyABMoMJQj4mEC8WNqB1CMArtb0A3OqZB0LCYwAL5rSIM8R0sJqHzBBoOoGzMToCurPrrx50/sffvjh6HTgydfkCHAEOAKXOgI4xeCUHR3FJaU4xQAP6EawE4DJvBAmUhMgVRGNhJEejyLR5UWlpaVT8kGwzmOYyHVx59YXjhfnFqxufu65aSk0a5g/87e1nrFbkwErGayw3A7BTACCwJQFsstmOXXSqke+IHNvlcCxUoDJgIUEsIBGJXn734bjSD8Tc3xx74mhjBdnXlW3YJ4e6H2+rkiY5ZNFPEuCEQSSXiAKCiMJrNMAygZJSyFVDCyS/kQKQvdYHNsxk+BPUhiYBDBM8XNJwsVIAkk/EEUBSBfGkx6b1RcwgpBUC5IEwZq+gcmS3VFh63s+tvnD99//rd5L/R8xP3+OAEeAIzAdCAjr1q3Lzc/x71q0pH6elSBMRAgmc1O0t0cCQYCiQiy3ixJyu91nDWk6V7vjRMWLZ7q7+lte2rrx2Mm+Z6cDmIa5pXtrfZErp0wQoEWP9vCzSnwcSGkNAunFZ4SAEASWUkjZ8Z5FEMh7RjVppFfP+sKuw10ZT6vUzi796UJ/ZGOhR0oqBUxFoMoIIwiMHEBBJq6/xNdEr4sWIrKArdAdPCtQBNJwJqSjEq+UIAiTKghAHhKki3lPkLuNvSOsmNIixBRFgSkI7LzoeUZUHfWEhD9/8uuP3bphwwbuhzAd/4D4mhwBjsAlj4DQ0NDgnT2j9NFlK1b/k8tFJvxO1U3R2t6Yrl4BCAL0r1tJgP3ndARgspkM7G/RSEh5/pmnf9z+WvdnpuMurFxc+dcaIbAGFyiymgNaRAe7XpIbT8rhuE4BCuywspA0UmK+AczRz17Ux5QFQh7IjhfvyG0phqCC2jvD0p2HTg7/LZPXe9ttN83p2Lb15boSZwnpWoCR1ZBaYLUBTCWx1l0QMyh4WA2KUooVKdHBSgK+HqIy9ARVVJYF9QfJ9Ugah/2e7GxIFCoyUyogJVD8SbspGKYJDC2YsU6GRCeFpaYDCMLro/of7v7Ok/946623XvR5F5m8f3wtjgBHgCMwXQgIMBznjg0bbszKy31mVtUc/L9+OjdFa6Ei63JgaQimKtj9EWAd+A89XccCm7mQ7m/nIhHwHqiHaD2w928FJeW3/frXv864de6qpfMfnWP0fhoTBEoIktJ3mop7SzFd0jgpeduYxTJ297NU3CelcmtrHgmoyTQDVP4b+9sD6pbOgejOTH4YKgp8H11aJDxW6HaA4WFC3sepBdzCSFodU4oFqczPWjjBoIgRH1xkmZL/Zy2PpFahezSOKnKcyboNRg4EkmYgx6FdDLhYESGwryQ21oQgMGJCWkZZ9wLrCEm2OlrrDqzKAtQgnAwav991KrQuk1jytTgCHAGOwOWEAP7f9pa1715UNmN2c2X1vIXwH/Bkbop21SCd66K1YNGuINgVA9apMNGIZ/a8fYgTnHh314nXtr7w/GdPD408k+mbUjOr/IEVuaEHSW++TSlgBYnY+Y96JGBXRRJQiT1w6lTHxAwG2qnAXP9YmyNRD6w1CTTQ4S4BA41Ejf27e2NbBsa1jBKERTUzH17sCW6WJVNmngc4ncBqD3DQJsWEpPBSQAJNLzDMsRcB9SEghIdeC1MPqEEREIe+cRUVQ4sjeEsAKcDtjAjJtMaApDCY3TJzqqSOinj+U9IqCWycSaohefyEDwKe5kjbL1PIFoyDFlB3VHqqpTNwc6Y/N3w9jgBHgCNwuSCA/7e9tr6+qOaKhd+YM3fBJq/Pl0IQ7EOZrARhMgWBvQ/WBxJgJQLnqjuYSooB1hsa6FNf2fnSd1Zck/XA44/vVTN5U4qyPXe9o1L+TwlBHjypIiSq6oEc0B0vc/wDMpGYH8BsgWk8A4LAdryJ+QvUBhjIQVImZ85/zCgJqu9NNBzV9+/oiW8Zj2aWINRXFb4w36+skQQkMN8DtoMnigm9TkqA2EAqK9Yp5k9ADpiToSX3D7t52LmDq2aWnCzgTKoFqWZJGFNmX009EJjdMjs2Oy6bZUGGNCUtq1MLPalyA7Ufpmic1ry/3dFx5rZMfmb4WhwBjgBH4HJCAIcvmFh4/Ojh2yoqZj5WUlaeBXnlqbgpnssLAdaAtawEIZ3/wUTDmibqYGBrhEPj6OiRtv873XX6s4eOHn09kzemPM+/eVWF+IgrUW/A5G9iBcyK9diOlzko4pQKlsLJ5EFqpEhkcXD+s453pvMWrHUJyfQD9UfQDfyeQNQ4sKM7tmU8pu3I5HXWV+Ztm5+lX8cMnuxFmawrA1tIU2WEGBomrw2PCcdzPCzDkVJ27WQnPx43kCSJyCmYxHGS+iCwtAJLzbCUDpttQb5brJah8DMxHROOTY6bmIyZMochabWcSO8gMT4gFfxo6/7OuzKJJV+LI8AR4AhcTggk9Np3r7n2qoVXLHmkfMbs5dB5kM5NkSkG9hoEbLEcj5/1Hnge0hXnIgXp6hHs5MCeioDfIQh3Hu3obT2w9xPtr536QyZvTO2cik/OdY79wO8UyTyBFOmbye1saFNy6iDLk2OTJMvgAAho8EjYA7OJjrRVj0xwTFbmk0mERD2AYBxQhNZX+7QtQ6Oh7Zm8zobq0mfmeaM3ioKJBXwcrBNuhsmhVAl1hNYBWMkPIT5JuZ+de0JJoN4OMJvB63IgB6YTZPqlBK2ilpkWhCQQEkZIBFw9uQe2DEOCJJBjM5IANTQUO5p+YLMYgMAAmhoSx08LBQ/uONj5nUxiydfiCHAEOAKXEwKJENbY2OivnFnxUFV19Sd8/myBeSEkuhMUBSk2cyRGChhBsKoO7GcrQUjXzTCVmgT72GfrewZ6z5idx498LzQ48rWW9vZApm5O49VXftg5ePSXYAmMgxkdPczUg8QUx5SBQiToQUCzjQ0gCgKrvofvsOO1THNMjiZOzhXAAQ0TCwEF4sKhV/u1OzNNEBZWVXxjsW/8bllEuIUFPhCkloKlAei0ypTJiqlDkxL1FYkgbS/EJORhOKKjHK8TOVCycYCRhBSrags5wOoBnJet7oEoMgiZhiV1QxUaPADLhi0jB/A+1UCBPQHH3SfOBDLeMpqpzx9fhyPAEeAIvNkIWIfjoRsaV3/g6tXXPZSfXzDTriAwEpCuBsFODKwmS0A00qUYJiMLVotlq2mS5HCQlklwVqSuigBg2/49fSdPvv6+fa1H9mYK0C1bPn71vqd/3lKZh4dc4gdREkjwx9X1iXHPtCgR/k5nFOAUQwq6hBBYxxTjdAMNZCyPzlQE2BHjF9NAGIih/YdGzc+cGRjP6ETHutqaDcVK7w+LvZIvcZ1sdw8FmGz4FG0xZMqI9dLgNPEgKjo8KWkpTeR9pp4MhFRUkO1GkpHaWQjBn2AKnhkEV5KmIeSAuSeSaY5gPEVRodMx2fGZipFQEzC2BsbY+ohq5vDWU/HPjISU32Tq88LX4QhwBDgClxsCKSHswx++eYbHnfOL6pq5jWBsZG9ftLsrplMQ7GQBfrd2IqRTDODvKURAks76HRMDWU4hB/AcpEOGB/tRR9vBn0qj4bv+cuhQOBM36Xvf+/aMn33rge5FxcQbwh48RRrMcO4eNIMJAigjCSxIJoJpIsVA0w40vcBaBq3HhPx9QJF3Rf0Vm3fsa80YCYJjfPe73/U8+dC/nFhcJJXacWO7e6yeUEKUTupnUyrJtdFUAw3M7Lph7f6QigrTEAR2XEIOCClJzLKwdIOQKgRCvMi6JGVgnZJJRkDDFyEG1uOz4/SF9HjriNS8eFHV1/+64+BxysEy8bHha3AEOAIcgcsGAdseF6G173nnNxtWrPqs1+vzpnNTnExBsBMK1slg72KYqLVxItOkRIqBKgeMTOC5DCLkpwXUemCPOTI0/MG/7WhpvpCRyE2NjY6n+k7NUbX4vbHA4MeWl5OJlPYH2/WKNJ2Ai+gSxYnWFkf2XrKTtk92ZCqCAdUJtNPBfqzRqI66Io7dxbPm3We6Bndu29YVy+QncNH8ym+Xa4NfzHaR1AIrDsTBmKoJAhCiNMGa7eZZhwa7DvuuHdbqC6moyO9GkiXFkO46MFHASkxSmbGSA/YegmcSV0IU4AxI6sH6OjbNMaya6OhgDNdZxATXttzCknve/6GP7GtqarLpDJlEmK/FEeAIcAQuPQTOinwrl9XWV9Yseqr+yuWz03kcWEmAVVFIN7sB3s/slieazJhOXZgKgWCkgREETVXRnpadJ/t7T/7TgSNd297orVg0b87y6Ojwf4h6ZLVhmFKp34Hy3BJyOQTkdJDdrfWBZW82uTGle4FE0yQ9IPtUHNBoUCMBLRng7OcMf4fRyL3jKhqJ6kiQPR3enNwvFM+seX7btm3aG71G6/tWLlqUH1ZD9/X19HyhLEtEPqeEYFgTGzbFiE9S5qfdBPZro9fESAVOBtjSLH3jGirwycghmLTLg7yadHwkH0x1SRIuoAvwIIoBI1pEbSEFiSTFQf9m7WjAUzRNFNcMFFKgk0JHWS5CPqIqQqYr6wl3fvmX29raMm62lYn7w9fgCHAEOAJvFgJnEQRwVly5vP7r11635r7c/ALBTgjSuSbaWyLtaYbJ7JYnmrVgTzlM5K7ICAIAGAmHUfvBvW09p0/ddehw53lbEjc2NBS+3v3a11xmZCNwAlgTrHqhMNGNXQVBLyCFiOARwHbaLKDhPDquyCeqBttxJ8IflcZB/oYgh1vzDNLGCF84BNJAByY/MJY4rBo4wIHLYEw1keHM/h8xy/2pY8fODGXiQzO7vPBuFA1+zeswPKAekIp/cj4pY6vhYky4EnKimBilIUv4bykmUWzvj1BIMTD5gOOQ957dumgnCynMgZVlJMgAUQsYOSAUgmBovQ7WDQHXw5wYGdYhQ+6LmfJNvUNj+zKBJ1+DI8AR4AhcLgicrZ0jhG644aqCvJyyr9bMW7DF7fYkPBEmm+iYMh6ajoVm6QgAy04E3ojVcrr6BdLumLyM8bFRY0/LS39c94ENH/z85z9/XqN8FyyoXmWMDT4q65GlsINmD5znpm59EHxwsaItpWANmgIOYGzPS2sN4TkIJUcHVgAAB5JJREFUnKRrMfEdFAQWVClHSJAHCHJADKx1DEFVGoto5rLBYPy1C/0QfnDdjZXbt734u3ynukxim/QLXdSa0GcXZFkz5SnbL2lenvZsMK1gqoNNfTjf0x+NmihqoGsHxzPrL3G+58FfzxHgCHAE3moIpCUIcJKNjY25ZaWF3yktq9jo9foxSWDzGKwdDummO1rdF+HndATBao5kJwsTpSPSzW2wEwQ4t/YD+46FRgMffWHnrlfOB/CaWaXrZT3yY1mP5pzP++yvtRbGTRT0UiR1xi6mcNCRqIGy80uXtr9++uAUXj7pSxoWVL1roO/Mj3JcRmW6tswLXf9SeP9IxEAhVbhmJMMOlZfCtfNz5AhwBDgCkyEwIUGAN73jHQ05XrnwvvKZM+/OySsQ44pCDJFUNUVVYIRgIutl5qZonadwLvfEdCmGdLUJdoKg6xo62t7aOTY8tPEvL7784vnc/pqqWetldezHsha5IIJwPsc839eORkxUNrtm2a4MtHSuarjiXadeO/7DXLdR9XYlCGFdjsd0R+PpQPC8yOT53jf+eo4AR4AjcKkhMClBgIu5/fZ3+QL96gdy8gvvyskrmIeQ4AZvA5ZSmKho0VqHkM4syUoA0s1esA9nmsx22ZpiUOJxc/fO7duvveHdNzU1NUXO54ZUzyprQNGxR1yCcnW6zoXzWWu6XjumiDFdQ0t6gnFoz7ugB7Q4/lvTfX8ocOlrZDBweJs9Yqqp607f76SsrHuOHes5/Ta7fH65HAGOAEdgUgSmHBQaVzYs8OXkbcrJL7jeIcrzDYQ8oAykIwjWtIPdbtlOBhhRmGpRYjoyAYWK8IDzOX2qK/Dqy9u/dOjYyZ+c771ft64x90DLoQccWuhTHofpthfhne96mX69oplId2Y/Y3jyNnZ2dg5kYv0lC+bcMtrf+023qM4nkyuTNQ+ZWP+tuAYeSa0jVRWcByR39j3Hu3tfvJDW2LfiNfJz4ghwBDgCF4rAlAkCO9Cq5UuX5+QWvMfpdq9ASFhqGGa5KElI03WcfmDpBnsng5UIpJuzYDdLSjfxEdcgyDKSqYsiWwcIgqLE0UBf7/Dxox2PzJlX+29PPvnkG/IKWLp07tLwwPADWnT8vW7JdMlgmfgmPqCeATopYFSyhqQOX3bulz0FM57duzdz0ysX1VT9/chg/41OB6p3SsJsXVdLTcMQiIsitTmmhlDpHCLfRHjOeWjAD4ymVB0MqRByOJ2KpqNWxZAOi27vf61Y9XcvNTc3K+dciL+AI8AR4Ai8zRB4Q9EPpj+2bPvznGhMrXW63VeZonSlpmqrNd3IBjtkXTcSKQjmhTCVmQt2UpCueNH+GrhfI8ND5ujI8K6+M92PFJVX/r65uTl0Ifexrq5mUXg4eIsaCa10uRxXx6ORXBGRjgKng1gBT9cDdreKbiJNh64H0XR5fafjcWWfw+XtNEzpWX9hScuhDLlFWq9h06ZN3hf/+qeF4WikQglHinNy/DMMTVugRcNuw9QF00CCQ3Y4nU6XW5SlHNM085FhZOmG7ka64dANQwJSAS0Y0CqbLNRMLdNk7ZGJ72xKo9VkKs1gJnau8D5rtwc8z9pE2TwL+J201sqK5HR1qap6Qna6+xVNP2gYKCD6fEfLygq7W1oO8rTCdH2Q+bocAY7AJY/ABUc6GPIUi40WCppZnFdQWtPfe2qN6HDOUxTlqriiudh4Y3uB4rmMkyZSEOA/fl1VUSgUREo8GtY1bZem6r+JRYMv5RTNON7c3Jxq9P8Gb9H69Y3+V186UCg43MUyQgUej7wsMByocns91bqmLFOjMY9p6tgWgHgfJL+gDc9a9Gc18GEjn8lYZzqfAe/SJcPp8YwgQdpvGuqp/MLiI4NDw3tkl3fUUKLDs+bXBbdu3Tp2kaRw4fbbb/e2te3OGesbcERjURSLIuRyu0WH3+/weCQZqZpL13XZMBTJVFVRVTUBaRC8VQEcnBwICbl5xe6sbJ9L9nh9yES5hq7m6XHVH9diXk1VXaqqOQxdFVRVFaFOxdQNAZsfERtGwSHLsigIggSykQR2VIJo6oZOxjqSh66oimZocVmWTY/Lq2Xn5fcJoth66lTXoCjKqsubEzI0bbx6dmG0um5V4PHHHydtNfzBEeAIcAQ4ApMicMEEwbr6+vXrpRM7d7ocXq9DyxGdcysXz+w6cez6np6e4pyCgjJRRGuikXiZJDlEt9sNAcd0Op2mwyGbkkMiQ53AZIh0/guaoSEtHke6rmuyQz4djUVeHu4f6M3Nz4ktqV/60khvYP+ZYDAmy3I0U86C6dCCHfF73zvXefBgRPJ6Y45oVJXNIBKuvLo+T5SEpae7exaMBALeSCQimqboRJIgOWWXE3bdsB6USIANQiymxCWkaUhAmt/nN/ILC0OzZle3RaNK6/5dLwTFnGzDF3Oq406nvnr1aq25uRmC2VTtAd5yH3XA7cEHHxRqa2uFw4cPC+3t7WIoFBKi0agQj78moG6EFMMQevGZnyHnT7/hn8thdDNgWIJ/NQxDEEXxLDyk/n4TlZej2aJo5i5ebKxYsULl1slvuY8DPyGOAEfgEkPg/wFrT2/zdlGJLwAAAABJRU5ErkJggg==;" parent="1" vertex="1">
          <mxGeometry x="267.58000000000004" y="-11" width="242.42" height="131" as="geometry" />
        </mxCell>
        <mxCell id="HsG0DyYVAuRbo-L4cB_m-69" value="" style="shape=image;verticalLabelPosition=bottom;labelBackgroundColor=default;verticalAlign=top;aspect=fixed;imageAspect=0;image=data:image/png,iVBORw0KGgoAAAANSUhEUgAAAOEAAADhCAMAAAAJbSJIAAAAhFBMVEX///8AAABhYWHNzc3T09PCwsJKSkpycnL8/Pz19fXg4OC0tLTj4+Pa2tp/f3/n5+fv7++6urrGxsZoaGg4ODgnJycXFxeXl5eKiop3d3c+Pj4vLy+fn5+urq5PT0+oqKhZWVkeHh6FhYWQkJCbm5tFRUULCws6OjohISEpKSkYGBgyMjKhW/z/AAAIk0lEQVR4nO2caXuyOhCGiYJsoqitS91QW63t//9/h5CFCQFJ+2IRz9wfepUIYx5IJpNJ0LIQBEEQBEEQBEEQBEEQBEEQBEEQBEEQBEEQBEEQBEEQBEEQBEEQBEEQBEGQ/w3O6IOQz9570HZF7sQ7kbz1267MHQjmBDJruz6NMyUFrn7bVWqWqCgwldh2nRrF0wU+WUMd5bLcN/n/tO1qNUfMJZ0zTbHLD1/arldzbJiiV089JlGrtWqSDyYolgU9VrBosU7NwvSs8oIhK0naqlDT8G7ogCI2/L+2VqWGCfRex9rtubUqNcyYKYSx6DorObRWpabR/IrPSt7aq1LDsCdG8oIFKxi1V6WGOTFBrjgWUapz66JOMVQjUUeEbcpJ/SON5w6z0Cux8PD0hKZRONl8i4MTOGPylYfkxw5q9EkZ+edeon7SwRSAUyLQlp/68+JnYYt1/SVbTSAQoQnspBMqPkUwOezpAmGY3gD+n6RMYiikBwTkKZzecvQp/k+Uax2K7J2wvrVeydtkc+5k6+mGmma8fM0qf1gOYfGFa2KutS+aLEyq9hXRAR1Yx2eyo2bWtMRP797Omu7Sf4kfn8/Ai03k/aNxsZ39d8dYin2dGsoEhZ7nsdugnMUU9viRSzwa7I5PqY6Q+l2PrOL46DvfmcIxiSIZ5e9JicLB/RSG2ReslDI+4T/KAh6oz6sUxmT3Ts9KhaVOKkkf3HKXfeDQZ0MV5hcOyQMo5N0T9K2ZVqIoHI0CQhXuLzvLOVtkaK0n2QfMmfnZHeIXrh5B4UXrGmFeIw5U6JEwIpNU4XFvWd/HKHGtCxt5nG/P96lCX/pOLu7iXltUeM3KYPKUO9c8IlAULsjb5eXVytqiTT4uH8TbfGWfODR5p7RSnl1IG7U1nNnWnylUPc2L9qWTmwqzctLPdLzRuu+W1mC+Dc++Q/0qVbjZvMPrQL+8r8LgtBaN5h0Mh7wfgnGNdx5wDlBoZy4p3PvpkOG7tDVG6R3b9pK9FdHxxvX80WjEmwnrmZe/UWgPCMSVfoT70o08U4Tp4GJ1tDCHKUxALe6ncEWKbHklxLRJjvA8u+qCq/9NIbjubgr9V00gcy7jXX7MXH7MBcJu+PgKy6eHJLGWyvH1tN3I4FWJrB5e4Sf5Ocpa/6MrdGW1V6FtTxffuh6NvWLhwRXaotYyL9M/KGo+J6TIUjXx4ArFkijM6sO5Yvq44oIn2hdMPLZCkRxVN9HI1NOKDfULoC8ZF208tkLuL7eFYq5mIo69LRO9XpbsJ/qtwumfKGSOVNt5sS30TYofV2RnCgodxkTERfYxC25n9HZ5k+wzWhw4LNk+mMqzCwq5obDMkJUZkk+gGr+8Z4mHaHY7i3N8Bg+voxfZvs+O+D76wYYo6LMnEWjxNaMo30RB21Zu6Da8G2pdS/TEnysUAnm7B5vJCJ2Z5Wb3yie6QiGQ3331hrjGCqdVJy5/qVAI5O1nRFR2xgqFQJ64PVYbuo1TdeLidwqFQJ64KqiQ1CsUAif1hm7T8DMUAnlCWWaarqcwlPNPYtAPhUB+p8birFdqCERd9ZVrth8KgSKnKyYiXHD/DCs2nLJ2MuhPUxzFl67UCy0xx+GC7Tk0dJtGfakQKGZWIiCUg4x3UCpWOR7OCncq0gxdjRU2OB7OxI2X8d+qcJy3NnZUEdMkwj3JOeiocJzvVDNQeDumkcUGMY0gKBhRcndK965QKMjvDGvdMK0gluYNFNbEpTwINYlLOfmix1h7hLLMRGFeo7jEUGyssHZusTSdW2h3qtRPn00VBlqxaujLWGHt/JDoY1Hp/JAU68vmlQVn1TNVqBm6VBuq4Tdz/I1iQWml+c4jlmDeqd82M1UIvNykzJBrrrCpPI1ALh//o8J8KZ0p/Pi9wspcm9o8lVyb0mRUhXLUYv2wsP/vYq5QxiGlhj5+oLA6X+qDTHEhXwqXopnCV+GgPnkxX1xVF+lJvcK5GPG/+FrCUL1zuiEDKnPegcj2G+W8eYI8USqhDLVKpF+hcCc7zk4xpLhwxVFHk/q1/6hq3YIHN2brFiJk4U4i4Y8EoOwSrM7TiJCFO23WOJRm+pIbCs6j/dJgAwxYe9qA9sA9reHak0g8Mm/Dj8By3Um5PTcyUWIHyAQaAu1mkRuKiR+kj9DoZa2y9cOB/FLBzfVDMVFlToIfyE0AQmC9QrmiMISGZNUWwJBrW2/ht+WZbNpuYg2Yd9M5MJhGszTP5E/ykbZeoZgwnT1wV8mVGbpAQ6ljG9A/Hwb7jsoUsmdYso5foVC8YZTAamoYKBSGmLdJqg0daCXTR90z2KdVppD3Q30vRvkacB7KZ07CO5NSDBTKnTzM0KHS0MC3dk7afk023pcp5KO+tp8G2lOziWIXYObc/Ktao625Qmko8zb+WjUUSkPTnnWyTvFGmctWULYnSgwA9XuiEnEoZuhsCIXZtvWwZMRPckNMoQzPVpWGrgEwdBpE/ngFzFRRsa9NDJQ39rVFMzclD7ldBm8MQ1HRl/RheNmp3HHZheusICvIZy6rckPfNMMIDEWjnlv/pl3l3sQ8Vqzcm1hL4IThtIkNm/9gqLi/FEQIM1JCo/tL/wJ9kguiyYMusHN7hPVVXjh58DWJxbzVwxOXCIShaPf36ksBle9bOCAP0MH3LUTwUHxnRlFi83dmtt3TJ+cD2ntPBgusHYG3wLxgUZDcdfikXX//8GleVw90B6m9kdhtKt8DfhqFPFcHQ1cWXs8rL+kaTKH+Pv4dd5T/MTwxp/2mgsmUshvwwUH7XQz75lVdouK3TdZt16tB8pz+k/4+TflvDP18q+EjY+sCP+uv6hTab319PtlvfdH1G0XgU/0MluDZf3OP8uy/m4ggCIIgCIIgCIIgCIIgCIIgCIIgCIIgCIIgCIIgCIIgCIIgCIIgCIIgCIJ0mP8AvdRk0Zd6tPcAAAAASUVORK5CYII=;" parent="1" vertex="1">
          <mxGeometry x="700" width="120" height="120" as="geometry" />
        </mxCell>
        <mxCell id="HsG0DyYVAuRbo-L4cB_m-70" value="&lt;span style=&quot;color: rgb(102 , 178 , 255) ; font-size: 12px&quot;&gt;eventhub-zookeeper-0.&lt;/span&gt;eventhub-zookeeper&lt;font color=&quot;#000000&quot;&gt;:2181 (with in the namespace)&lt;/font&gt;" style="text;html=1;strokeColor=none;fillColor=none;align=center;verticalAlign=middle;whiteSpace=wrap;rounded=0;fontSize=14;fontColor=#FF3333;" parent="1" vertex="1">
          <mxGeometry x="425" y="460" width="495" height="30" as="geometry" />
        </mxCell>
        <mxCell id="HsG0DyYVAuRbo-L4cB_m-71" value="&lt;span style=&quot;font-family: &amp;#34;helvetica&amp;#34; ; font-style: normal ; font-weight: 400 ; letter-spacing: normal ; text-align: center ; text-indent: 0px ; text-transform: none ; word-spacing: 0px ; background-color: rgb(248 , 249 , 250) ; color: rgb(102 , 178 , 255) ; font-size: 12px&quot;&gt;eventhub-zookeeper-0.&lt;/span&gt;&lt;span style=&quot;color: rgb(255 , 51 , 51) ; font-family: &amp;#34;helvetica&amp;#34; ; font-size: 14px ; font-style: normal ; font-weight: 400 ; letter-spacing: normal ; text-align: center ; text-indent: 0px ; text-transform: none ; word-spacing: 0px ; background-color: rgb(248 , 249 , 250) ; display: inline ; float: none&quot;&gt;eventhub-zookeeper.&lt;b style=&quot;color: rgb(0 , 0 , 0) ; font-family: &amp;#34;helvetica&amp;#34; ; font-size: 12px&quot;&gt;&lt;font color=&quot;#9933ff&quot; style=&quot;font-size: 14px&quot;&gt;m3-sateeshkumarkota&lt;/font&gt;&lt;/b&gt;&lt;/span&gt;&lt;font color=&quot;#000000&quot; style=&quot;font-family: &amp;#34;helvetica&amp;#34; ; font-size: 14px ; font-style: normal ; font-weight: 400 ; letter-spacing: normal ; text-align: center ; text-indent: 0px ; text-transform: none ; word-spacing: 0px ; background-color: rgb(248 , 249 , 250)&quot;&gt;.svc.cluster.local:2181 (from another namespace)&lt;/font&gt;" style="text;whiteSpace=wrap;html=1;fontSize=14;fontColor=#000000;" parent="1" vertex="1">
          <mxGeometry x="210" y="510" width="719" height="30" as="geometry" />
        </mxCell>
        <mxCell id="HsG0DyYVAuRbo-L4cB_m-72" value="" style="curved=1;endArrow=classic;html=1;rounded=0;fontSize=14;fontColor=#000000;exitX=0.75;exitY=1;exitDx=0;exitDy=0;entryX=0.5;entryY=1;entryDx=0;entryDy=0;" parent="1" source="HsG0DyYVAuRbo-L4cB_m-63" target="HsG0DyYVAuRbo-L4cB_m-32" edge="1">
          <mxGeometry width="50" height="50" relative="1" as="geometry">
            <mxPoint x="50" y="470" as="sourcePoint" />
            <mxPoint x="70" y="380" as="targetPoint" />
            <Array as="points">
              <mxPoint x="740" y="490" />
              <mxPoint x="540" y="450" />
            </Array>
          </mxGeometry>
        </mxCell>
        <mxCell id="HsG0DyYVAuRbo-L4cB_m-74" value="" style="curved=1;endArrow=classic;html=1;rounded=0;fontSize=14;fontColor=#000000;" parent="1" source="HsG0DyYVAuRbo-L4cB_m-71" edge="1">
          <mxGeometry width="50" height="50" relative="1" as="geometry">
            <mxPoint x="70" y="510" as="sourcePoint" />
            <mxPoint x="400" y="390" as="targetPoint" />
            <Array as="points">
              <mxPoint x="290" y="470" />
            </Array>
          </mxGeometry>
        </mxCell>
      </root>
    </mxGraphModel>
  </diagram>
</mxfile>
